<svg width="375" height="493" viewBox="0 0 375 493" fill="none" xmlns="http://www.w3.org/2000/svg">
<path d="M352.966 334.254C352.966 334.254 391.42 227.766 350.008 135.082C308.596 42.398 203.094 22.678 151.822 39.44C100.55 56.202 72.9419 143.956 45.3339 185.368C17.7258 226.78 -49.3222 277.066 -21.7142 341.156C5.89385 405.246 75.8998 385.526 117.312 415.106C158.724 444.686 207.038 467.364 263.24 447.644C319.442 427.924 340.148 373.694 352.966 334.254Z" fill="#A739EA"/>
<path opacity="0.7" d="M352.966 334.254C352.966 334.254 391.42 227.766 350.008 135.082C308.596 42.398 203.094 22.678 151.822 39.44C100.55 56.202 72.9419 143.956 45.3339 185.368C17.7258 226.78 -49.3222 277.066 -21.7142 341.156C5.89385 405.246 75.8998 385.526 117.312 415.106C158.724 444.686 207.038 467.364 263.24 447.644C319.442 427.924 340.148 373.694 352.966 334.254Z" fill="white"/>
<path d="M304.376 151.509C305.039 148.529 304.645 145.411 303.259 142.691C301.873 139.971 299.583 137.818 296.783 136.604C293.982 135.389 290.846 135.188 287.913 136.035C284.98 136.882 282.433 138.724 280.712 141.245C280.26 138.214 278.763 135.437 276.481 133.393C274.199 131.349 271.275 130.166 268.214 130.049C265.152 129.932 262.146 130.889 259.715 132.753C257.283 134.617 255.58 137.272 254.898 140.259C253.025 148.521 257.264 156.695 262.224 163.025C263.21 164.297 273.178 179.472 271.867 180.685C281.826 171.426 300.856 167.038 304.376 151.509Z" fill="#A739EA"/>
<path d="M98.213 172.264C97.6353 170.865 96.5877 169.71 95.2506 169C93.9136 168.29 92.3707 168.068 90.8877 168.373C89.4047 168.678 88.0744 169.49 87.1258 170.67C86.1772 171.85 85.6697 173.324 85.6907 174.838C84.6435 173.745 83.2481 173.051 81.7447 172.876C80.2412 172.701 78.7239 173.056 77.4537 173.879C76.1835 174.702 75.2399 175.942 74.7853 177.386C74.3307 178.83 74.3936 180.387 74.9631 181.789C76.5505 185.674 80.5931 187.774 84.3991 188.937C85.1682 189.164 93.5196 192.487 93.3322 193.345C94.7324 186.748 101.201 179.56 98.213 172.264Z" fill="#A739EA"/>
<path d="M256.535 443.621C257.433 442.387 257.868 440.875 257.764 439.352C257.659 437.829 257.021 436.392 255.962 435.292C254.904 434.192 253.492 433.5 251.974 433.337C250.456 433.174 248.929 433.551 247.661 434.402C248.036 432.931 247.884 431.375 247.233 430.003C246.581 428.632 245.47 427.532 244.093 426.893C242.716 426.254 241.159 426.117 239.691 426.505C238.223 426.893 236.937 427.782 236.056 429.018C233.62 432.44 233.995 436.975 235.07 440.85C235.287 441.62 236.923 450.454 236.056 450.76C242.425 448.393 251.96 450.03 256.535 443.621Z" fill="#A739EA"/>
<path d="M270.901 59.7023C271.053 58.1923 270.672 56.6766 269.823 55.4183C268.975 54.1599 267.713 53.2382 266.256 52.8131C264.799 52.388 263.239 52.4862 261.847 53.0908C260.455 53.6954 259.319 54.7682 258.635 56.1231C258.223 54.6639 257.315 53.3941 256.067 52.5331C254.819 51.6721 253.31 51.2738 251.8 51.4071C250.289 51.5403 248.873 52.1967 247.795 53.263C246.717 54.3293 246.046 55.7384 245.896 57.2472C245.492 61.4179 248.075 65.1352 250.905 67.9749C251.467 68.5369 257.294 75.3797 256.722 76.0502C261.061 70.8737 270.142 67.541 270.901 59.7023Z" fill="#A739EA"/>
<path d="M331.402 392.477C331.554 390.967 331.173 389.452 330.325 388.193C329.476 386.935 328.214 386.013 326.757 385.588C325.3 385.163 323.741 385.261 322.349 385.866C320.957 386.47 319.82 387.543 319.136 388.898C318.73 387.435 317.824 386.161 316.576 385.296C315.328 384.431 313.817 384.031 312.304 384.165C310.792 384.298 309.374 384.957 308.297 386.027C307.219 387.097 306.551 388.511 306.407 390.022C305.993 394.193 308.576 397.91 311.406 400.75C311.968 401.312 317.795 408.145 317.233 408.825C321.562 403.649 330.633 400.316 331.402 392.477Z" fill="#A739EA"/>
<path d="M65.0538 340.002C65.1493 338.985 64.8873 337.965 64.3127 337.12C63.7381 336.274 62.8869 335.655 61.9055 335.37C60.924 335.084 59.8736 335.149 58.9349 335.553C57.9961 335.958 57.2276 336.677 56.7616 337.587C56.4883 336.597 55.8769 335.735 55.0336 335.15C54.1904 334.565 53.1687 334.294 52.1463 334.384C51.1239 334.475 50.1655 334.92 49.4379 335.644C48.7102 336.368 48.2593 337.324 48.1637 338.346C47.8876 341.166 49.6328 343.7 51.5358 345.593C51.9203 345.968 55.8643 350.592 55.4798 351.046C58.4181 347.545 64.551 345.297 65.0538 340.002Z" fill="#A739EA"/>
<path d="M400.117 315.126L340.325 304.142C340.325 304.142 329.756 306.587 317.145 308.214C306.513 309.461 295.74 308.63 285.425 305.768C278.099 303.737 263.871 300.483 261.022 300.079C258.172 299.675 243.53 303.737 237.436 306.981C234.38 308.608 232.773 307.829 231.915 306.636C231.479 305.976 231.261 305.196 231.291 304.406C231.321 303.615 231.598 302.854 232.082 302.229C233.882 299.777 236.106 297.666 238.649 295.997C244.269 292.487 259.355 287.054 259.355 287.054L257.324 282.183C257.324 282.183 240.237 283.002 236.174 284.214C232.112 285.427 218.722 289.884 216.287 289.884C213.851 289.884 209.779 289.884 209.385 286.63C208.99 283.376 227.685 273.615 232.97 271.988L248.835 267.107H232.142C230.515 267.107 205.303 270.361 198.795 267.512C192.287 264.662 193.51 262.631 197.168 260.61C200.826 258.588 224.421 254.102 228.484 253.284C232.546 252.465 257.768 252.879 257.768 252.879C257.768 252.879 240.276 246.372 234.587 244.745C228.898 243.118 216.287 243.532 208.556 241.905C200.826 240.278 200.826 232.548 209.779 231.73C218.732 230.911 270.379 232.952 279.726 234.175C289.073 235.398 338.294 259.811 338.294 259.811L345.61 261.852L406.21 264.692" fill="white"/>
<path d="M400.117 315.126L340.325 304.142C340.325 304.142 329.756 306.587 317.145 308.214C306.513 309.461 295.74 308.63 285.425 305.768C278.099 303.737 263.871 300.483 261.022 300.079C258.172 299.675 243.53 303.737 237.436 306.981C234.38 308.608 232.773 307.829 231.915 306.636C231.479 305.976 231.261 305.196 231.291 304.406C231.321 303.615 231.598 302.854 232.082 302.229C233.882 299.777 236.106 297.666 238.649 295.997C244.269 292.487 259.355 287.054 259.355 287.054L257.324 282.183C257.324 282.183 240.237 283.002 236.174 284.214C232.112 285.427 218.722 289.884 216.287 289.884C213.851 289.884 209.779 289.884 209.385 286.63C208.99 283.376 227.685 273.615 232.97 271.988L248.835 267.107H232.142C230.515 267.107 205.303 270.361 198.795 267.512C192.287 264.662 193.51 262.631 197.168 260.61C200.826 258.588 224.421 254.102 228.484 253.284C232.546 252.465 257.768 252.879 257.768 252.879C257.768 252.879 240.276 246.372 234.587 244.745C228.898 243.118 216.287 243.532 208.556 241.905C200.826 240.278 200.826 232.548 209.779 231.73C218.732 230.911 270.379 232.952 279.726 234.175C289.073 235.398 338.294 259.811 338.294 259.811L345.61 261.852L406.21 264.692" stroke="#263238" stroke-linecap="round" stroke-linejoin="round"/>
<path d="M298.44 250.05C298.44 250.05 268.752 257.78 265.902 258.598C263.052 259.417 252.483 258.598 246.783 258.598C241.084 258.598 238.245 260.629 240.276 265.5C242.307 270.371 251.664 276.07 259.799 277.697C267.933 279.324 278.917 274.039 285.435 276.889C291.952 279.738 293.973 286.246 310.647 291.531C327.32 296.816 342.366 288.681 342.366 288.681" fill="white"/>
<path d="M298.44 250.05C298.44 250.05 268.752 257.78 265.902 258.598C263.052 259.417 252.483 258.598 246.783 258.598C241.084 258.598 238.245 260.629 240.276 265.5C242.307 270.371 251.664 276.07 259.799 277.697C267.933 279.324 278.917 274.039 285.435 276.889C291.952 279.738 293.973 286.246 310.647 291.531C327.32 296.816 342.366 288.681 342.366 288.681" stroke="#263238" stroke-linecap="round" stroke-linejoin="round"/>
<path d="M243.076 259.88C243.147 262.191 244.091 264.39 245.719 266.033C248.351 268.458 254.07 267.798 254.07 267.798C254.191 266.486 254.191 265.165 254.07 263.854C253.853 262.608 253.405 261.414 252.749 260.334C249.608 259.404 246.29 259.249 243.076 259.88Z" fill="#A739EA" stroke="#263238" stroke-linecap="round" stroke-linejoin="round"/>
<path d="M260.006 289.125C260.006 289.125 259.789 289.125 262.205 291.097C264.62 293.069 265.508 298.571 265.508 298.571" stroke="#263238" stroke-linecap="round" stroke-linejoin="round"/>
<path d="M277.379 240.742C277.379 240.742 276.946 250.602 278.918 254.822" stroke="#263238" stroke-linecap="round" stroke-linejoin="round"/>
<path d="M288.6 278.792C288.6 278.792 291.016 289.342 295.63 295.06" stroke="#263238" stroke-linecap="round" stroke-linejoin="round"/>
<path d="M145.383 344.735C145.383 344.735 121.058 346.924 116.533 348.472C112.007 350.02 103.547 353.53 100.086 356.567C96.6253 359.604 73.6417 379.413 73.6417 379.413L58.7925 383.84L63.9197 431.957L89.2007 424.069C89.2007 424.069 112.411 422.669 123.375 423.842C134.34 425.015 146.152 419.089 146.152 419.089C146.152 419.089 153.665 417.384 155.894 415.786C158.122 414.189 161.218 405.512 161.218 405.512C161.218 405.512 166.7 404.122 168.288 400.454C169.987 395.969 171.097 391.283 171.591 386.512C171.645 384.488 171.429 382.465 170.95 380.497C170.95 380.497 173.119 359.515 170.723 352.229C168.327 344.942 145.383 344.735 145.383 344.735Z" fill="white" stroke="#263238" stroke-linecap="round" stroke-linejoin="round"/>
<path d="M171.591 386.512C168.08 385.358 164.388 384.853 160.696 385.023C154.78 385.349 129.824 383.169 128.493 385.25C127.162 387.33 124.924 392.862 127.428 395.573C129.932 398.285 157.807 402.288 157.807 402.288C157.807 402.288 161.218 403.511 161.218 405.483" stroke="#263238" stroke-linecap="round" stroke-linejoin="round"/>
<path d="M127.408 395.573C127.408 395.573 122.035 392.379 120.753 396.106C119.471 399.833 115.971 405.157 124.223 408.835C132.476 412.513 149.564 414.357 149.564 414.357" stroke="#263238" stroke-linecap="round" stroke-linejoin="round"/>
<path d="M136.361 412.818C136.361 412.818 141.469 417.61 144.989 418.192" stroke="#263238" stroke-linecap="round" stroke-linejoin="round"/>
<path d="M119.402 401.115C119.402 401.115 119.747 402.84 122.36 404.329C123.566 405.077 124.875 405.645 126.245 406.015C127.109 405.277 127.714 404.282 127.971 403.175C128.352 401.363 128.586 399.523 128.671 397.674" stroke="#263238" stroke-linecap="round" stroke-linejoin="round"/>
<path d="M126.965 393.217C128.083 394.135 129.4 394.78 130.81 395.1C132.173 395.313 133.552 395.405 134.932 395.376C136.042 394.466 136.776 393.177 136.992 391.758C137.397 389.332 135.947 386.828 134.932 386.63C133.916 386.433 130.268 385.851 128.75 386.226" stroke="#263238" stroke-linecap="round" stroke-linejoin="round"/>
<path d="M156.919 405.897C156.919 405.897 157.087 408.638 156.249 409.949C155.599 410.917 154.888 411.843 154.119 412.72C154.119 412.72 157.462 412.651 158.408 406.981" stroke="#263238" stroke-linecap="round" stroke-linejoin="round"/>
<path d="M163.21 324.049L135.385 321.259L144.871 397.614L163.21 324.049Z" fill="white" stroke="#263238" stroke-linecap="round" stroke-linejoin="round"/>
<path d="M140.02 318.803L144.871 397.614L283.532 405.798L272.903 331.355L140.02 318.803Z" fill="white" stroke="#263238" stroke-linecap="round" stroke-linejoin="round"/>
<path d="M177.951 361.123C173.208 362.749 171.926 367.522 175.091 371.771C176.391 373.407 178.039 374.731 179.915 375.649C181.791 376.567 183.849 377.054 185.937 377.076C183.581 379.294 183.374 382.854 185.809 386.118C188.974 390.377 195.383 392.507 200.136 390.88C205.667 388.977 207.669 383.919 208.27 379.127C208.398 378.141 210.932 367.679 212.333 367.946C201.575 365.964 188.353 357.553 177.951 361.123Z" fill="#A739EA"/>
<path d="M201.881 337.261C198.006 335.496 193.737 336.275 192.337 339.076C191.262 341.195 192.199 343.858 194.447 345.79C191.489 345.327 188.698 346.283 187.624 348.413C186.223 351.184 188.235 354.871 192.11 356.646C196.636 358.717 201.526 358.165 205.441 357.021C206.22 356.794 215.468 354.881 216.06 355.63C211.524 349.941 210.38 341.156 201.881 337.261Z" fill="#A739EA"/>
<path d="M201.122 352.742C197.611 352.16 194.811 353.915 194.861 356.686C194.861 358.796 196.616 360.866 198.992 361.98C196.645 362.306 194.999 363.824 195.048 365.924C195.097 368.665 198.006 371.357 201.496 371.939C203.256 372.187 205.048 372.051 206.75 371.541C208.453 371.03 210.024 370.157 211.356 368.981C211.839 368.596 217.834 364.662 218.554 365.155C213.003 361.339 208.773 353.974 201.122 352.742Z" fill="#263238"/>
<path d="M174.618 345.041C171.108 344.469 168.308 346.224 168.357 348.985C168.357 351.085 170.112 353.165 172.488 354.28C170.142 354.605 168.495 356.123 168.544 358.224C168.594 360.965 171.502 363.657 174.993 364.238C176.752 364.487 178.545 364.351 180.247 363.841C181.95 363.33 183.521 362.457 184.853 361.28C185.336 360.886 191.331 356.962 192.051 357.455C186.549 353.639 182.319 346.313 174.618 345.041Z" fill="#263238"/>
<path d="M205.342 375.153C203.587 376.327 203.715 378.663 205.628 380.369C206.333 380.994 207.17 381.454 208.075 381.715C208.981 381.976 209.934 382.031 210.863 381.878C210.193 383.12 210.607 384.836 212.066 386.098C213.979 387.804 216.947 388.228 218.702 387.084C220.743 385.713 220.881 383.14 220.457 380.892C220.378 380.428 219.974 375.321 220.595 375.321C215.853 375.311 209.177 372.56 205.342 375.153Z" fill="#263238"/>
<path d="M257.984 357.701L261.248 378.17L222.626 375.183L219.373 354.714L257.984 357.701Z" fill="#263238"/>
<path d="M254.149 377.628L254.967 377.687L254.612 375.459L253.794 375.4L254.149 377.628Z" fill="white"/>
<path d="M239.862 376.514L240.68 376.583L240.325 374.355L239.507 374.286L239.862 376.514Z" fill="white"/>
<path d="M235.1 376.149L235.918 376.208L235.563 373.98L234.745 373.921L235.1 376.149Z" fill="white"/>
<path d="M230.337 375.774L231.155 375.843L230.8 373.615L229.982 373.556L230.337 375.774Z" fill="white"/>
<path d="M225.575 375.41L226.393 375.479L226.038 373.25L225.22 373.181L225.575 375.41Z" fill="white"/>
<path d="M249.387 377.253L250.205 377.322L249.85 375.094L249.032 375.025L249.387 377.253Z" fill="white"/>
<path d="M260.893 375.952L260.784 375.291L259.276 375.173L259.374 375.834L260.893 375.952Z" fill="white"/>
<path d="M258.911 377.993L259.729 378.062L259.375 375.834L258.556 375.765L258.911 377.993Z" fill="white"/>
<path d="M244.624 376.889L245.442 376.948L245.087 374.719L244.269 374.66L244.624 376.889Z" fill="white"/>
<path d="M235.454 373.329L235.563 373.98L239.507 374.286L239.398 373.635L235.454 373.329Z" fill="white"/>
<path d="M222.173 372.294L222.271 372.955L225.22 373.181L225.111 372.521L222.173 372.294Z" fill="white"/>
<path d="M244.989 374.069L245.087 374.719L249.031 375.025L248.923 374.364L244.989 374.069Z" fill="white"/>
<path d="M249.751 374.434L249.85 375.094L253.794 375.4L253.686 374.739L249.751 374.434Z" fill="white"/>
<path d="M240.217 373.694L240.325 374.355L244.269 374.66L244.161 374L240.217 373.694Z" fill="white"/>
<path d="M254.514 374.798L254.612 375.459L258.556 375.765L258.448 375.104L254.514 374.798Z" fill="white"/>
<path d="M223.139 354.96L222.311 354.901L222.686 357.218L219.728 356.991L219.826 357.642L222.784 357.879L223.287 361.034L220.329 360.807L220.437 361.468L223.395 361.694L223.898 364.85L220.94 364.623L221.039 365.283L223.997 365.51L224.49 368.665L221.532 368.439L221.64 369.099L224.598 369.326L225.101 372.481L225.92 372.55L225.417 369.385L229.361 369.691L229.864 372.856L230.682 372.915L230.189 369.76L234.133 370.066L234.636 373.221L235.464 373.29L234.961 370.125L238.905 370.43L239.408 373.595L240.236 373.655L239.733 370.499L243.677 370.805L244.18 373.96L245.009 374.019L244.506 370.864L248.45 371.17L248.953 374.325L249.781 374.394L249.278 371.239L253.222 371.545L253.725 374.7L254.553 374.759L254.05 371.604L257.994 371.909L258.497 375.065L259.325 375.134L258.822 371.969L260.331 372.087L260.223 371.436L258.714 371.318L258.211 368.153L259.73 368.271L259.621 367.61L258.113 367.502L257.61 364.337L259.118 364.455L259.01 363.795L257.501 363.676L256.998 360.521L258.507 360.639L258.408 359.979L256.9 359.86L256.525 357.543L255.707 357.484L256.072 359.801L252.128 359.496L251.763 357.178L250.944 357.109L251.309 359.427L247.365 359.121L247 356.804L246.182 356.745L246.547 359.062L242.603 358.756L242.238 356.439L241.42 356.37L241.784 358.697L237.84 358.391L237.476 356.064L236.657 356.005L237.022 358.322L233.078 358.017L232.713 355.699L231.895 355.64L232.26 357.957L228.316 357.652L227.951 355.335L227.132 355.266L227.497 357.583L223.553 357.277L223.139 354.96ZM224.214 361.754L228.158 362.059L228.661 365.214L224.717 364.919L224.214 361.754ZM247.71 366.684L243.766 366.378L243.273 363.223L247.217 363.528L247.71 366.684ZM248.036 363.587L251.98 363.893L252.482 367.058L248.538 366.753L248.036 363.587ZM242.948 366.319L239.004 366.013L238.511 362.848L242.455 363.154L242.948 366.319ZM238.185 365.944L234.241 365.638L233.739 362.483L237.683 362.789L238.185 365.944ZM233.423 365.579L229.479 365.274L228.976 362.118L232.92 362.424L233.423 365.579ZM225.328 368.764L224.786 365.609L228.73 365.914L229.233 369.08L225.328 368.764ZM230.09 369.129L229.588 365.974L233.532 366.279L234.034 369.434L230.09 369.129ZM234.853 369.503L234.35 366.338L238.294 366.644L238.797 369.799L234.853 369.503ZM239.615 369.868L239.112 366.713L243.056 367.019L243.559 370.174L239.615 369.868ZM244.378 370.233L243.875 367.078L247.819 367.384L248.322 370.539L244.378 370.233ZM249.14 370.608L248.637 367.443L252.581 367.748L253.084 370.913L249.14 370.608ZM257.846 371.278L253.902 370.973L253.399 367.817L257.343 368.123L257.846 371.278ZM257.235 367.462L253.291 367.157L252.788 364.002L256.732 364.307L257.235 367.462ZM256.131 360.491L256.634 363.647L252.69 363.341L252.187 360.186L256.131 360.491ZM251.368 360.117L251.871 363.272L247.927 362.976L247.424 359.811L251.368 360.117ZM246.606 359.752L247.109 362.907L243.165 362.601L242.662 359.446L246.606 359.752ZM241.844 359.377L242.346 362.542L238.402 362.237L237.9 359.072L241.844 359.377ZM237.081 359.012L237.584 362.168L233.64 361.862L233.137 358.707L237.081 359.012ZM232.319 358.638L232.822 361.803L228.878 361.497L228.375 358.332L232.319 358.638ZM227.556 358.273L228.049 361.428L224.105 361.122L223.603 357.967L227.556 358.273Z" fill="white"/>
<path d="M230.702 372.954L230.8 373.615L234.744 373.921L234.636 373.26L230.702 372.954Z" fill="white"/>
<path d="M225.93 372.59L226.038 373.25L229.982 373.556L229.874 372.895L225.93 372.59Z" fill="white"/>
<path d="M107.324 356.459C107.324 356.459 126.758 350.168 131.274 350.592C135.79 351.016 150.008 354.684 154.385 355.749C158.763 356.814 164.926 355.532 164.245 359.367C163.565 363.203 159.67 367.137 155.145 368.685C150.619 370.233 145.196 369.326 142.376 368.527C139.556 367.729 134.754 366.93 134.754 366.93L128.533 372.787C128.533 372.787 120.132 387.804 111.08 392.862C102.029 397.92 91.3604 396.806 91.3604 396.806" fill="white"/>
<path d="M107.324 356.459C107.324 356.459 126.758 350.168 131.274 350.592C135.79 351.016 150.008 354.684 154.385 355.749C158.763 356.814 164.926 355.532 164.245 359.367C163.565 363.203 159.67 367.137 155.145 368.685C150.619 370.233 145.196 369.326 142.376 368.527C139.556 367.729 134.754 366.93 134.754 366.93L128.533 372.787C128.533 372.787 120.132 387.804 111.08 392.862C102.029 397.92 91.3604 396.806 91.3604 396.806" stroke="#263238" stroke-linecap="round" stroke-linejoin="round"/>
<path d="M153.084 356.331C153.084 356.331 153.656 356.636 153.488 357.652L152.916 361.093C152.916 361.093 153.419 361.803 156.633 362.542C159.848 363.282 162.165 363.045 163.417 361.803" stroke="#263238" stroke-linecap="round" stroke-linejoin="round"/>
<path d="M136.874 353.639C137.335 355.382 137.596 357.171 137.653 358.973C137.682 360.009 137.649 361.047 137.554 362.079C138.908 359.687 139.373 356.893 138.866 354.191" stroke="#263238" stroke-linecap="round" stroke-linejoin="round"/>
<path d="M134.646 353.264C134.386 354.833 134.549 356.443 135.119 357.928" stroke="#263238" stroke-linecap="round" stroke-linejoin="round"/>
<path d="M67.5384 379.64L77.0434 442.882L53.6654 447.338L43.2729 384.363L67.5384 379.64Z" fill="white" stroke="#263238" stroke-linecap="round" stroke-linejoin="round"/>
<path d="M-44.3133 472.146L62.1747 457.05L51.9992 379.669L-52.3394 386.039C-52.3394 386.039 -48.5926 401.608 -48.4644 431.996C-48.3362 461.576 -44.3133 472.146 -44.3133 472.146Z" fill="#263238"/>
<path d="M-44.3133 472.146L62.1352 457.05L51.9597 379.669L-52.3394 386.039" stroke="#263238" stroke-linecap="round" stroke-linejoin="round"/>
<path d="M90.7788 116.535C90.7788 116.535 99.0119 123.782 108.418 125.547C117.825 127.312 127.813 129.067 127.813 129.067L171.887 198.423C171.887 198.423 153.084 202.534 143.678 197.249C134.271 191.964 115.468 157.277 115.468 157.277L90.7788 116.535Z" fill="white" stroke="#263238" stroke-linecap="round" stroke-linejoin="round"/>
<path d="M159.71 50.71L166.77 38.1681C166.77 38.1681 211.041 72.2541 226.719 91.067C242.396 109.88 240.039 112.611 236.51 122.018C232.98 131.424 206.732 152.968 206.732 152.968C206.732 152.968 210.676 144.35 206.732 124.374C202.788 104.398 197.72 85.2003 180.11 70.6962C162.5 56.1921 159.71 50.71 159.71 50.71Z" fill="white" stroke="#263238" stroke-linecap="round" stroke-linejoin="round"/>
<path d="M94.7035 105.167C94.7035 105.167 85.6914 91.4515 85.6914 85.1904C85.6914 78.9293 94.7035 49.9212 99.0123 35.427C103.321 20.9328 103.321 19.72 103.321 19.72C103.321 19.72 127.616 32.6563 145.64 38.9273C163.664 45.1982 197.356 65.5493 211.071 83.1987C224.786 100.848 216.987 130.221 214.207 135.703C211.426 141.185 178.947 164.692 171.888 169.01C164.828 173.329 151.517 181.937 151.517 181.937C145.788 178.582 140.518 174.499 135.839 169.789C129.144 162.769 94.7035 105.167 94.7035 105.167Z" fill="white" stroke="#263238" stroke-linecap="round" stroke-linejoin="round"/>
<path d="M164.778 167.176C155.836 165.311 147.086 162.621 138.639 159.14C125.565 153.609 110.193 131.039 110.193 131.039L144.703 147.072C144.703 147.072 121.039 128.466 118.081 118.409C116.131 111.502 114.785 104.439 114.058 97.2985L139.201 115.894C139.201 115.894 130.15 103.836 128.139 89.2724C126.127 74.7092 125.062 61.132 125.062 61.132C125.062 61.132 133.088 77.6869 141.657 88.74C150.225 99.7931 161.761 121.416 161.761 121.416L154.228 67.117C154.228 67.117 168.801 80.6942 171.818 91.2543C174.836 101.814 173.327 114.918 174.836 113.37C176.344 111.822 195.542 90.1105 195.542 90.1105C195.542 90.1105 189.468 118.902 186.953 124.433C184.439 129.965 182.388 133.997 182.388 133.997C182.388 133.997 194.457 123.437 205.52 120.923C216.583 118.409 239.192 111.418 239.192 111.418C239.192 111.418 219.077 126.504 212.047 131.532C205.017 136.561 175.841 153.658 175.841 153.658L206.299 138.444C206.299 138.444 186.401 166.171 164.778 167.176Z" fill="#A739EA"/>
<path opacity="0.36" d="M164.778 167.176C155.836 165.311 147.086 162.621 138.639 159.14C125.565 153.609 110.193 131.039 110.193 131.039L144.703 147.072C144.703 147.072 121.039 128.466 118.081 118.409C116.131 111.502 114.785 104.439 114.058 97.2985L139.201 115.894C139.201 115.894 130.15 103.836 128.139 89.2724C126.127 74.7092 125.062 61.132 125.062 61.132C125.062 61.132 133.088 77.6869 141.657 88.74C150.225 99.7931 161.761 121.416 161.761 121.416L154.228 67.117C154.228 67.117 168.801 80.6942 171.818 91.2543C174.836 101.814 173.327 114.918 174.836 113.37C176.344 111.822 195.542 90.1105 195.542 90.1105C195.542 90.1105 189.468 118.902 186.953 124.433C184.439 129.965 182.388 133.997 182.388 133.997C182.388 133.997 194.457 123.437 205.52 120.923C216.583 118.409 239.192 111.418 239.192 111.418C239.192 111.418 219.077 126.504 212.047 131.532C205.017 136.561 175.841 153.658 175.841 153.658L206.299 138.444C206.299 138.444 186.401 166.171 164.778 167.176Z" fill="black"/>
<path d="M213.94 80.0435C212.954 79.0575 178.533 119.483 171.463 170.963" stroke="#263238" stroke-width="2" stroke-linecap="round" stroke-linejoin="round"/>
<path d="M212.678 83.0606C211.449 81.6745 210.583 80.0043 210.16 78.2005C209.736 76.3966 209.768 74.5158 210.253 72.7274C211.909 66.5057 225.575 55.1273 229.628 54.1708C233.68 53.2144 236.204 57.2965 235.139 61.0728C234.074 64.8492 230.121 77.8348 225.674 80.4182C221.227 83.0015 212.678 83.0606 212.678 83.0606Z" fill="white" stroke="#263238" stroke-linecap="round" stroke-linejoin="round"/>
<path d="M231.826 55.216C230.645 60.0269 228.994 64.7099 226.896 69.1975C223.938 74.9459 215.873 81.907 212.639 83.0606" stroke="#263238" stroke-linecap="round" stroke-linejoin="round"/>
<path d="M226.936 69.1975L235.188 57.9275" stroke="#263238" stroke-linecap="round" stroke-linejoin="round"/>
<path d="M174.589 173.457C169.797 119.533 179.233 72.7865 180.505 73.2795" stroke="#263238" stroke-width="2" stroke-linecap="round" stroke-linejoin="round"/>
<path d="M178.78 77.894C177.125 77.0613 175.704 75.8291 174.645 74.309C173.586 72.7888 172.923 71.0286 172.716 69.1876C171.956 62.7983 180.456 47.1702 183.877 44.7841C187.299 42.398 191.134 45.2673 191.529 49.1521C191.923 53.0369 193.047 66.5649 189.872 70.6173C186.697 74.6698 178.78 77.894 178.78 77.894Z" fill="white" stroke="#263238" stroke-linecap="round" stroke-linejoin="round"/>
<path d="M186.332 44.932C187.029 49.8292 187.237 54.7836 186.953 59.722C186.332 66.1606 181.402 75.6163 178.779 77.894" stroke="#263238" stroke-linecap="round" stroke-linejoin="round"/>
<path d="M186.914 59.7319L190.424 46.2138" stroke="#263238" stroke-linecap="round" stroke-linejoin="round"/>
<path d="M195.778 86.2454C194.545 85.644 181.264 131.454 181.57 185.585" stroke="#263238" stroke-width="2" stroke-linecap="round" stroke-linejoin="round"/>
<path d="M195.462 89.4894C193.883 88.5238 192.571 87.1794 191.643 85.5782C190.715 83.977 190.201 82.1695 190.148 80.3196C189.911 73.881 199.692 59.0121 203.291 56.9218C206.89 54.8315 210.489 58.0064 210.558 61.9109C210.627 65.8155 210.627 79.3829 207.127 83.1691C203.626 86.9553 195.462 89.4894 195.462 89.4894Z" fill="white" stroke="#263238" stroke-linecap="round" stroke-linejoin="round"/>
<path d="M205.687 57.2866C205.974 62.2244 205.773 67.1784 205.086 72.0766C203.952 78.4264 198.184 87.4385 195.462 89.4696" stroke="#263238" stroke-linecap="round" stroke-linejoin="round"/>
<path d="M205.086 72.0963L209.7 58.9036" stroke="#263238" stroke-linecap="round" stroke-linejoin="round"/>
<path d="M134.912 120.667C134.912 120.667 126.955 97.1802 117.864 85.782C108.773 74.3838 92.8594 64.6027 92.8594 64.6027C92.8594 64.6027 115.597 91.8755 122.439 104.378C129.282 116.88 138.353 132.794 138.353 132.794L134.912 120.667Z" fill="#A739EA"/>
<path d="M168.081 83.0902C169.402 82.7254 170.664 111.162 160.519 164.337" stroke="#263238" stroke-width="2" stroke-linecap="round" stroke-linejoin="round"/>
<path d="M167.795 86.3342C169.524 85.6726 171.06 84.5904 172.265 83.1856C173.471 81.7807 174.306 80.0976 174.697 78.2884C176.097 71.9977 169.195 55.6104 166.03 52.889C162.865 50.1677 158.754 52.6425 157.975 56.4682C157.196 60.2939 154.731 73.6443 157.482 78.0025C160.233 82.3606 167.795 86.3342 167.795 86.3342Z" fill="white" stroke="#263238" stroke-linecap="round" stroke-linejoin="round"/>
<path d="M163.654 52.8102C162.472 57.6194 161.768 62.5339 161.554 67.4818C161.554 73.9303 165.498 83.8297 167.845 86.3342" stroke="#263238" stroke-linecap="round" stroke-linejoin="round"/>
<path d="M161.505 67.4818L159.365 53.668" stroke="#263238" stroke-linecap="round" stroke-linejoin="round"/>
<path d="M176.847 171.81C149.949 124.837 115.469 91.8755 114.729 93.0192" stroke="#263238" stroke-width="2" stroke-linecap="round" stroke-linejoin="round"/>
<path d="M116.612 95.642C117.492 94.0122 117.952 92.1893 117.952 90.3373C117.952 88.4854 117.492 86.6625 116.612 85.0326C113.575 79.3434 97.6711 71.3963 93.5004 71.3963C89.3296 71.3963 87.821 75.9417 89.7141 79.3434C91.6072 82.7451 98.4205 94.4982 103.35 96.0167C108.28 97.5351 116.612 95.642 116.612 95.642Z" fill="white" stroke="#263238" stroke-linecap="round" stroke-linejoin="round"/>
<path d="M91.6069 72.964C93.8413 77.3739 96.5067 81.5519 99.564 85.4369C103.725 90.3669 113.2 95.2969 116.612 95.6716" stroke="#263238" stroke-linecap="round" stroke-linejoin="round"/>
<path d="M99.5644 85.4369L88.9551 76.346" stroke="#263238" stroke-linecap="round" stroke-linejoin="round"/>
<path d="M148.943 86.2454C150.166 85.644 163.457 131.454 163.151 185.585" stroke="#263238" stroke-width="2" stroke-linecap="round" stroke-linejoin="round"/>
<path d="M149.249 89.4894C150.829 88.5249 152.144 87.1811 153.074 85.5798C154.004 83.9785 154.519 82.1704 154.573 80.3196C154.8 73.881 145.029 59.0121 141.43 56.9218C137.831 54.8315 134.232 58.0064 134.163 61.9109C134.094 65.8155 134.094 79.3829 137.594 83.1691C141.095 86.9553 149.249 89.4894 149.249 89.4894Z" fill="white" stroke="#263238" stroke-linecap="round" stroke-linejoin="round"/>
<path d="M139.004 57.2866C138.723 62.2247 138.927 67.1785 139.615 72.0766C140.749 78.4264 146.517 87.4385 149.229 89.4696" stroke="#263238" stroke-linecap="round" stroke-linejoin="round"/>
<path d="M139.635 72.0963L135.021 58.9036" stroke="#263238" stroke-linecap="round" stroke-linejoin="round"/>
<path d="M166.75 172.106C166.75 172.106 152.71 135.545 153.025 105.117" stroke="#263238" stroke-linecap="round" stroke-linejoin="round"/>
<path d="M150.54 109.042C150.912 109.096 151.26 109.259 151.539 109.511C151.819 109.763 152.017 110.092 152.11 110.456C152.202 110.82 152.185 111.204 152.06 111.559C151.934 111.913 151.707 112.223 151.406 112.448C151.105 112.673 150.744 112.804 150.369 112.825C149.993 112.845 149.62 112.754 149.297 112.563C148.973 112.371 148.713 112.088 148.55 111.749C148.387 111.411 148.328 111.031 148.381 110.659C148.416 110.411 148.5 110.172 148.627 109.956C148.755 109.74 148.924 109.552 149.125 109.402C149.325 109.251 149.554 109.142 149.797 109.08C150.04 109.019 150.292 109.006 150.54 109.042Z" fill="white" stroke="#263238" stroke-linecap="round" stroke-linejoin="round"/>
<path d="M151.112 96.5491C151.588 96.6166 152.032 96.8237 152.39 97.1441C152.747 97.4645 153.002 97.8838 153.121 98.349C153.24 98.8141 153.218 99.3041 153.059 99.757C152.899 100.21 152.609 100.605 152.224 100.893C151.84 101.18 151.379 101.347 150.899 101.373C150.42 101.398 149.944 101.281 149.531 101.035C149.118 100.79 148.788 100.427 148.581 99.9936C148.375 99.5601 148.302 99.0751 148.371 98.6C148.464 97.9651 148.804 97.3929 149.318 97.0085C149.832 96.6241 150.477 96.4589 151.112 96.5491Z" fill="white" stroke="#263238" stroke-linecap="round" stroke-linejoin="round"/>
<path d="M153.301 103.155C153.637 103.207 153.951 103.357 154.202 103.586C154.453 103.816 154.631 104.114 154.713 104.444C154.795 104.774 154.778 105.121 154.663 105.442C154.549 105.762 154.342 106.041 154.069 106.244C153.797 106.448 153.47 106.566 153.13 106.584C152.791 106.602 152.453 106.519 152.16 106.346C151.868 106.173 151.632 105.917 151.485 105.611C151.337 105.305 151.283 104.961 151.329 104.624C151.361 104.398 151.437 104.18 151.553 103.983C151.67 103.786 151.824 103.614 152.008 103.477C152.191 103.34 152.4 103.241 152.622 103.186C152.844 103.131 153.075 103.12 153.301 103.155Z" fill="white" stroke="#263238" stroke-linecap="round" stroke-linejoin="round"/>
<path d="M151.744 122.491C152.249 122.568 152.721 122.793 153.1 123.138C153.478 123.482 153.746 123.931 153.869 124.428C153.993 124.924 153.967 125.447 153.794 125.928C153.622 126.41 153.311 126.83 152.9 127.136C152.489 127.441 151.997 127.618 151.486 127.644C150.975 127.67 150.468 127.545 150.028 127.283C149.588 127.022 149.235 126.636 149.014 126.174C148.793 125.713 148.714 125.196 148.786 124.69C148.834 124.35 148.949 124.024 149.124 123.729C149.299 123.435 149.531 123.178 149.806 122.973C150.081 122.769 150.394 122.621 150.726 122.538C151.059 122.455 151.405 122.439 151.744 122.491Z" fill="white" stroke="#263238" stroke-linecap="round" stroke-linejoin="round"/>
<path d="M153.794 113.005C154.167 113.058 154.516 113.22 154.797 113.471C155.077 113.721 155.278 114.05 155.372 114.414C155.466 114.779 155.449 115.163 155.325 115.518C155.201 115.874 154.974 116.184 154.673 116.411C154.372 116.637 154.011 116.769 153.635 116.79C153.259 116.811 152.886 116.72 152.561 116.528C152.237 116.337 151.977 116.054 151.814 115.715C151.651 115.375 151.592 114.995 151.645 114.623C151.716 114.123 151.982 113.672 152.385 113.369C152.788 113.066 153.295 112.935 153.794 113.005Z" fill="white" stroke="#263238" stroke-linecap="round" stroke-linejoin="round"/>
<path d="M157.117 103.353C157.299 103.382 157.462 103.48 157.572 103.627C157.683 103.775 157.731 103.959 157.709 104.141C157.68 104.322 157.581 104.484 157.433 104.593C157.286 104.702 157.101 104.749 156.92 104.723C156.83 104.711 156.744 104.681 156.666 104.635C156.588 104.589 156.52 104.528 156.465 104.456C156.411 104.383 156.372 104.301 156.35 104.213C156.328 104.125 156.324 104.034 156.338 103.944C156.35 103.854 156.38 103.767 156.426 103.689C156.472 103.61 156.532 103.541 156.605 103.487C156.677 103.432 156.76 103.391 156.848 103.368C156.935 103.345 157.027 103.34 157.117 103.353Z" fill="white" stroke="#263238" stroke-linecap="round" stroke-linejoin="round"/>
<path d="M155.845 132.863C156.15 132.908 156.435 133.042 156.664 133.248C156.893 133.455 157.056 133.725 157.131 134.024C157.207 134.323 157.192 134.637 157.088 134.928C156.985 135.218 156.798 135.472 156.55 135.656C156.302 135.84 156.006 135.946 155.698 135.961C155.39 135.976 155.084 135.9 154.82 135.741C154.555 135.583 154.344 135.349 154.212 135.07C154.08 134.792 154.035 134.48 154.08 134.175C154.108 133.972 154.176 133.777 154.28 133.6C154.384 133.424 154.522 133.27 154.687 133.148C154.851 133.026 155.038 132.938 155.237 132.889C155.436 132.84 155.643 132.831 155.845 132.863Z" fill="white" stroke="#263238" stroke-linecap="round" stroke-linejoin="round"/>
<path d="M155.46 118.488C155.766 118.53 156.053 118.663 156.283 118.868C156.514 119.074 156.678 119.343 156.755 119.643C156.832 119.942 156.818 120.257 156.715 120.548C156.613 120.84 156.426 121.094 156.178 121.279C155.931 121.464 155.634 121.571 155.326 121.587C155.017 121.602 154.711 121.526 154.446 121.368C154.181 121.209 153.969 120.975 153.837 120.696C153.705 120.417 153.659 120.104 153.705 119.799C153.733 119.597 153.801 119.403 153.904 119.227C154.008 119.051 154.145 118.898 154.308 118.776C154.472 118.654 154.658 118.566 154.855 118.516C155.053 118.467 155.259 118.457 155.46 118.488Z" fill="white" stroke="#263238" stroke-linecap="round" stroke-linejoin="round"/>
<path d="M150.629 92.684C150.899 92.724 151.151 92.8432 151.354 93.0265C151.556 93.2097 151.699 93.4489 151.766 93.7137C151.832 93.9785 151.819 94.2571 151.727 94.5142C151.635 94.7712 151.469 94.9953 151.249 95.158C151.03 95.3207 150.768 95.4147 150.495 95.4282C150.222 95.4417 149.952 95.374 149.718 95.2338C149.483 95.0935 149.296 94.8869 149.179 94.6402C149.062 94.3934 149.021 94.1176 149.061 93.8475C149.088 93.6681 149.149 93.4958 149.243 93.3403C149.336 93.1847 149.459 93.0491 149.604 92.941C149.75 92.833 149.915 92.7547 150.091 92.7106C150.267 92.6665 150.45 92.6574 150.629 92.684Z" fill="white" stroke="#263238" stroke-linecap="round" stroke-linejoin="round"/>
<path d="M155.204 137.31C155.71 137.387 156.182 137.613 156.56 137.957C156.938 138.302 157.206 138.751 157.33 139.247C157.453 139.744 157.427 140.266 157.255 140.748C157.082 141.23 156.771 141.65 156.36 141.955C155.95 142.26 155.458 142.437 154.947 142.464C154.436 142.49 153.928 142.364 153.488 142.103C153.048 141.841 152.696 141.456 152.475 140.994C152.254 140.532 152.174 140.016 152.246 139.509C152.295 139.17 152.411 138.845 152.587 138.551C152.762 138.257 152.994 138 153.269 137.796C153.544 137.592 153.856 137.444 154.188 137.36C154.52 137.277 154.865 137.26 155.204 137.31Z" fill="white" stroke="#263238" stroke-linecap="round" stroke-linejoin="round"/>
<path d="M161.11 144.794C161.753 144.887 162.354 145.168 162.837 145.602C163.32 146.036 163.664 146.603 163.824 147.233C163.985 147.862 163.955 148.525 163.739 149.137C163.523 149.75 163.13 150.284 162.609 150.673C162.089 151.062 161.466 151.288 160.817 151.323C160.168 151.357 159.524 151.199 158.966 150.867C158.408 150.535 157.96 150.045 157.68 149.459C157.4 148.873 157.3 148.217 157.393 147.575C157.518 146.713 157.979 145.936 158.676 145.415C159.373 144.893 160.249 144.67 161.11 144.794Z" fill="white" stroke="#263238" stroke-linecap="round" stroke-linejoin="round"/>
<path d="M159.71 136.906C160.065 136.957 160.398 137.111 160.665 137.351C160.933 137.59 161.123 137.904 161.212 138.251C161.301 138.599 161.285 138.965 161.166 139.304C161.047 139.643 160.831 139.938 160.543 140.154C160.256 140.369 159.912 140.494 159.553 140.514C159.195 140.533 158.839 140.446 158.53 140.263C158.221 140.08 157.974 139.81 157.819 139.486C157.663 139.162 157.608 138.8 157.659 138.444C157.727 137.969 157.982 137.539 158.366 137.251C158.751 136.963 159.234 136.839 159.71 136.906Z" fill="white" stroke="#263238" stroke-linecap="round" stroke-linejoin="round"/>
<path d="M158.882 123.871C159.187 123.916 159.472 124.049 159.701 124.256C159.93 124.463 160.093 124.732 160.168 125.031C160.244 125.33 160.229 125.645 160.126 125.936C160.022 126.226 159.835 126.479 159.587 126.663C159.34 126.847 159.043 126.954 158.735 126.969C158.427 126.984 158.121 126.908 157.857 126.749C157.592 126.59 157.381 126.357 157.249 126.078C157.118 125.799 157.072 125.488 157.117 125.183C157.178 124.775 157.398 124.408 157.729 124.162C158.06 123.917 158.474 123.812 158.882 123.871Z" fill="white" stroke="#263238" stroke-linecap="round" stroke-linejoin="round"/>
<path d="M150.609 130.359C150.779 130.384 150.938 130.459 151.065 130.575C151.192 130.69 151.282 130.841 151.323 131.007C151.365 131.174 151.356 131.349 151.298 131.51C151.24 131.672 151.136 131.813 150.998 131.915C150.86 132.017 150.694 132.076 150.523 132.084C150.352 132.092 150.182 132.049 150.034 131.961C149.887 131.873 149.77 131.742 149.697 131.587C149.623 131.432 149.598 131.258 149.623 131.089C149.657 130.861 149.78 130.657 149.965 130.52C150.15 130.383 150.382 130.325 150.609 130.359Z" fill="white" stroke="#263238" stroke-linecap="round" stroke-linejoin="round"/>
<path d="M160.213 114.632C160.518 114.677 160.804 114.811 161.033 115.017C161.261 115.224 161.424 115.494 161.5 115.793C161.575 116.092 161.56 116.406 161.457 116.697C161.353 116.987 161.166 117.241 160.918 117.425C160.671 117.608 160.374 117.715 160.066 117.73C159.758 117.745 159.452 117.669 159.188 117.51C158.923 117.352 158.712 117.118 158.58 116.839C158.449 116.56 158.403 116.249 158.448 115.944C158.509 115.536 158.729 115.169 159.06 114.924C159.391 114.678 159.805 114.573 160.213 114.632Z" fill="white" stroke="#263238" stroke-linecap="round" stroke-linejoin="round"/>
<path d="M160.469 157.267C160.469 157.267 183.709 103.037 195.492 90.1204C207.275 77.2038 219.265 72.1062 219.265 72.1062C219.265 72.1062 216.79 106.094 205.145 123.684C193.5 141.274 155.766 176.79 155.766 176.79L160.469 157.267Z" fill="#A739EA"/>
<path d="M164.512 161.122C164.512 161.122 153.893 117.738 155.135 104.526C156.378 91.3135 161.327 82.824 161.327 82.824C161.327 82.824 175.309 104.516 176.265 120.489C177.222 136.462 170.546 175.133 170.546 175.133L164.512 161.122Z" fill="#A739EA"/>
<path d="M223.899 106.942C223.268 105.729 201.586 124.177 169.58 167.827" stroke="#263238" stroke-width="2" stroke-linecap="round" stroke-linejoin="round"/>
<path d="M221.71 109.367C221.019 107.649 220.766 105.786 220.974 103.946C221.182 102.106 221.845 100.347 222.903 98.8268C226.561 93.5221 243.264 87.4089 247.405 87.8723C251.546 88.3357 252.542 93.0291 250.274 96.204C248.006 99.3789 239.911 110.284 234.843 111.231C229.775 112.177 221.71 109.367 221.71 109.367Z" fill="white" stroke="#263238" stroke-linecap="round" stroke-linejoin="round"/>
<path d="M249.121 89.5978C246.399 93.7349 243.278 97.5955 239.803 101.124C235.11 105.541 225.141 109.377 221.71 109.367" stroke="#263238" stroke-linecap="round" stroke-linejoin="round"/>
<path d="M239.803 101.124L251.368 93.2756" stroke="#263238" stroke-linecap="round" stroke-linejoin="round"/>
<path d="M171.848 161.704C171.848 161.704 188.974 126.484 211.426 105.936" stroke="#263238" stroke-linecap="round" stroke-linejoin="round"/>
<path d="M206.861 106.843C207.076 107.152 207.194 107.517 207.201 107.894C207.208 108.27 207.104 108.639 206.901 108.956C206.698 109.273 206.406 109.522 206.061 109.673C205.716 109.824 205.335 109.869 204.964 109.803C204.594 109.737 204.251 109.562 203.98 109.302C203.709 109.041 203.521 108.706 203.44 108.339C203.359 107.971 203.389 107.588 203.526 107.238C203.663 106.887 203.9 106.585 204.208 106.37C204.624 106.083 205.135 105.971 205.632 106.06C206.129 106.149 206.57 106.43 206.861 106.843Z" fill="white" stroke="#263238" stroke-linecap="round" stroke-linejoin="round"/>
<path d="M216.376 98.7282C216.651 99.1215 216.803 99.5877 216.813 100.068C216.823 100.548 216.69 101.02 216.432 101.424C216.174 101.829 215.801 102.147 215.361 102.34C214.922 102.533 214.435 102.591 213.962 102.506C213.489 102.422 213.053 102.199 212.707 101.867C212.361 101.534 212.121 101.106 212.018 100.637C211.916 100.168 211.955 99.6792 212.13 99.2323C212.305 98.7855 212.609 98.4007 213.003 98.1267C213.531 97.7602 214.182 97.6177 214.814 97.7305C215.446 97.8432 216.008 98.202 216.376 98.7282Z" fill="white" stroke="#263238" stroke-linecap="round" stroke-linejoin="round"/>
<path d="M213.053 104.841C213.251 105.122 213.362 105.456 213.371 105.799C213.379 106.143 213.286 106.482 213.102 106.772C212.917 107.063 212.651 107.292 212.337 107.431C212.022 107.57 211.673 107.612 211.335 107.552C210.996 107.493 210.683 107.334 210.434 107.096C210.186 106.858 210.014 106.551 209.941 106.215C209.867 105.879 209.895 105.529 210.021 105.209C210.146 104.889 210.364 104.613 210.647 104.417C211.023 104.157 211.486 104.055 211.937 104.134C212.387 104.214 212.788 104.468 213.053 104.841Z" fill="white" stroke="#263238" stroke-linecap="round" stroke-linejoin="round"/>
<path d="M197.859 116.91C198.151 117.331 198.312 117.83 198.322 118.343C198.331 118.855 198.188 119.36 197.911 119.791C197.633 120.223 197.234 120.562 196.764 120.767C196.294 120.972 195.773 121.032 195.269 120.941C194.764 120.85 194.298 120.612 193.928 120.256C193.559 119.899 193.304 119.442 193.195 118.941C193.086 118.44 193.128 117.917 193.316 117.44C193.504 116.963 193.829 116.552 194.25 116.259C194.815 115.867 195.512 115.715 196.189 115.837C196.866 115.959 197.466 116.345 197.859 116.91Z" fill="white" stroke="#263238" stroke-linecap="round" stroke-linejoin="round"/>
<path d="M206.19 111.941C206.406 112.249 206.526 112.615 206.534 112.992C206.541 113.369 206.437 113.739 206.234 114.057C206.032 114.374 205.739 114.624 205.394 114.775C205.049 114.926 204.666 114.971 204.296 114.905C203.925 114.838 203.582 114.663 203.311 114.402C203.039 114.141 202.852 113.804 202.772 113.436C202.691 113.068 202.722 112.684 202.861 112.334C202.999 111.983 203.238 111.682 203.548 111.467C203.752 111.324 203.983 111.223 204.226 111.169C204.47 111.116 204.722 111.111 204.967 111.155C205.213 111.199 205.447 111.291 205.657 111.426C205.867 111.56 206.048 111.735 206.19 111.941Z" fill="white" stroke="#263238" stroke-linecap="round" stroke-linejoin="round"/>
<path d="M215.508 107.77C215.564 107.845 215.604 107.93 215.626 108.021C215.648 108.112 215.651 108.207 215.636 108.299C215.62 108.391 215.586 108.479 215.535 108.558C215.484 108.636 215.418 108.704 215.341 108.756C215.228 108.831 215.097 108.872 214.962 108.873C214.827 108.874 214.694 108.836 214.581 108.763C214.467 108.69 214.378 108.585 214.324 108.461C214.269 108.337 214.252 108.201 214.275 108.067C214.298 107.934 214.359 107.811 214.451 107.712C214.543 107.613 214.662 107.544 214.793 107.512C214.925 107.48 215.062 107.488 215.189 107.534C215.316 107.58 215.427 107.662 215.508 107.77Z" fill="white" stroke="#263238" stroke-linecap="round" stroke-linejoin="round"/>
<path d="M193.076 126.977C193.254 127.229 193.353 127.529 193.36 127.838C193.367 128.146 193.283 128.45 193.117 128.711C192.951 128.971 192.712 129.176 192.429 129.3C192.146 129.425 191.833 129.462 191.529 129.408C191.225 129.354 190.944 129.211 190.722 128.996C190.5 128.782 190.346 128.507 190.28 128.205C190.215 127.904 190.24 127.589 190.353 127.302C190.467 127.015 190.663 126.768 190.917 126.593C191.084 126.476 191.272 126.393 191.471 126.349C191.67 126.305 191.876 126.301 192.076 126.336C192.277 126.372 192.469 126.447 192.64 126.557C192.812 126.667 192.96 126.81 193.076 126.977Z" fill="white" stroke="#263238" stroke-linecap="round" stroke-linejoin="round"/>
<path d="M203.321 116.89C203.499 117.143 203.597 117.442 203.605 117.751C203.612 118.059 203.527 118.363 203.361 118.624C203.196 118.884 202.956 119.09 202.674 119.214C202.391 119.338 202.078 119.375 201.774 119.321C201.47 119.267 201.189 119.124 200.967 118.91C200.744 118.696 200.591 118.42 200.525 118.119C200.459 117.817 200.485 117.503 200.598 117.215C200.711 116.928 200.907 116.681 201.161 116.506C201.328 116.388 201.516 116.304 201.715 116.259C201.915 116.214 202.121 116.21 202.322 116.246C202.523 116.281 202.715 116.357 202.886 116.467C203.058 116.578 203.205 116.722 203.321 116.89Z" fill="white" stroke="#263238" stroke-linecap="round" stroke-linejoin="round"/>
<path d="M218.87 95.711C218.983 95.8609 219.064 96.0325 219.108 96.215C219.152 96.3974 219.158 96.587 219.125 96.7719C219.093 96.9568 219.023 97.1331 218.92 97.2898C218.817 97.4465 218.682 97.5804 218.525 97.683C218.376 97.7866 218.208 97.8598 218.031 97.8986C217.854 97.9373 217.671 97.9407 217.492 97.9087C217.314 97.8766 217.143 97.8097 216.991 97.7118C216.838 97.6139 216.706 97.4868 216.602 97.3379C216.499 97.189 216.426 97.0212 216.387 96.8439C216.348 96.6667 216.345 96.4836 216.377 96.3051C216.409 96.1266 216.476 95.9561 216.574 95.8034C216.672 95.6507 216.799 95.5188 216.947 95.4152C217.093 95.3077 217.258 95.2301 217.434 95.1868C217.609 95.1435 217.792 95.1354 217.97 95.1628C218.149 95.1903 218.321 95.2529 218.475 95.347C218.629 95.4411 218.764 95.5648 218.87 95.711Z" fill="white" stroke="#263238" stroke-linecap="round" stroke-linejoin="round"/>
<path d="M189.389 129.551C189.682 129.972 189.843 130.47 189.852 130.983C189.861 131.496 189.718 132 189.441 132.432C189.164 132.863 188.765 133.203 188.294 133.407C187.824 133.612 187.304 133.673 186.799 133.582C186.294 133.491 185.828 133.252 185.459 132.896C185.09 132.54 184.834 132.082 184.725 131.581C184.616 131.08 184.658 130.558 184.846 130.08C185.034 129.603 185.359 129.192 185.78 128.9C186.345 128.508 187.043 128.356 187.719 128.478C188.396 128.6 188.997 128.986 189.389 129.551Z" fill="white" stroke="#263238" stroke-linecap="round" stroke-linejoin="round"/>
<path d="M187.959 139.026C188.329 139.559 188.534 140.19 188.546 140.839C188.558 141.488 188.377 142.126 188.027 142.672C187.676 143.219 187.172 143.649 186.577 143.909C185.982 144.169 185.324 144.247 184.685 144.132C184.046 144.018 183.455 143.717 182.987 143.267C182.519 142.817 182.195 142.238 182.056 141.604C181.917 140.97 181.969 140.309 182.205 139.705C182.441 139.1 182.851 138.579 183.384 138.208C184.1 137.711 184.983 137.519 185.84 137.672C186.698 137.825 187.46 138.312 187.959 139.026Z" fill="white" stroke="#263238" stroke-linecap="round" stroke-linejoin="round"/>
<path d="M192.761 132.568C192.972 132.861 193.091 133.21 193.103 133.571C193.114 133.933 193.018 134.289 192.825 134.595C192.633 134.901 192.354 135.142 192.023 135.288C191.693 135.434 191.326 135.478 190.97 135.415C190.615 135.351 190.286 135.183 190.027 134.932C189.767 134.68 189.589 134.357 189.514 134.003C189.44 133.65 189.472 133.282 189.608 132.947C189.744 132.612 189.976 132.326 190.276 132.124C190.667 131.861 191.145 131.76 191.608 131.843C192.072 131.926 192.485 132.186 192.761 132.568Z" fill="white" stroke="#263238" stroke-linecap="round" stroke-linejoin="round"/>
<path d="M201.723 123.063C201.9 123.316 201.997 123.616 202.003 123.924C202.008 124.233 201.922 124.536 201.755 124.796C201.588 125.055 201.348 125.259 201.065 125.382C200.782 125.505 200.469 125.541 200.165 125.486C199.862 125.43 199.581 125.286 199.36 125.071C199.138 124.856 198.986 124.58 198.922 124.278C198.857 123.976 198.884 123.662 198.998 123.376C199.113 123.089 199.31 122.843 199.564 122.668C199.732 122.552 199.92 122.47 200.12 122.426C200.319 122.383 200.525 122.38 200.726 122.417C200.926 122.453 201.118 122.529 201.289 122.64C201.46 122.751 201.608 122.895 201.723 123.063Z" fill="white" stroke="#263238" stroke-linecap="round" stroke-linejoin="round"/>
<path d="M191.331 121.455C191.397 121.548 191.443 121.653 191.468 121.765C191.493 121.876 191.495 121.99 191.475 122.102C191.454 122.214 191.412 122.321 191.35 122.417C191.288 122.512 191.208 122.594 191.114 122.658C190.926 122.766 190.704 122.799 190.493 122.751C190.281 122.703 190.095 122.578 189.971 122.4C189.848 122.222 189.795 122.004 189.824 121.789C189.853 121.574 189.962 121.377 190.128 121.239C190.221 121.173 190.326 121.127 190.437 121.102C190.548 121.077 190.663 121.075 190.775 121.095C190.887 121.115 190.994 121.158 191.089 121.22C191.185 121.281 191.267 121.362 191.331 121.455Z" fill="white" stroke="#263238" stroke-linecap="round" stroke-linejoin="round"/>
<path d="M209.385 117.719C209.562 117.971 209.659 118.27 209.666 118.578C209.672 118.886 209.587 119.189 209.421 119.449C209.256 119.709 209.016 119.914 208.734 120.038C208.452 120.161 208.14 120.199 207.836 120.145C207.533 120.091 207.252 119.949 207.03 119.735C206.807 119.522 206.653 119.248 206.587 118.947C206.521 118.646 206.545 118.332 206.657 118.045C206.769 117.758 206.963 117.51 207.216 117.334C207.555 117.097 207.973 117.005 208.38 117.077C208.787 117.149 209.148 117.38 209.385 117.719Z" fill="white" stroke="#263238" stroke-linecap="round" stroke-linejoin="round"/>
<path d="M174.342 180.852C174.342 180.852 142.189 158.49 125.358 133.13" stroke="#263238" stroke-linecap="round" stroke-linejoin="round"/>
<path d="M125.506 137.774C125.959 137.561 126.477 137.534 126.949 137.701C127.421 137.867 127.808 138.212 128.027 138.662C128.247 139.112 128.28 139.63 128.12 140.104C127.96 140.578 127.619 140.97 127.172 141.195C126.947 141.309 126.702 141.376 126.45 141.394C126.199 141.411 125.947 141.379 125.708 141.299C125.469 141.218 125.249 141.091 125.06 140.924C124.87 140.758 124.716 140.555 124.606 140.329C124.495 140.102 124.431 139.856 124.417 139.604C124.402 139.353 124.438 139.101 124.522 138.863C124.606 138.625 124.736 138.407 124.905 138.22C125.074 138.033 125.278 137.881 125.506 137.774Z" fill="white" stroke="#263238" stroke-linecap="round" stroke-linejoin="round"/>
<path d="M118.969 127.115C119.398 126.906 119.88 126.83 120.353 126.895C120.826 126.959 121.269 127.163 121.627 127.48C121.984 127.797 122.24 128.212 122.361 128.674C122.482 129.136 122.464 129.623 122.309 130.075C122.153 130.526 121.867 130.921 121.487 131.211C121.107 131.5 120.65 131.67 120.173 131.699C119.697 131.728 119.222 131.616 118.809 131.376C118.397 131.135 118.064 130.778 117.854 130.349C117.714 130.064 117.631 129.754 117.61 129.436C117.59 129.119 117.633 128.8 117.737 128.5C117.84 128.199 118.003 127.922 118.214 127.684C118.425 127.446 118.682 127.253 118.969 127.115Z" fill="white" stroke="#263238" stroke-linecap="round" stroke-linejoin="round"/>
<path d="M124.49 131.345C124.694 131.245 124.916 131.187 125.142 131.173C125.369 131.159 125.596 131.189 125.811 131.263C126.026 131.337 126.224 131.452 126.394 131.602C126.564 131.753 126.703 131.935 126.803 132.139C126.902 132.343 126.961 132.564 126.975 132.791C126.989 133.017 126.958 133.245 126.885 133.459C126.811 133.674 126.696 133.872 126.545 134.042C126.395 134.212 126.213 134.351 126.009 134.451C125.597 134.652 125.122 134.682 124.688 134.533C124.255 134.384 123.898 134.069 123.697 133.657C123.495 133.245 123.466 132.77 123.615 132.337C123.763 131.903 124.079 131.546 124.49 131.345Z" fill="white" stroke="#263238" stroke-linecap="round" stroke-linejoin="round"/>
<path d="M134.074 148.225C134.536 148.001 135.054 147.919 135.562 147.99C136.07 148.06 136.546 148.279 136.929 148.62C137.313 148.961 137.587 149.408 137.716 149.905C137.845 150.401 137.824 150.925 137.656 151.41C137.487 151.894 137.179 152.318 136.77 152.627C136.36 152.937 135.868 153.118 135.356 153.147C134.844 153.177 134.334 153.054 133.892 152.794C133.45 152.534 133.094 152.148 132.871 151.686C132.722 151.38 132.635 151.048 132.614 150.708C132.594 150.368 132.641 150.027 132.753 149.706C132.865 149.384 133.039 149.088 133.266 148.834C133.493 148.58 133.767 148.373 134.074 148.225Z" fill="white" stroke="#263238" stroke-linecap="round" stroke-linejoin="round"/>
<path d="M130.446 139.213C130.784 139.049 131.164 138.988 131.536 139.039C131.909 139.09 132.259 139.25 132.541 139.5C132.822 139.749 133.024 140.077 133.119 140.441C133.215 140.805 133.201 141.189 133.078 141.545C132.955 141.901 132.73 142.212 132.43 142.44C132.13 142.667 131.77 142.801 131.394 142.824C131.018 142.846 130.644 142.757 130.319 142.567C129.994 142.378 129.733 142.096 129.568 141.757C129.457 141.533 129.392 141.289 129.376 141.039C129.361 140.789 129.394 140.539 129.476 140.302C129.558 140.066 129.685 139.848 129.852 139.661C130.018 139.474 130.22 139.322 130.446 139.213Z" fill="white" stroke="#263238" stroke-linecap="round" stroke-linejoin="round"/>
<path d="M127.764 129.373C127.844 129.333 127.932 129.309 128.022 129.303C128.113 129.297 128.203 129.309 128.288 129.339C128.374 129.368 128.452 129.414 128.52 129.474C128.587 129.534 128.642 129.607 128.681 129.689C128.741 129.811 128.764 129.949 128.747 130.085C128.729 130.221 128.671 130.348 128.581 130.451C128.49 130.554 128.372 130.627 128.239 130.662C128.107 130.698 127.967 130.692 127.838 130.648C127.708 130.603 127.595 130.521 127.512 130.412C127.43 130.303 127.381 130.172 127.373 130.035C127.365 129.899 127.398 129.763 127.468 129.645C127.537 129.527 127.64 129.432 127.764 129.373Z" fill="white" stroke="#263238" stroke-linecap="round" stroke-linejoin="round"/>
<path d="M143.273 154.496C143.55 154.361 143.861 154.312 144.167 154.354C144.472 154.395 144.758 154.527 144.989 154.731C145.22 154.936 145.384 155.204 145.462 155.502C145.54 155.8 145.528 156.115 145.428 156.406C145.327 156.698 145.142 156.953 144.896 157.139C144.651 157.325 144.355 157.434 144.048 157.452C143.74 157.47 143.434 157.397 143.168 157.241C142.902 157.085 142.688 156.854 142.554 156.577C142.373 156.205 142.348 155.778 142.483 155.388C142.618 154.998 142.902 154.677 143.273 154.496Z" fill="white" stroke="#263238" stroke-linecap="round" stroke-linejoin="round"/>
<path d="M134.892 142.822C135.168 142.689 135.477 142.641 135.78 142.683C136.083 142.726 136.367 142.857 136.595 143.061C136.823 143.264 136.986 143.531 137.063 143.827C137.14 144.123 137.128 144.436 137.027 144.725C136.927 145.014 136.743 145.266 136.499 145.451C136.255 145.636 135.962 145.744 135.656 145.762C135.351 145.78 135.047 145.707 134.783 145.552C134.519 145.397 134.306 145.168 134.173 144.893C134.084 144.71 134.032 144.511 134.02 144.307C134.008 144.104 134.036 143.9 134.103 143.708C134.17 143.516 134.274 143.338 134.409 143.186C134.545 143.034 134.709 142.911 134.892 142.822Z" fill="white" stroke="#263238" stroke-linecap="round" stroke-linejoin="round"/>
<path d="M116.375 124.147C116.621 124.029 116.896 123.987 117.166 124.025C117.436 124.063 117.688 124.18 117.892 124.361C118.095 124.542 118.24 124.78 118.309 125.043C118.378 125.307 118.367 125.585 118.278 125.843C118.189 126.1 118.026 126.326 117.809 126.49C117.592 126.655 117.331 126.752 117.059 126.769C116.787 126.786 116.516 126.722 116.28 126.586C116.045 126.449 115.855 126.245 115.735 126.001C115.654 125.837 115.607 125.659 115.595 125.477C115.584 125.295 115.609 125.113 115.669 124.94C115.728 124.768 115.821 124.609 115.943 124.473C116.064 124.337 116.211 124.226 116.375 124.147Z" fill="white" stroke="#263238" stroke-linecap="round" stroke-linejoin="round"/>
<path d="M145.236 158.539C145.697 158.314 146.214 158.231 146.722 158.3C147.23 158.37 147.706 158.588 148.09 158.928C148.474 159.267 148.749 159.713 148.88 160.209C149.01 160.705 148.991 161.228 148.824 161.713C148.658 162.198 148.351 162.622 147.943 162.933C147.535 163.244 147.044 163.426 146.533 163.458C146.021 163.49 145.511 163.369 145.068 163.111C144.625 162.854 144.268 162.47 144.043 162.01C143.743 161.391 143.7 160.679 143.924 160.028C144.147 159.378 144.619 158.843 145.236 158.539Z" fill="white" stroke="#263238" stroke-linecap="round" stroke-linejoin="round"/>
<path d="M154.337 161.418C154.921 161.134 155.576 161.03 156.219 161.119C156.863 161.207 157.465 161.484 157.951 161.915C158.437 162.346 158.784 162.912 158.948 163.54C159.112 164.168 159.087 164.831 158.874 165.445C158.662 166.059 158.272 166.596 157.755 166.988C157.237 167.38 156.615 167.61 155.967 167.649C155.319 167.687 154.673 167.533 154.113 167.205C153.552 166.877 153.102 166.39 152.818 165.806C152.628 165.418 152.517 164.997 152.491 164.566C152.465 164.136 152.524 163.704 152.665 163.296C152.806 162.888 153.026 162.513 153.313 162.19C153.6 161.868 153.948 161.605 154.337 161.418Z" fill="white" stroke="#263238" stroke-linecap="round" stroke-linejoin="round"/>
<path d="M148.746 155.68C149.178 155.468 149.678 155.437 150.133 155.593C150.589 155.749 150.964 156.08 151.176 156.513C151.388 156.946 151.419 157.445 151.263 157.901C151.107 158.356 150.776 158.731 150.343 158.943C150.129 159.048 149.896 159.11 149.658 159.125C149.42 159.14 149.181 159.107 148.955 159.03C148.729 158.953 148.521 158.832 148.342 158.674C148.163 158.516 148.017 158.324 147.912 158.11C147.808 157.896 147.746 157.663 147.731 157.425C147.716 157.187 147.748 156.948 147.826 156.722C147.903 156.497 148.024 156.288 148.182 156.109C148.34 155.93 148.531 155.784 148.746 155.68Z" fill="white" stroke="#263238" stroke-linecap="round" stroke-linejoin="round"/>
<path d="M140.74 145.356C141.015 145.224 141.323 145.177 141.626 145.22C141.928 145.262 142.211 145.394 142.439 145.597C142.667 145.801 142.83 146.067 142.907 146.362C142.983 146.658 142.971 146.97 142.871 147.258C142.771 147.547 142.588 147.8 142.345 147.985C142.102 148.169 141.81 148.278 141.505 148.297C141.2 148.316 140.896 148.245 140.632 148.092C140.368 147.938 140.155 147.711 140.02 147.437C139.929 147.253 139.876 147.053 139.863 146.849C139.851 146.644 139.878 146.44 139.945 146.246C140.012 146.053 140.117 145.874 140.253 145.722C140.39 145.569 140.555 145.445 140.74 145.356Z" fill="white" stroke="#263238" stroke-linecap="round" stroke-linejoin="round"/>
<path d="M137.545 155.374C137.646 155.322 137.757 155.291 137.87 155.283C137.984 155.275 138.098 155.29 138.205 155.326C138.313 155.363 138.412 155.421 138.497 155.497C138.581 155.573 138.65 155.665 138.698 155.768C138.775 155.922 138.804 156.096 138.782 156.266C138.76 156.437 138.688 156.597 138.575 156.727C138.462 156.856 138.312 156.949 138.146 156.994C137.98 157.038 137.804 157.032 137.641 156.976C137.478 156.921 137.336 156.818 137.232 156.681C137.127 156.544 137.066 156.379 137.056 156.207C137.045 156.036 137.086 155.865 137.173 155.716C137.261 155.568 137.39 155.449 137.545 155.374Z" fill="white" stroke="#263238" stroke-linecap="round" stroke-linejoin="round"/>
<path d="M136.648 136.955C136.833 136.856 137.036 136.796 137.245 136.777C137.454 136.758 137.664 136.782 137.864 136.847C138.063 136.911 138.248 137.016 138.406 137.153C138.564 137.291 138.693 137.459 138.785 137.648C138.876 137.836 138.929 138.042 138.94 138.251C138.95 138.461 138.918 138.67 138.845 138.867C138.773 139.064 138.661 139.244 138.518 139.397C138.374 139.549 138.201 139.671 138.009 139.756C137.64 139.917 137.223 139.93 136.845 139.791C136.467 139.651 136.158 139.372 135.982 139.009C135.806 138.647 135.777 138.231 135.902 137.848C136.026 137.466 136.293 137.145 136.648 136.955Z" fill="white" stroke="#263238" stroke-linecap="round" stroke-linejoin="round"/>
<path d="M142.948 176.09C142.948 176.09 128.839 154.151 125.309 145.524C121.779 136.896 110.814 114.573 107.679 107.908C104.543 101.242 102.522 96.9435 102.522 96.9435L91.9424 103.214C91.9424 103.214 105.648 133.376 111.534 142.004C117.421 150.631 127.991 171.781 132.299 177.263C136.608 182.745 142.09 190.19 148.361 193.719C154.632 197.249 164.029 196.076 165.597 195.691C167.164 195.307 142.948 176.09 142.948 176.09Z" fill="white" stroke="#263238" stroke-linecap="round" stroke-linejoin="round"/>
<path d="M231.442 131.808L236.934 135.752C236.934 135.752 222.814 166.683 214.985 178.466C207.156 190.249 204.021 196.49 198.529 198.452C193.037 200.414 183.256 200.424 183.256 200.424C183.256 200.424 200.886 183.179 207.906 172.994C214.926 162.808 231.442 131.808 231.442 131.808Z" fill="white" stroke="#263238" stroke-linecap="round" stroke-linejoin="round"/>
<path d="M212.244 133.771C212.244 133.771 220.872 131.424 223.997 130.635C227.123 129.846 236.539 122.018 236.539 122.018C236.539 122.018 224.392 147.9 221.651 155.325C218.91 162.749 207.156 181.947 201.664 189.835C196.172 197.723 190.7 200.02 186.776 200.414C182.852 200.809 178.553 200.799 174.628 200.799C170.704 200.799 168.367 201.193 166.405 200.799C164.443 200.405 159.355 196.106 159.355 196.106C159.355 196.106 150.728 185.131 152.295 177.293C153.863 169.454 165.616 160.836 176.59 154.96C187.565 149.083 204.021 137.724 205.589 136.936C207.156 136.147 212.244 133.771 212.244 133.771Z" fill="white" stroke="#263238" stroke-linecap="round" stroke-linejoin="round"/>
<path d="M159.355 196.076C159.355 196.076 142.504 178.831 139.004 173.349C135.504 167.866 148.805 155.719 152.719 153.362C156.634 151.006 183.67 140.436 192.682 137.3C201.694 134.165 217.332 131.808 217.332 131.808C206.571 138.333 196.234 145.532 186.381 153.362C170.704 165.904 163.26 167.472 159.345 175.301C155.431 183.13 159.355 196.076 159.355 196.076Z" fill="white" stroke="#263238" stroke-linecap="round" stroke-linejoin="round"/>
<path d="M166.405 199.172C166.405 199.172 145.64 189.381 141.755 186.246C137.87 183.11 120.606 166.259 115.508 157.247C110.41 148.235 90.8579 116.506 90.8579 116.506C90.8579 116.506 110.844 157.642 116.721 167.048C122.597 176.455 132.783 198.393 138.659 201.558C144.536 204.723 163.654 205.088 166.405 199.172Z" fill="white" stroke="#263238" stroke-linecap="round" stroke-linejoin="round"/>
<path d="M160.42 268.557L158.853 297.94L162.373 298.719V267.768L160.42 268.557Z" fill="#263238" stroke="#263238" stroke-linecap="round" stroke-linejoin="round"/>
<path d="M165.902 270.509L168.643 297.545L172.173 298.334L166.681 265.806L165.902 268.941V270.509Z" fill="#263238" stroke="#263238" stroke-linecap="round" stroke-linejoin="round"/>
<path d="M174.125 298.719L171.384 267.768L173.741 267.374L177.261 298.334L174.125 298.719Z" fill="#263238" stroke="#263238" stroke-linecap="round" stroke-linejoin="round"/>
<path d="M176.482 266.989L174.914 302.643L178.05 303.422L178.444 267.374L176.482 266.989Z" fill="#263238" stroke="#263238" stroke-linecap="round" stroke-linejoin="round"/>
<path d="M162.373 272.471L164.729 300.681L168.249 301.854L163.94 268.941L162.373 272.471Z" fill="#263238" stroke="#263238" stroke-linecap="round" stroke-linejoin="round"/>
<path d="M156.604 203.52C156.604 203.52 149.446 254.792 148.657 263.065C147.868 271.337 147.484 279.521 147.484 279.521L155.372 274.039C159.128 274.704 162.806 275.754 166.346 277.174C172.262 279.521 177.31 280.694 183.187 279.146C189.063 277.598 193.382 276.405 193.382 276.405L193.767 263.085L198.864 254.861C198.864 254.861 192.317 203.589 184.873 195.307C177.429 187.024 159.355 199.172 156.604 203.52Z" fill="white" stroke="#263238" stroke-linecap="round" stroke-linejoin="round"/>
<path d="M193.717 263.065C193.717 263.065 183.926 267.009 176.482 267.009C170.039 267.128 163.617 267.788 157.284 268.981C156.101 269.375 156.496 263.893 163.2 255.266C169.905 246.638 172.715 205.906 173.494 200.809" fill="white"/>
<path d="M193.717 263.065C193.717 263.065 183.926 267.009 176.482 267.009C170.039 267.128 163.617 267.788 157.284 268.981C156.101 269.375 156.496 263.893 163.2 255.266C169.905 246.638 172.715 205.906 173.494 200.809" stroke="#263238" stroke-linecap="round" stroke-linejoin="round"/>
<path d="M157.285 268.941L148.272 272.077" stroke="#263238" stroke-linecap="round" stroke-linejoin="round"/>
<path d="M103.321 246.007L118.85 239.983C118.85 239.983 149.594 209.239 152.759 208.293C155.924 207.346 195.867 199.734 199.032 200.05C202.197 200.365 204.425 202.584 204.425 204.802C204.425 207.021 208.537 223.191 208.221 225.409C208.105 226.623 207.543 227.751 206.644 228.575C206.644 228.575 206.644 234.283 206.318 237.764C206.055 240.071 205.416 242.319 204.425 244.42C204.425 244.42 204.741 250.76 203.784 254.28C202.956 256.854 201.786 259.304 200.304 261.566C200.304 261.566 200.935 270.44 199.318 273.931C197.701 277.421 192.031 281.819 187.279 282.164C182.526 282.509 172.065 283.751 171.108 283.751C170.152 283.751 154.948 288.504 149.249 289.776C143.55 291.048 128.641 291.679 128.641 291.679C128.641 291.679 115.015 293.582 109.316 292.665C106.095 292.153 102.915 291.411 99.8008 290.446L103.321 246.007Z" fill="white" stroke="#263238" stroke-linecap="round" stroke-linejoin="round"/>
<path d="M176.531 218.113C176.531 218.113 198.085 223.506 201.881 224.138C203.007 224.366 204.047 224.902 204.888 225.685C205.728 226.468 206.336 227.468 206.644 228.575" stroke="#263238" stroke-linecap="round" stroke-linejoin="round"/>
<path d="M193.323 222.235L201.881 216.535" stroke="#263238" stroke-linecap="round" stroke-linejoin="round"/>
<path d="M173.356 235.871L178.75 238.405L204.425 244.42" stroke="#263238" stroke-linecap="round" stroke-linejoin="round"/>
<path d="M171.779 254.565L175.575 257.415L200.304 261.537" stroke="#263238" stroke-linecap="round" stroke-linejoin="round"/>
<path d="M171.138 283.721L159.73 284.037" stroke="#263238" stroke-linecap="round" stroke-linejoin="round"/>
<path d="M108.704 240.939L105.855 297.989L85.2573 296.717L90.0098 239.667L108.704 240.939Z" fill="white" stroke="#263238" stroke-linecap="round" stroke-linejoin="round"/>
<path d="M-45.9004 308.441L90.9564 307.178L96.6653 239.667L-36.4446 218.212C-40.6252 233.287 -42.438 248.921 -41.8183 264.554C-40.6351 293.305 -45.9004 308.441 -45.9004 308.441Z" fill="#263238"/>
<path d="M-45.9004 308.441L90.9564 307.178L96.6653 239.667L-36.4052 218.212" stroke="#263238" stroke-linecap="round" stroke-linejoin="round"/>
</svg>
