<svg width="124" height="150" viewBox="0 0 124 150" fill="none" xmlns="http://www.w3.org/2000/svg">
<path d="M2.06839 63.7156C1.66887 62.5449 1.63065 61.4357 1.99775 60.4853C2.66824 58.7513 4.61025 57.8438 7.32697 57.9944L36.7604 59.638C40.7915 59.8629 45.7084 62.4093 48.7193 65.8285C50.4285 67.77 51.3028 69.774 51.1824 71.4732L49.692 92.5542C49.5901 93.9961 48.8131 95.0717 47.4432 95.6652C44.2343 97.0572 38.5739 95.4704 34.2753 91.9747L6.33222 69.2513C4.16441 67.4883 2.68561 65.5272 2.06839 63.7156ZM50.2004 69.5631C49.8437 68.5176 49.1617 67.4037 48.1889 66.2968C45.2939 63.0074 40.5784 60.5594 36.721 60.3439L7.28759 58.7003C4.86153 58.5647 3.21715 59.2891 2.65666 60.7403C1.83331 62.8706 3.45107 65.9966 6.77807 68.703L34.72 91.4265C39.4007 95.2328 44.6234 96.1172 47.1618 95.0172C48.2885 94.5281 48.9034 93.6832 48.9868 92.5055L50.4783 71.4245C50.5177 70.8438 50.4227 70.2168 50.2004 69.5631Z" fill="url(#paint0_linear_109_890)"/>
<path d="M-1.31419 64.1479C-1.68939 63.0456 -1.75077 61.9886 -1.45663 61.0451C-0.870672 59.1663 1.00532 58.1069 3.82626 58.0617L35.0037 57.561C42.2124 57.4451 51.2878 63.988 51.4603 69.4275L52.2084 92.7826C52.2594 94.3914 51.5414 95.6408 50.1298 96.3965C46.8931 98.1293 40.788 96.8126 35.929 93.3343L4.0046 70.4787C1.26704 68.5187 -0.597374 66.2505 -1.31419 64.1479ZM50.4644 67.9299C48.8698 63.2508 41.1018 58.1695 35.0164 58.2668L3.83901 58.7675C1.34694 58.807 -0.292817 59.6913 -0.781502 61.2549C-1.53306 63.6646 0.556014 67.1395 4.4157 69.9027L36.3412 92.7571C41.6449 96.5542 47.2324 97.143 49.7986 95.7706C50.974 95.1424 51.5472 94.1433 51.5043 92.8034L50.7563 69.4483C50.7401 68.9522 50.6393 68.4434 50.4644 67.9299Z" fill="url(#paint1_linear_109_890)"/>
<path d="M-4.82301 64.8398C-5.17157 63.8164 -5.25611 62.8265 -5.04072 61.9248C-4.56245 59.9208 -2.71888 58.6713 0.149538 58.4093L32.9297 55.4074C40.4962 54.7142 50.7528 61.1899 51.5333 67.1522L54.8892 92.8393C55.1232 94.6324 54.4758 96.0754 53.0156 97.0131C49.7198 99.1295 43.3299 98.1559 37.8223 94.6984L1.68624 72.0121C-1.66045 69.9119 -3.99155 67.2785 -4.82301 64.8398ZM50.5663 66.1264C48.7853 60.899 39.63 55.5024 32.9934 56.1109L0.214387 59.1129C-2.32863 59.3459 -3.95101 60.4029 -4.354 62.0894C-4.90059 64.3831 -3.12882 68.1547 2.06259 71.414L38.1987 94.0992C44.1254 97.8198 50.0603 98.0713 52.6346 96.4173C53.8482 95.6384 54.3855 94.433 54.1886 92.9297L50.8327 67.2426C50.784 66.874 50.6937 66.4996 50.5663 66.1264Z" fill="url(#paint2_linear_109_890)"/>
<path d="M-8.45111 65.9178C-8.7742 64.9697 -8.87726 64.0424 -8.73251 63.1696C-8.37699 61.0323 -6.58554 59.58 -3.68585 59.0805L30.5059 53.1947C38.3874 51.8375 49.8854 58.1497 51.3572 64.6428L57.7171 92.6956C58.1699 94.6915 57.6094 96.3513 56.0959 97.4953C52.8152 99.9757 46.0303 99.3683 39.9635 96.0511L-0.588145 73.8852C-4.64817 71.6656 -7.50153 68.7042 -8.45111 65.9178ZM50.4829 64.1467C48.4911 58.3004 37.7864 52.6592 30.6252 53.8925L-3.56657 59.7782C-6.14665 60.2221 -7.7343 61.4681 -8.03654 63.2867C-8.4708 65.8969 -6.23118 69.9965 -0.251156 73.2651L40.2993 95.4333C46.841 99.0102 53.1001 98.8757 55.6674 96.9331C56.9424 95.9688 57.4125 94.5582 57.0258 92.8532L50.6659 64.8004C50.6184 64.5825 50.557 64.3646 50.4829 64.1467Z" fill="url(#paint3_linear_109_890)"/>
<path d="M-12.1579 67.3805C-12.4532 66.5147 -12.5714 65.6581 -12.4949 64.8329C-12.2818 62.5519 -10.5622 60.8793 -7.65092 60.1236L27.7104 50.9496C35.8536 48.8367 48.6591 54.8452 50.8987 61.8993L60.6816 92.3247C61.3938 94.5408 60.941 96.4429 59.3719 97.8245C56.1295 100.679 48.9764 100.491 42.3652 97.3794L-2.77912 76.1268C-7.6266 73.8458 -11.0763 70.554 -12.1579 67.3805ZM50.1865 61.9967C47.9538 55.4456 35.5317 49.6503 27.8876 51.6335L-7.47259 60.8075C-10.0747 61.482 -11.6079 62.9355 -11.7908 64.8978C-12.1174 68.3982 -8.28783 72.7528 -2.47804 75.487L42.6663 96.7384C49.8819 100.136 56.2974 99.5886 58.9064 97.2925C60.2485 96.1114 60.6307 94.4678 60.01 92.5403L50.227 62.1149C50.2131 62.0755 50.2004 62.0361 50.1865 61.9967Z" fill="url(#paint4_linear_109_890)"/>
<path d="M-15.9076 69.2629C-16.1704 68.4921 -16.3013 67.7225 -16.2862 66.9656C-16.2411 64.5293 -14.6164 62.618 -11.7121 61.5841L24.519 48.6918C32.8556 45.7258 46.9695 51.3611 50.1147 58.9124L63.7632 91.6838C64.7695 94.1004 64.4429 96.3328 62.8391 97.9648C59.6036 101.255 52.2837 101.537 45.038 98.6486L-4.84151 78.7707C-10.5494 76.4954 -14.6766 72.8734 -15.9076 69.2629ZM63.2976 92.4476C63.2421 92.2853 63.1807 92.1219 63.1112 91.9562L49.4628 59.1848C46.4959 52.0624 32.6413 46.5522 24.7552 49.3583L-11.4758 62.2505C-14.1219 63.1917 -15.5405 64.8271 -15.581 66.9795C-15.654 70.9261 -11.1319 75.5033 -4.58096 78.1135L45.2985 97.9926C53.092 101.099 59.768 100.08 62.3353 97.4687C63.6393 96.1427 63.9681 94.4145 63.2976 92.4476Z" fill="url(#paint5_linear_109_890)"/>
<path d="M-19.6735 71.5299C-19.8901 70.8959 -20.0198 70.2596 -20.0568 69.6302C-20.2097 67.0235 -18.7077 64.8514 -15.8289 63.5139L20.9094 46.4548C29.3571 42.5313 44.826 47.6231 48.9624 55.6879L66.9407 90.7414C68.3084 93.4084 68.1497 95.9479 66.4914 97.8905C63.3393 101.584 55.7311 102.385 47.9909 99.84L-6.72568 81.8456C-13.2847 79.6886 -18.2746 75.6319 -19.6735 71.5299ZM66.6269 90.9025L66.3131 91.0636L48.3348 56.0101C44.4207 48.3788 29.2089 43.3798 21.207 47.0957L-15.5313 64.1548C-18.1669 65.3788 -19.4882 67.2576 -19.3516 69.5885C-19.0945 74.0068 -13.8105 78.7706 -6.50449 81.1733L48.212 99.1678C55.6871 101.626 62.9838 100.912 65.9541 97.4304C67.4352 95.6952 67.558 93.4919 66.3119 91.0625L66.6269 90.9025Z" fill="url(#paint6_linear_109_890)"/>
<path d="M-23.3861 74.3639C-23.5529 73.8737 -23.6721 73.3811 -23.7416 72.8885C-24.1307 70.094 -22.7851 67.6344 -19.9514 65.9654L16.8632 44.2735C25.3249 39.2872 42.1614 43.6743 47.398 52.2282L70.1867 89.4573C71.9793 92.3851 72.0268 95.2665 70.321 97.5707C67.2766 101.681 59.4275 103.059 51.2333 100.923L-8.37005 85.3855C-15.9053 83.4197 -21.7973 79.0245 -23.3861 74.3639ZM69.5845 89.8247L46.7958 52.5956C41.8279 44.4798 25.245 40.1542 17.2211 44.8809L-19.5924 66.5727C-22.2015 68.1096 -23.3942 70.2597 -23.041 72.7899C-22.3555 77.7009 -16.2492 82.5979 -8.19171 84.6993L51.4117 100.237C59.3349 102.302 66.8771 101.032 69.7536 97.1476C71.2984 95.0613 71.2405 92.5288 69.5845 89.8247Z" fill="url(#paint7_linear_109_890)"/>
<path d="M-27.0038 77.7275C-27.108 77.4227 -27.1948 77.1155 -27.2643 76.8072C-27.9418 73.8052 -26.7907 71.0281 -24.023 68.9893L12.362 42.1837C16.0747 39.4494 21.9539 38.4758 28.4921 39.5143C35.7437 40.6653 42.2112 44.1228 45.3715 48.5377L73.4651 87.787C75.7533 90.9837 76.0532 94.2418 74.3116 96.9621C71.3586 101.575 63.5026 103.542 54.7642 101.856L-9.71449 89.412C-18.2757 87.7603 -25.1949 83.0337 -27.0038 77.7275ZM74.3151 90.8945C74.0117 90.0031 73.5369 89.1002 72.8918 88.1996L44.7982 48.9503C41.7445 44.6838 35.4542 41.3364 28.3821 40.2133C22.1219 39.2199 16.29 40.1692 12.7812 42.7539L-23.605 69.5584C-26.1688 71.4477 -27.196 73.9003 -26.5764 76.6507C-25.3547 82.0624 -18.3684 87.022 -9.58247 88.7177L54.8973 101.161C63.2224 102.768 70.9614 100.884 73.7164 96.5797C74.8107 94.8735 75.0041 92.9159 74.3151 90.8945Z" fill="url(#paint8_linear_109_890)"/>
<path d="M-30.4686 81.652C-30.4906 81.5871 -30.5114 81.5234 -30.5323 81.4585C-31.5617 78.2259 -30.655 75.0952 -27.9788 72.6438L7.3918 40.2352C10.8589 37.0583 16.6919 35.5039 23.3957 35.9699C31.4358 36.5297 38.8842 39.8493 42.8342 44.6327L76.7376 85.6925C79.5979 89.157 80.2059 92.8289 78.448 96.0325C75.6665 101.103 67.6842 103.746 58.5856 102.61L-10.6884 93.959C-20.3127 92.757 -28.4038 87.7116 -30.4686 81.652ZM76.4655 85.9185L76.1933 86.1434L42.2899 45.0836C38.4592 40.4439 31.2007 37.2228 23.347 36.6758C16.8355 36.2226 11.1947 37.7096 7.8689 40.7568L-27.5017 73.1654C-29.9984 75.4534 -30.8137 78.2467 -29.8595 81.2452C-27.9696 87.1414 -20.0637 92.0767 -10.6004 93.2589L58.6736 101.91C67.4873 103.011 75.1859 100.512 77.8296 95.6941C79.4381 92.7617 78.8568 89.3702 76.1933 86.1446L76.4655 85.9185Z" fill="url(#paint9_linear_109_890)"/>
<path d="M-33.7006 86.2165C-34.81 82.963 -34.1268 79.7083 -31.7413 76.9822L1.94559 38.477C5.14057 34.8248 10.8983 32.655 17.7422 32.5252C26.4887 32.3594 34.9156 35.4263 39.7342 40.5308L79.9546 83.1299C83.4726 86.8551 84.45 90.9779 82.706 94.7367C80.0935 100.371 72.2375 103.67 62.6919 103.141L-11.2153 99.0473C-21.5356 98.4759 -30.6736 93.4873 -33.4355 86.9154C-33.5327 86.6824 -33.6207 86.4494 -33.7006 86.2165ZM82.3633 88.2286C81.8306 86.665 80.852 85.1084 79.4416 83.6155L39.2212 41.0165C34.5346 36.0522 26.3092 33.07 17.7549 33.2322C11.109 33.3586 5.54009 35.4402 2.47597 38.9429L-31.2109 77.4482C-33.6138 80.194 -34.1546 83.3698 -32.7846 86.6418C-30.1235 92.9738 -21.238 97.7851 -11.1771 98.3426L62.7302 102.436C71.8438 102.942 79.613 99.7277 82.0645 94.44C82.9909 92.4453 83.0789 90.33 82.3633 88.2286Z" fill="url(#paint10_linear_109_890)"/>
<path d="M-36.6258 91.4393C-37.7166 88.2391 -37.2418 84.9671 -35.2269 82.059L-3.98461 36.9645C-1.09303 32.7918 4.56737 29.9649 11.5479 29.2103C20.7507 28.2159 30.3565 30.9802 36.0204 36.254L83.0639 80.0538C87.2652 83.9668 88.722 88.6958 87.0614 93.0272C84.7071 99.1691 76.8615 103.242 67.0751 103.404L-11.2095 104.699C-22.0173 104.877 -32.1442 100.169 -35.836 93.2486C-36.1556 92.6505 -36.4185 92.0455 -36.6258 91.4393ZM82.823 80.3123L82.5822 80.5707L35.5398 36.7721C30.0184 31.6316 20.6315 28.9391 11.6244 29.9139C4.84878 30.6464 -0.628668 33.3633 -3.40329 37.3678L-34.6456 82.4612C-36.9164 85.739 -37.1121 89.3541 -35.213 92.9148C-31.6405 99.6118 -21.7742 104.167 -11.2211 103.992L67.0635 102.697C76.5604 102.54 84.1513 98.6452 86.4013 92.7745C87.9762 88.6656 86.6202 84.3319 82.5822 80.5719L82.823 80.3123Z" fill="url(#paint11_linear_109_890)"/>
<path d="M-39.1676 97.3365C-40.233 94.2105 -39.9632 90.9616 -38.3373 87.9272L-10.3943 35.7613C-7.84779 31.0079 -2.30086 27.4693 4.82561 26.053C14.4905 24.1312 25.0169 26.4007 31.6408 31.8332L86.0006 76.42C91.0276 80.5428 93.024 85.8027 91.4781 90.8504C89.4342 97.5266 81.6777 102.432 71.7187 103.35L-10.5842 110.929C-21.7452 111.957 -32.8483 107.676 -37.5858 100.52C-38.2713 99.4831 -38.7994 98.4167 -39.1676 97.3365ZM85.5536 76.9671L31.1938 32.3803C24.7262 27.0752 14.4302 24.8638 4.96457 26.7461C-1.95345 28.1219 -7.32436 31.5295 -9.77126 36.0951L-37.7143 88.261C-39.7733 92.1056 -39.5185 96.32 -36.9964 100.13C-32.3955 107.078 -21.5611 111.23 -10.6479 110.225L71.6551 102.646C81.328 101.755 88.8447 97.0444 90.8041 90.6441C92.262 85.8838 90.3478 80.8987 85.5536 76.9671Z" fill="url(#paint12_linear_109_890)"/>
<path d="M-41.2382 103.93C-42.2688 100.908 -42.1912 97.7294 -40.9649 94.6382L-17.2741 34.9361C-15.1282 29.5279 -9.71218 25.2046 -2.41548 23.0742C7.57593 20.1568 18.9442 21.8178 26.5455 27.3059L88.6977 72.186C94.6383 76.4769 97.2717 82.2942 95.9203 88.1475C94.2238 95.4983 86.8228 101.161 76.6056 102.926L-9.23739 117.748C-20.7782 119.74 -32.5391 116.139 -38.5018 108.785C-39.7513 107.242 -40.6661 105.61 -41.2382 103.93ZM94.878 81.0911C93.83 78.0161 91.5904 75.1463 88.2843 72.7586L26.1332 27.8785C18.7022 22.5121 7.57361 20.8928 -2.21746 23.7511C-9.3034 25.82 -14.5527 29.9915 -16.6175 35.1957L-40.3083 94.8979C-42.1183 99.4588 -41.281 104.233 -37.9529 108.337C-32.1454 115.499 -20.6543 118.999 -9.35782 117.049L76.4852 102.227C86.4164 100.511 93.5996 95.0555 95.2324 87.9864C95.7709 85.6509 95.6366 83.3165 94.878 81.0911Z" fill="url(#paint13_linear_109_890)"/>
<path d="M-42.7459 111.238C-43.7279 108.357 -43.8264 105.302 -42.9938 102.237L-24.6102 34.5629C-22.9391 28.4106 -17.6794 23.2099 -10.1812 20.2948C-0.00218624 16.3366 12.113 17.2882 20.6836 22.7173L91.0739 67.3076C98.0139 71.7039 101.388 78.0973 100.335 84.8488C99.0921 92.8081 91.9529 99.4078 81.7044 102.073L-7.0696 125.158C-18.644 128.168 -31.2329 125.319 -38.3941 118.069C-40.4577 115.981 -41.9168 113.671 -42.7459 111.238ZM90.884 67.6055L90.6952 67.9045L20.3049 23.313C11.9173 17.9999 0.0510844 17.0738 -9.92643 20.9532C-17.2139 23.7871 -22.3173 28.8151 -23.9292 34.7483L-42.3128 102.423C-43.7789 107.821 -42.2098 113.202 -37.8938 117.57C-30.9028 124.646 -18.5873 127.42 -7.24909 124.471L81.526 101.386C91.4978 98.7935 98.4378 92.414 99.6363 84.7376C100.645 78.2769 97.3863 72.1409 90.6964 67.9022L90.884 67.6055Z" fill="url(#paint14_linear_109_890)"/>
<path d="M-43.5889 119.271C-44.5073 116.577 -44.7562 113.711 -44.2953 110.769L-32.377 34.7216C-31.2803 27.7208 -26.2151 21.5315 -18.4819 17.7378C-8.25306 12.7214 4.49907 12.8709 14.0041 18.1169L93.0391 61.7405C101.05 66.1623 105.285 73.1353 104.659 80.8732C103.962 89.4815 97.186 97.0896 86.978 100.729L-3.97534 133.153C-15.5903 137.293 -28.5798 135.418 -37.0693 128.375C-40.2376 125.747 -42.4379 122.646 -43.5889 119.271ZM92.87 62.0511L92.6998 62.3606L13.6648 18.7381C4.35432 13.5988 -8.14189 13.4563 -18.1704 18.3742C-25.694 22.0646 -30.6179 28.0628 -31.6787 34.8317L-43.5971 110.879C-44.5953 117.249 -42.1171 123.271 -36.6188 127.833C-28.3181 134.72 -15.5972 136.548 -4.21273 132.489L86.7406 100.065C96.6846 96.5205 103.281 89.1454 103.955 80.8175C104.558 73.3682 100.455 66.6422 92.6986 62.3606L92.87 62.0511Z" fill="url(#paint15_linear_109_890)"/>
<path d="M-43.6561 127.925C-44.4853 125.491 -44.8558 122.916 -44.725 120.273L-40.5364 35.5051C-40.1427 27.54 -35.3299 20.2275 -27.3315 15.4406C-17.0274 9.27434 -4.07608 8.56035 6.46887 13.5768L94.5005 55.4549C103.504 59.7376 108.858 67.4697 108.819 76.1384C108.779 85.5859 102.634 94.0714 92.386 98.8375L0.165757 141.727C-11.14 146.986 -24.6784 146.182 -34.3248 139.681C-38.8908 136.603 -42.0916 132.516 -43.6561 127.925ZM94.35 55.7736L94.1983 56.0924L6.16547 14.2143C-4.16872 9.29868 -16.8653 9.99991 -26.969 16.0467C-34.7613 20.7097 -39.4502 27.8147 -39.8312 35.5399L-44.0197 120.308C-44.3845 127.681 -40.7066 134.528 -33.931 139.094C-24.4851 145.461 -11.2176 146.242 -0.131855 141.086L92.0884 98.1965C102.083 93.5486 108.074 85.3008 108.113 76.1349C108.149 67.7479 102.947 60.2557 94.1971 56.0924L94.35 55.7736Z" fill="url(#paint16_linear_109_890)"/>
<path d="M-42.8826 137.303C-43.5913 135.225 -44.0151 133.039 -44.1332 130.778L-49.0444 37.0026C-49.518 27.9468 -45.0376 19.357 -36.752 13.4354C-26.6529 6.21787 -13.3241 4.58128 -1.96618 9.16189L95.3493 48.4101C105.494 52.5016 111.987 60.7726 112.717 70.5366C113.483 80.7503 107.934 90.3913 97.8727 96.3281L5.46948 150.854C-5.53984 157.35 -19.1269 157.758 -29.9903 151.919C-36.3374 148.507 -40.8167 143.363 -42.8826 137.303ZM95.2173 48.7369L95.0853 49.065L-2.23021 9.81676C-13.3669 5.32539 -26.4375 6.93185 -36.3421 14.0091C-44.4274 19.7882 -48.8001 28.1555 -48.3392 36.9643L-43.428 130.739C-42.9775 139.341 -37.9575 146.833 -29.6556 151.295C-19.0088 157.019 -5.6869 156.616 5.11049 150.244L97.5148 95.7172C107.338 89.9208 112.758 80.5266 112.014 70.5876C111.303 61.0983 104.976 53.0521 95.0865 49.0638L95.2173 48.7369Z" fill="url(#paint17_linear_109_890)"/>
<path d="M-41.1455 147.29C-41.691 145.689 -42.0974 144.025 -42.3557 142.305L-57.8407 39.3161C-59.3867 29.0376 -55.351 18.9989 -46.7689 11.7745C-36.9894 3.54165 -23.4116 0.930276 -11.3346 4.95802L95.4686 40.5772C106.75 44.3395 114.511 53.0765 116.228 63.9509C117.972 74.9956 113.168 85.9035 103.374 93.1279L12.0575 160.497C1.65612 168.171 -12.129 169.898 -23.9165 165.006C-32.3828 161.491 -38.4566 155.18 -41.1455 147.29ZM114.396 59.463C111.518 51.0169 104.629 44.3766 95.2463 41.2471L-11.5569 5.62796C-23.4023 1.67787 -36.7207 4.2394 -46.3138 12.3158C-54.7036 19.3779 -58.6502 29.1813 -57.1424 39.2118L-41.6574 142.2C-40.1612 152.15 -33.5964 160.224 -23.6467 164.354C-12.0861 169.152 1.43494 167.456 11.6383 159.929L102.956 92.56C112.533 85.4944 117.234 74.8414 115.531 64.0621C115.282 62.4788 114.901 60.9431 114.396 59.463Z" fill="url(#paint18_linear_109_890)"/>
<path d="M-38.4079 157.627C-38.716 156.725 -38.9846 155.804 -39.2162 154.867L-66.8501 42.5522C-69.6699 31.0891 -66.1391 19.116 -57.403 10.525C-47.9026 1.18179 -34.5413 -2.35683 -21.6595 1.06009L94.7368 31.9329C107.114 35.2154 116.257 44.3071 119.198 56.257C122.138 68.2046 118.257 80.5081 108.82 89.1686L20.0571 170.61C10.2348 179.623 -3.24113 182.699 -15.9898 178.841C-26.7536 175.583 -34.9547 167.759 -38.4079 157.627ZM117.71 53.6862C114.187 43.3508 105.714 35.5758 94.555 32.6167L-21.8413 1.74278C-34.4788 -1.60923 -47.5876 1.86216 -56.9085 11.0292C-65.4651 19.444 -68.9253 31.1656 -66.1657 42.383L-38.5307 154.697C-35.7688 165.914 -27.2678 174.688 -15.786 178.164C-3.27818 181.95 9.9418 178.931 19.5789 170.089L108.341 88.647C117.587 80.1638 121.389 68.1188 118.511 56.4251C118.283 55.4943 118.014 54.5798 117.71 53.6862Z" fill="url(#paint19_linear_109_890)"/>
<path d="M-34.5297 168.464L-75.9846 46.8234C-80.3886 33.8999 -77.6568 20.0479 -68.6775 9.76816C-59.6982 -0.510409 -46.3474 -5.069 -32.9629 -2.42518L93.0136 22.4622C106.397 25.106 117.017 34.4006 121.421 47.323C121.421 47.3241 121.421 47.3218 121.421 47.323C125.825 60.2465 123.093 74.0985 114.114 84.377L29.5922 181.131C20.6129 191.41 7.26095 195.968 -6.12231 193.324C-19.5067 190.681 -30.1258 181.387 -34.5297 168.464ZM92.9453 22.8088L92.877 23.1553L-33.0996 -1.73206C-46.2339 -4.32604 -59.3346 0.14678 -68.146 10.2341C-76.9574 20.3203 -79.6382 33.9138 -75.3164 46.5951L-33.8616 168.236C-29.5398 180.918 -19.1188 190.037 -5.98566 192.632C7.14746 195.228 20.2493 190.754 29.0607 180.667L113.582 83.9134C122.394 73.8273 125.075 60.2338 120.753 47.5525C116.431 34.8711 106.01 25.7505 92.877 23.1565L92.9453 22.8088Z" fill="url(#paint20_linear_109_890)"/>
<defs>
<linearGradient id="paint0_linear_109_890" x1="1.7443" y1="77.0734" x2="51.1924" y2="77.0734" gradientUnits="userSpaceOnUse">
<stop stop-color="#1A2B33"/>
<stop offset="0.2809" stop-color="#1D2D35"/>
<stop offset="0.5065" stop-color="#27333B"/>
<stop offset="0.713" stop-color="#383D46"/>
<stop offset="0.9068" stop-color="#504B54"/>
<stop offset="1" stop-color="#5E535D"/>
</linearGradient>
<linearGradient id="paint1_linear_109_890" x1="-1.64181" y1="77.3568" x2="52.2125" y2="77.3568" gradientUnits="userSpaceOnUse">
<stop stop-color="#1A2B33"/>
<stop offset="0.2809" stop-color="#1D2D35"/>
<stop offset="0.5065" stop-color="#27333B"/>
<stop offset="0.713" stop-color="#383D46"/>
<stop offset="0.9068" stop-color="#504B54"/>
<stop offset="1" stop-color="#5E535D"/>
</linearGradient>
<linearGradient id="paint2_linear_109_890" x1="-5.15922" y1="76.7404" x2="54.9353" y2="76.7404" gradientUnits="userSpaceOnUse">
<stop stop-color="#1A2B33"/>
<stop offset="0.2809" stop-color="#1D2D35"/>
<stop offset="0.5065" stop-color="#27333B"/>
<stop offset="0.713" stop-color="#383D46"/>
<stop offset="0.9068" stop-color="#504B54"/>
<stop offset="1" stop-color="#5E535D"/>
</linearGradient>
<linearGradient id="paint3_linear_109_890" x1="-8.79671" y1="76.0136" x2="57.8689" y2="76.0136" gradientUnits="userSpaceOnUse">
<stop stop-color="#1A2B33"/>
<stop offset="0.2809" stop-color="#1D2D35"/>
<stop offset="0.5065" stop-color="#27333B"/>
<stop offset="0.713" stop-color="#383D46"/>
<stop offset="0.9068" stop-color="#504B54"/>
<stop offset="1" stop-color="#5E535D"/>
</linearGradient>
<linearGradient id="paint4_linear_109_890" x1="-12.5174" y1="75.1822" x2="61.0092" y2="75.1822" gradientUnits="userSpaceOnUse">
<stop stop-color="#1A2B33"/>
<stop offset="0.2809" stop-color="#1D2D35"/>
<stop offset="0.5065" stop-color="#27333B"/>
<stop offset="0.713" stop-color="#383D46"/>
<stop offset="0.9068" stop-color="#504B54"/>
<stop offset="1" stop-color="#5E535D"/>
</linearGradient>
<linearGradient id="paint5_linear_109_890" x1="-16.2875" y1="74.2623" x2="64.3364" y2="74.2623" gradientUnits="userSpaceOnUse">
<stop stop-color="#1A2B33"/>
<stop offset="0.2809" stop-color="#1D2D35"/>
<stop offset="0.5065" stop-color="#27333B"/>
<stop offset="0.713" stop-color="#383D46"/>
<stop offset="0.9068" stop-color="#504B54"/>
<stop offset="1" stop-color="#5E535D"/>
</linearGradient>
<linearGradient id="paint6_linear_109_890" x1="-20.0671" y1="73.2112" x2="67.8632" y2="73.2112" gradientUnits="userSpaceOnUse">
<stop stop-color="#1A2B33"/>
<stop offset="0.2809" stop-color="#1D2D35"/>
<stop offset="0.5065" stop-color="#27333B"/>
<stop offset="0.713" stop-color="#383D46"/>
<stop offset="0.9068" stop-color="#504B54"/>
<stop offset="1" stop-color="#5E535D"/>
</linearGradient>
<linearGradient id="paint7_linear_109_890" x1="-23.8071" y1="72.0448" x2="71.5668" y2="72.0448" gradientUnits="userSpaceOnUse">
<stop stop-color="#1A2B33"/>
<stop offset="0.2809" stop-color="#1D2D35"/>
<stop offset="0.5065" stop-color="#27333B"/>
<stop offset="0.713" stop-color="#383D46"/>
<stop offset="0.9068" stop-color="#504B54"/>
<stop offset="1" stop-color="#5E535D"/>
</linearGradient>
<linearGradient id="paint8_linear_109_890" x1="-27.4537" y1="70.7807" x2="75.4306" y2="70.7807" gradientUnits="userSpaceOnUse">
<stop stop-color="#1A2B33"/>
<stop offset="0.2809" stop-color="#1D2D35"/>
<stop offset="0.5065" stop-color="#27333B"/>
<stop offset="0.713" stop-color="#383D46"/>
<stop offset="0.9068" stop-color="#504B54"/>
<stop offset="1" stop-color="#5E535D"/>
</linearGradient>
<linearGradient id="paint9_linear_109_890" x1="-30.9462" y1="69.38" x2="79.4333" y2="69.38" gradientUnits="userSpaceOnUse">
<stop stop-color="#1A2B33"/>
<stop offset="0.2809" stop-color="#1D2D35"/>
<stop offset="0.5065" stop-color="#27333B"/>
<stop offset="0.713" stop-color="#383D46"/>
<stop offset="0.9068" stop-color="#504B54"/>
<stop offset="1" stop-color="#5E535D"/>
</linearGradient>
<linearGradient id="paint10_linear_109_890" x1="-34.2178" y1="67.8575" x2="83.5504" y2="67.8575" gradientUnits="userSpaceOnUse">
<stop stop-color="#1A2B33"/>
<stop offset="0.2809" stop-color="#1D2D35"/>
<stop offset="0.5065" stop-color="#27333B"/>
<stop offset="0.713" stop-color="#383D46"/>
<stop offset="0.9068" stop-color="#504B54"/>
<stop offset="1" stop-color="#5E535D"/>
</linearGradient>
<linearGradient id="paint11_linear_109_890" x1="-37.1963" y1="66.857" x2="87.7323" y2="66.857" gradientUnits="userSpaceOnUse">
<stop stop-color="#1A2B33"/>
<stop offset="0.2809" stop-color="#1D2D35"/>
<stop offset="0.5065" stop-color="#27333B"/>
<stop offset="0.713" stop-color="#383D46"/>
<stop offset="0.9068" stop-color="#504B54"/>
<stop offset="1" stop-color="#5E535D"/>
</linearGradient>
<linearGradient id="paint12_linear_109_890" x1="-39.8032" y1="68.2294" x2="91.9906" y2="68.2294" gradientUnits="userSpaceOnUse">
<stop stop-color="#1A2B33"/>
<stop offset="0.2809" stop-color="#1D2D35"/>
<stop offset="0.5065" stop-color="#27333B"/>
<stop offset="0.713" stop-color="#383D46"/>
<stop offset="0.9068" stop-color="#504B54"/>
<stop offset="1" stop-color="#5E535D"/>
</linearGradient>
<linearGradient id="paint13_linear_109_890" x1="-41.9533" y1="69.9714" x2="96.2669" y2="69.9714" gradientUnits="userSpaceOnUse">
<stop stop-color="#1A2B33"/>
<stop offset="0.2809" stop-color="#1D2D35"/>
<stop offset="0.5065" stop-color="#27333B"/>
<stop offset="0.713" stop-color="#383D46"/>
<stop offset="0.9068" stop-color="#504B54"/>
<stop offset="1" stop-color="#5E535D"/>
</linearGradient>
<linearGradient id="paint14_linear_109_890" x1="-43.5568" y1="72.1069" x2="100.523" y2="72.1069" gradientUnits="userSpaceOnUse">
<stop stop-color="#1A2B33"/>
<stop offset="0.2809" stop-color="#1D2D35"/>
<stop offset="0.5065" stop-color="#27333B"/>
<stop offset="0.713" stop-color="#383D46"/>
<stop offset="0.9068" stop-color="#504B54"/>
<stop offset="1" stop-color="#5E535D"/>
</linearGradient>
<linearGradient id="paint15_linear_109_890" x1="-44.5204" y1="74.7025" x2="104.72" y2="74.7025" gradientUnits="userSpaceOnUse">
<stop stop-color="#1A2B33"/>
<stop offset="0.2809" stop-color="#1D2D35"/>
<stop offset="0.5065" stop-color="#27333B"/>
<stop offset="0.713" stop-color="#383D46"/>
<stop offset="0.9068" stop-color="#504B54"/>
<stop offset="1" stop-color="#5E535D"/>
</linearGradient>
<linearGradient id="paint16_linear_109_890" x1="-44.7508" y1="77.7187" x2="108.82" y2="77.7187" gradientUnits="userSpaceOnUse">
<stop stop-color="#1A2B33"/>
<stop offset="0.2809" stop-color="#1D2D35"/>
<stop offset="0.5065" stop-color="#27333B"/>
<stop offset="0.713" stop-color="#383D46"/>
<stop offset="0.9068" stop-color="#504B54"/>
<stop offset="1" stop-color="#5E535D"/>
</linearGradient>
<linearGradient id="paint17_linear_109_890" x1="-49.0788" y1="81.3129" x2="112.788" y2="81.3129" gradientUnits="userSpaceOnUse">
<stop stop-color="#1A2B33"/>
<stop offset="0.2809" stop-color="#1D2D35"/>
<stop offset="0.5065" stop-color="#27333B"/>
<stop offset="0.713" stop-color="#383D46"/>
<stop offset="0.9068" stop-color="#504B54"/>
<stop offset="1" stop-color="#5E535D"/>
</linearGradient>
<linearGradient id="paint18_linear_109_890" x1="-58.1643" y1="85.424" x2="116.582" y2="85.424" gradientUnits="userSpaceOnUse">
<stop stop-color="#1A2B33"/>
<stop offset="0.2809" stop-color="#1D2D35"/>
<stop offset="0.5065" stop-color="#27333B"/>
<stop offset="0.713" stop-color="#383D46"/>
<stop offset="0.9068" stop-color="#504B54"/>
<stop offset="1" stop-color="#5E535D"/>
</linearGradient>
<linearGradient id="paint19_linear_109_890" x1="-67.8027" y1="90.1284" x2="120.161" y2="90.1284" gradientUnits="userSpaceOnUse">
<stop stop-color="#1A2B33"/>
<stop offset="0.2809" stop-color="#1D2D35"/>
<stop offset="0.5065" stop-color="#27333B"/>
<stop offset="0.713" stop-color="#383D46"/>
<stop offset="0.9068" stop-color="#504B54"/>
<stop offset="1" stop-color="#5E535D"/>
</linearGradient>
<linearGradient id="paint20_linear_109_890" x1="-78.0505" y1="95.45" x2="123.487" y2="95.45" gradientUnits="userSpaceOnUse">
<stop stop-color="#1A2B33"/>
<stop offset="0.2809" stop-color="#1D2D35"/>
<stop offset="0.5065" stop-color="#27333B"/>
<stop offset="0.713" stop-color="#383D46"/>
<stop offset="0.9068" stop-color="#504B54"/>
<stop offset="1" stop-color="#5E535D"/>
</linearGradient>
</defs>
</svg>
