<svg width="40" height="40" viewBox="0 0 40 40" fill="none" xmlns="http://www.w3.org/2000/svg">
<path d="M20 38.75C30.3553 38.75 38.75 30.3553 38.75 20C38.75 9.64466 30.3553 1.25 20 1.25C9.64466 1.25 1.25 9.64466 1.25 20C1.25 30.3553 9.64466 38.75 20 38.75Z" fill="#699635"/>
<path d="M19.8125 16.6875C19.75 16.125 20.0625 15.5625 20.625 15.6875C21.0625 15.75 21.5625 16.1875 21.3125 16.625C20.9375 17.3125 19.9375 17.3125 19.3125 17.6875C19.375 18.0625 21.1875 17.625 21.5 17.625C21.8125 17.625 22.125 17.75 21.9375 18.125C21.75 18.5 21.125 18.5 20.75 18.5625C20.375 18.625 19.75 18.625 19.5625 18.9375C19.1875 19.4375 19.9375 19.5 20.1875 19.625C20.8125 19.9375 19.8125 20.25 19.5625 20.1875C18.625 20 18.4375 19.5 17.875 18.875C17.3125 19.625 15.5625 21.3125 15.1875 19.5625C14.5625 19.8125 13.9375 20.125 13.25 20.1875C13.5625 19.75 14.1875 19.5625 14.6875 19.3125C15.3125 19 15.3125 18.4375 15.6875 17.9375C15.8125 18.125 15.6875 18.375 15.75 18.625C16.25 18.375 16.875 17.875 16.625 17.25C16.625 17.1875 15.875 15.6875 16.5 15.9375C17.0625 16.1875 16.875 16.75 17 17.1875C17.1875 18 16.8125 18.4375 16.1875 18.9375C15.9375 19.125 15.25 19.875 16.0625 19.875C16.625 19.875 17.125 19.25 17.4375 18.875C17.8125 18.375 17.6875 17.875 17.4375 17.3125C17.25 16.875 16.8125 15.9375 17.375 15.625C17.8125 16.3125 18 17.125 18.1875 17.9375C18.3125 18.625 18.4375 19.3125 19.1875 19.5C19.125 19 19.4375 18.625 19.875 18.4375C19.5625 18.1875 17.8125 18.5 18.5 17.5625C18.5625 17.125 19.8125 16.9375 19.8125 16.6875Z" fill="white"/>
<path d="M10.2499 18.9996C10.5624 19.8746 11.6249 19.5621 12.2499 19.3121C13.2499 18.8121 13.2499 18.0621 13.2499 17.0621C12.8749 17.2496 12.9374 17.9371 12.8124 18.2496C12.5624 18.7496 11.7499 19.1871 11.1874 19.1246C10.3749 18.9996 9.99989 17.6246 10.6249 17.1246C10.7499 17.5621 10.4374 18.4996 11.1874 18.5621C11.7499 18.6246 12.8749 17.9371 12.6874 17.3121C11.9374 17.5621 11.4999 17.3121 11.7499 16.4996C11.9374 15.7496 12.6874 16.3121 12.9999 16.6871C14.1874 15.9996 12.0624 13.3746 13.3124 12.6871C13.5624 13.1246 13.9374 13.6871 13.6249 14.1246C13.2499 14.6246 13.6249 15.6871 13.6874 16.2496C14.3124 15.6871 13.8124 16.6871 14.3124 16.7496C14.6249 16.8121 14.7499 15.9996 14.9374 15.9996C14.9999 16.1871 14.9999 16.7496 15.3124 16.6871C15.6874 16.5621 15.2499 16.0621 15.6249 15.9371C15.7499 16.2496 15.6874 17.1871 15.2499 17.1246C14.8749 17.0621 14.9374 16.8121 14.4999 17.0621C14.1249 17.2496 13.9999 17.0621 13.7499 16.8746C13.6874 17.6246 13.9374 18.4371 13.4999 19.1246C13.1249 19.6871 12.3749 19.9996 11.7499 20.1246C10.1249 20.4371 9.68739 18.8121 10.2499 17.4996C10.3749 17.8746 10.1249 18.5621 10.2499 18.9996ZM25.4999 19.3121C25.8124 20.1246 26.4374 18.4371 26.6249 18.1871C27.1249 17.4371 27.8749 19.3746 28.1874 18.1246C28.3749 17.3121 28.1249 16.4996 28.0624 15.6871C27.9999 15.1246 27.8124 14.6246 27.4374 14.1871C27.0624 13.6871 26.6874 13.2496 26.8749 12.6246C27.4999 12.8746 27.4999 13.3746 27.8124 13.8746C27.8749 13.4996 27.6249 12.9996 27.8749 12.6871C28.1874 12.2496 28.4374 13.4371 28.4374 13.5621C28.4999 13.8746 28.1874 13.9996 28.3749 14.4996C28.4999 14.8746 28.7499 15.2496 28.9999 15.5621C28.9374 15.1871 28.3749 12.6246 28.9999 12.6246C29.1874 12.6246 29.3749 13.3746 29.3749 13.4996C29.4999 13.8746 29.2499 14.1871 29.2499 14.6246C29.1874 15.3746 29.3124 16.2496 29.8124 16.8121C30.0624 17.1246 30.9999 18.2496 30.4999 18.6246C30.1249 18.1871 29.8749 17.6871 29.5624 17.2496C29.5624 17.7496 29.6874 18.3121 29.4374 18.6871C29.1874 18.5621 29.3124 17.7496 29.3124 17.5621C29.3124 16.8746 28.8749 16.3121 28.4999 15.7496C28.3749 16.6871 29.1249 18.4371 28.2499 19.1246C27.6874 19.6246 26.9374 18.4996 26.7499 18.9371C26.5624 19.2496 26.1249 20.3746 25.6249 20.2496C24.9999 20.1246 24.5624 18.3746 25.2499 18.1871C25.3124 18.4996 25.3124 18.9371 25.4999 19.3121Z" fill="white"/>
<path d="M12.1246 15.0622C12.5621 15.1247 12.1246 13.6246 12.1246 13.3746C12.1871 13.1246 12.3746 12.9997 12.4996 13.2497C12.6871 13.6247 12.6871 14.0622 12.7496 14.4372C12.7496 14.7497 12.8121 15.1247 12.5621 15.3747C12.1871 15.7497 11.6871 15.5622 11.4996 15.0622C10.6246 15.8122 11.7496 17.1246 10.9996 17.8747C10.8746 17.1871 10.9996 16.4371 10.7496 15.8121C10.6246 15.4996 10.0621 15.6247 9.99956 15.0622C9.99956 14.8122 10.1871 14.1246 9.93706 13.9371C9.81206 14.1871 9.68706 16.1246 9.06206 15.5621C8.56206 15.1871 8.68706 13.9371 8.87456 13.4371C9.24956 13.6246 8.81206 14.9997 9.31206 15.0622C9.56206 15.1247 9.62456 14.0622 9.68706 13.8747C9.87456 13.5622 10.4996 12.6872 10.3746 13.5622C10.3121 13.9372 9.99956 15.1247 10.7496 15.0622C10.6871 14.4372 10.6246 13.8122 10.4996 13.1872C10.4371 12.8747 10.6246 12.2496 10.8746 12.8121C11.0621 13.1871 10.9371 13.3746 10.8746 13.7496C10.8121 14.1871 10.9996 14.6246 11.0621 14.9996C11.4371 14.6871 10.9371 13.4996 11.2496 12.9996C11.9996 13.4371 11.1871 14.9372 12.1246 15.0622ZM20.1871 15.1871C19.8746 15.6246 19.3121 15.2496 19.0621 14.9371C18.7496 15.3121 18.1246 15.9372 17.6246 15.4372C17.2496 15.0622 17.6871 14.3746 17.3746 14.0621C17.1871 14.3746 16.8746 15.8746 16.3121 15.1871C15.9996 14.8121 15.5621 13.4997 16.2496 13.1872C16.1871 13.6872 16.0621 14.2496 16.3746 14.6871C16.6871 15.1246 16.9996 13.9996 17.1246 13.7496C17.3121 13.3121 17.9371 12.5622 17.8121 13.4997C17.7496 13.8747 17.6246 14.7496 17.9996 14.9996C18.2496 15.1871 18.5621 14.8746 18.6871 14.6871C18.9371 14.3746 18.8121 13.8747 18.7496 13.4997C18.6871 13.1872 18.5621 12.8121 18.7496 12.4996C18.9996 12.1246 19.1871 12.9997 19.1871 13.1872C19.1871 13.3747 19.4371 15.3121 19.8746 14.6871C20.3121 14.1246 19.1246 12.8747 19.9371 12.5622C20.2496 12.4372 20.8121 13.6871 20.1871 13.3121C20.3746 13.8746 20.6246 14.6871 20.1871 15.1871ZM22.5621 15.9371C22.6246 16.7497 23.3121 18.9997 22.3746 19.4997C22.2496 19.2497 22.3746 18.8747 22.4371 18.5622C22.4996 17.9997 22.3746 17.4372 22.3121 16.9372C22.1871 15.7497 22.0621 14.8746 21.2496 13.9371C21.0621 13.6871 20.7496 13.4996 20.6871 13.1246C20.6871 12.9996 20.6246 12.4372 20.8746 12.5622C21.0621 12.6247 22.1246 13.5622 21.5621 13.5622C21.6246 13.6872 21.8746 14.1872 21.9996 14.1872C21.9996 13.8747 21.6246 12.9371 21.9996 12.7496C22.3121 12.5621 22.6871 13.7496 22.5621 13.9996C22.4371 14.3121 22.4371 14.4996 22.5621 14.9371C22.6871 15.4371 22.9996 15.8747 23.2496 16.3122C23.6246 16.9372 24.3746 17.8121 24.1871 18.6246C23.8121 18.4371 23.5621 17.5622 23.3746 17.1872C23.2496 16.8747 23.1246 16.5622 22.9371 16.3122C22.8746 16.2497 22.4996 15.7497 22.5621 16.0622V15.9371ZM31.2496 17.1246C31.3121 18.4371 30.8746 20.1247 29.2496 20.1247C29.2496 19.7497 30.0621 19.3747 30.3121 19.1872C30.9371 18.6872 30.8746 17.7496 30.8121 17.0621C30.7496 16.1246 30.6871 15.1871 30.4996 14.2496C30.4371 13.6871 30.1246 12.8746 30.6246 12.4996C30.9371 12.7496 31.3746 13.4371 31.1871 13.6871C30.8746 14.0621 31.1871 16.8746 31.2496 17.1246Z" fill="white"/>
<path d="M23.25 19.9367C24.875 18.9992 24.375 16.9992 24.25 15.4367C24.1875 14.9992 24.1875 14.5617 24.125 14.1242C24.125 13.8117 23.875 13.3742 24 13.0617C24.3125 12.2492 24.5625 12.9992 24.625 13.4992C24.6875 13.8117 24.4375 13.8742 24.5 14.1242C24.5625 14.6242 24.5625 15.1242 24.625 15.6242C24.6875 16.4367 24.8125 17.2492 24.75 17.9992C24.625 19.1867 24 20.4992 22.5625 20.2492C22.625 20.1242 23.0625 20.0617 23.25 19.9367ZM25.875 16.8117C25.9375 17.4367 26.1875 18.5617 25.875 19.1242C25.625 19.4992 25.625 18.8742 25.5625 18.8117C25.5 18.3117 25.5 17.8117 25.5 17.2492C25.375 15.8742 24.9375 14.4992 24.9375 13.1867C24.9375 11.4992 26.375 14.1242 25.5625 13.9992C25.625 14.9367 25.75 15.8742 25.875 16.8117ZM15.6875 13.6242C15.8125 13.9367 14.25 14.7492 14.0625 14.7492C14 14.4367 14.75 13.9992 14.9375 13.8742C15.125 13.6867 15.25 13.6867 15.1875 13.4367C15.0625 13.1867 15.125 12.7492 15.4375 12.6242C16.0625 12.4367 15.625 13.3742 15.6875 13.6242ZM9.25 19.1867C9.25 19.6867 9.4375 19.4367 9.6875 19.3117C9.8125 19.5617 9.5 20.2492 9.1875 19.9367C8.75 19.4992 9.125 18.4992 9.3125 18.0617C9.4375 18.3742 9.1875 18.8742 9.25 19.1867ZM26.875 15.3117C26.9375 15.0617 26.75 14.8117 26.9375 14.5617C27.1875 14.2492 27.4375 14.6242 27.3125 14.7492C27.1875 14.8742 27 14.6242 27 14.9992C27 15.1867 27.125 15.5617 26.9375 15.7492C26.8125 15.6867 26.25 14.8742 26.3125 14.7492C26.5625 14.4992 26.8125 15.2492 26.875 15.3117ZM10.5625 16.3742C10.4375 16.6242 9 17.4367 8.9375 17.2492C8.9375 17.0617 10.75 15.9992 10.5625 16.3742ZM21.1875 19.5617C21 20.1242 21.8125 19.6242 22 19.5617C21.75 19.9992 20.875 20.3742 21 19.5617C20.9375 19.5617 20.8125 19.6242 20.75 19.6242C20.625 19.4992 21.375 18.9992 21.1875 19.5617ZM28 19.3742C28.1875 19.3742 28.5 19.9367 28.3125 20.0617C28.1875 20.1867 27.625 20.2492 27.9375 19.9992C28.3125 19.6242 28 19.3742 28 19.3742ZM19.1875 16.1867C19.25 16.0617 19.25 15.8742 19.3125 15.7492C19.9375 16.2492 18.3125 17.0617 18.625 15.8742C18.75 15.9992 18.75 16.1867 18.875 16.2492C18.875 16.1242 18.9375 15.9367 18.9375 15.8117C19.0625 15.9367 19.0625 16.1242 19.1875 16.1867ZM26.5 16.9992C26.3125 16.7492 27.4375 16.0617 27.625 15.9367C27.75 16.1242 26.875 16.8117 26.5 16.9992ZM30 14.4992C29.875 14.1242 29.5 13.3742 29.875 13.0617C30.125 13.2492 30.25 14.1867 30 14.4992ZM23.1875 13.2492C23.125 13.1242 22.9375 12.9992 22.9375 12.8117C23 12.5617 23.125 12.6242 23.25 12.7492C23.4375 12.9992 23.5625 13.6867 23.25 13.8742C23.25 13.6867 23.3125 13.4367 23.1875 13.2492ZM15.5625 14.9367C15.5625 15.3117 14.9375 15.6867 14.875 15.1867C14.8125 14.9992 15.125 14.3117 15.25 14.4992C15 15.0617 15 15.2492 15.5625 14.9367Z" fill="white"/>
<path d="M23.375 14.2499C23.625 14.8749 23.5 14.3124 23.75 14.1874C24.1875 14.9999 22.8125 14.8124 23.125 14.3124C23.1875 14.3749 23.25 14.4999 23.25 14.5624C23.3125 14.4999 23.3125 14.3749 23.375 14.2499ZM27.375 17.1249C27.0625 16.8749 27.4375 16.5624 27.625 16.8749C27.75 17.0624 27.75 17.5624 27.5 17.6874C27.5 17.4999 27.5625 17.2499 27.375 17.1249ZM14.5625 18.4999C14.5625 18.3749 14.5 17.4374 14.6875 17.5624C14.9375 17.6874 14.875 18.3749 14.5625 18.4999ZM11.9375 12.6249C12 12.8124 12.0625 13.0624 12.1875 12.7499C12.6875 13.3124 10.9375 13.1249 11.5625 12.5624C11.5625 12.6249 11.6875 12.9999 11.9375 12.6249ZM18.3125 13.9999C18.3125 13.7499 17.9375 12.6874 18.25 12.6874C18.625 12.7499 18.5625 13.6874 18.3125 13.9999ZM9.56252 13.4374C9.37502 13.3749 9.68752 13.0624 9.56252 12.8124C9.43752 12.8749 9.31252 12.6874 9.43752 12.5624C9.93752 12.1874 9.75002 13.4374 9.56252 13.4374ZM25.75 26.1249L25.5 25.3749L25.25 26.1249H11.5625C11.5625 26.1249 11.6875 27.2499 13.0625 27.2499H25.1875V28.1249H28.5V26.1249H25.75ZM27.875 27.6249H25.625V26.9999H27.875V27.6249Z" fill="white"/>
</svg>
