<svg width="25" height="24" viewBox="0 0 25 24" fill="none" xmlns="http://www.w3.org/2000/svg">
<g clip-path="url(#clip0_1256_14711)">
<path d="M15.7461 6.17517H9.25684V17.8213H15.7461V6.17517Z" fill="#FF5F00"/>
<path d="M9.6691 11.9982C9.6691 9.73486 10.7197 7.57436 12.4914 6.17519C9.27768 3.64432 4.62189 4.19988 2.08798 7.43033C-0.445925 10.6402 0.110299 15.2904 3.34463 17.8213C6.04335 19.9406 9.8133 19.9406 12.512 17.8213C10.7197 16.4221 9.6691 14.2616 9.6691 11.9982Z" fill="#EB001B"/>
<path d="M24.5014 11.9982C24.5014 16.0929 21.1847 19.4056 17.0851 19.4056C15.4164 19.4056 13.8096 18.8501 12.5117 17.8213C15.7255 15.2904 16.2817 10.6402 13.7478 7.40975C13.377 6.95708 12.9649 6.52498 12.5117 6.17519C15.7255 3.64432 20.4018 4.19988 22.9152 7.43033C23.9452 8.72663 24.5014 10.3316 24.5014 11.9982Z" fill="#F79E1B"/>
<path d="M23.8014 16.5866V16.3397H23.9044V16.2986H23.6572V16.3397H23.7602V16.5866H23.8014ZM24.2753 16.5866V16.2986H24.1928L24.1104 16.5043L24.028 16.2986H23.9456V16.5866H24.0074V16.3603L24.0898 16.5455H24.1516L24.234 16.3603V16.5866H24.2753Z" fill="#F79E1B"/>
</g>
<defs>
<clipPath id="clip0_1256_14711">
<rect width="24.0017" height="22.8217" fill="white" transform="translate(0.5 0.589111)"/>
</clipPath>
</defs>
</svg>
