<svg width="25" height="25" viewBox="0 0 25 25" fill="none" xmlns="http://www.w3.org/2000/svg">
<path d="M16.1371 8.62C14.4352 8.62 12.9072 9.50555 12.9072 11.1306C12.9072 13.0021 15.6064 13.1299 15.6064 14.0611C15.6064 14.4537 15.1489 14.8097 14.3803 14.8097C13.2823 14.8097 12.4588 14.3167 12.4588 14.3167L12.1111 15.96C12.1111 15.96 13.0536 16.38 14.3162 16.38C16.1828 16.38 17.6468 15.4579 17.6468 13.7964C17.6468 11.8244 14.9384 11.6966 14.9384 10.8293C14.9384 10.5189 15.3136 10.1811 16.0822 10.1811C16.9514 10.1811 17.6651 10.5372 17.6651 10.5372L18.0128 8.94865C18.0036 8.94865 17.2259 8.62 16.1371 8.62ZM0.545749 8.73868L0.5 8.97604C0.5 8.97604 1.21369 9.10385 1.86332 9.36861C2.69596 9.66988 2.75086 9.84334 2.89726 10.382L4.42528 16.2522H6.47484L9.61323 8.73868H7.57282L5.55071 13.8511L4.72722 9.51468C4.65402 9.02169 4.26973 8.73868 3.79394 8.73868H0.545749ZM10.4367 8.73868L8.83549 16.2522H10.7844L12.3765 8.73868H10.4367ZM21.2884 8.73868C20.8218 8.73868 20.5747 8.98517 20.3917 9.42338L17.537 16.2522H19.5774L19.9708 15.111H22.4596L22.6975 16.2522H24.5L22.9354 8.73868H21.2884ZM21.5538 10.7745L22.1576 13.5955H20.5381L21.5538 10.7745Z" fill="#1434CB"/>
</svg>
