<svg width="24" height="24" viewBox="0 0 24 24" fill="none" xmlns="http://www.w3.org/2000/svg">
<path fill-rule="evenodd" clip-rule="evenodd" d="M10.5285 2.28309C10.9778 2.03014 11.4847 1.89725 12.0003 1.89725C12.5159 1.89725 13.0228 2.03014 13.4721 2.28309C13.9213 2.53604 14.2979 2.90052 14.5653 3.34136L14.5681 3.34611L23.0381 17.4861L23.0463 17.4999C23.3082 17.9536 23.4468 18.4679 23.4483 18.9917C23.4497 19.5155 23.314 20.0306 23.0546 20.4857C22.7952 20.9408 22.4212 21.3201 21.9697 21.5857C21.5182 21.8514 21.0051 21.9942 20.4813 21.9999L20.4703 22.0001L3.51927 22C2.99547 21.9942 2.48231 21.8514 2.03084 21.5857C1.57936 21.3201 1.20532 20.9408 0.945914 20.4857C0.686511 20.0306 0.550791 19.5155 0.552258 18.9917C0.553725 18.4679 0.692327 17.9536 0.954275 17.4999L0.962398 17.4861L9.43525 3.34136C9.70266 2.90051 10.0792 2.53604 10.5285 2.28309ZM12.0003 3.89725C11.8284 3.89725 11.6594 3.94154 11.5097 4.02586C11.3606 4.1098 11.2355 4.23058 11.1465 4.37663L2.68295 18.5058C2.59777 18.6556 2.55273 18.8249 2.55225 18.9973C2.55176 19.1719 2.597 19.3436 2.68347 19.4953C2.76994 19.647 2.89462 19.7734 3.04511 19.862C3.19428 19.9498 3.36366 19.9973 3.53666 20H20.4639C20.6369 19.9973 20.8062 19.9498 20.9554 19.862C21.1059 19.7734 21.2306 19.647 21.3171 19.4953C21.4035 19.3436 21.4488 19.1719 21.4483 18.9973C21.4478 18.8249 21.4028 18.6557 21.3176 18.5059L12.8553 4.37862C12.8549 4.37796 12.8545 4.37729 12.8541 4.37663C12.765 4.23058 12.6399 4.1098 12.4909 4.02586C12.3411 3.94154 12.1721 3.89725 12.0003 3.89725Z" fill="#C24040"/>
<path fill-rule="evenodd" clip-rule="evenodd" d="M11 17C11 16.4477 11.4477 16 12 16H12.01C12.5623 16 13.01 16.4477 13.01 17C13.01 17.5523 12.5623 18 12.01 18H12C11.4477 18 11 17.5523 11 17Z" fill="#C24040"/>
<path fill-rule="evenodd" clip-rule="evenodd" d="M12 8C12.5523 8 13 8.44772 13 9V13C13 13.5523 12.5523 14 12 14C11.4477 14 11 13.5523 11 13V9C11 8.44772 11.4477 8 12 8Z" fill="#C24040"/>
</svg>
