<svg width="16" height="17" viewBox="0 0 16 17" fill="none" xmlns="http://www.w3.org/2000/svg">
<path d="M1.33301 8.50008C1.33301 5.98592 1.33301 4.72885 2.11406 3.9478C2.89511 3.16675 4.15218 3.16675 6.66634 3.16675H9.33301C11.8472 3.16675 13.1042 3.16675 13.8853 3.9478C14.6663 4.72885 14.6663 5.98592 14.6663 8.50008V9.83341C14.6663 12.3476 14.6663 13.6047 13.8853 14.3857C13.1042 15.1667 11.8472 15.1667 9.33301 15.1667H6.66634C4.15218 15.1667 2.89511 15.1667 2.11406 14.3857C1.33301 13.6047 1.33301 12.3476 1.33301 9.83341V8.50008Z" stroke="#97929A" stroke-width="1.5"/>
<path d="M4.66699 3.16675V2.16675" stroke="#97929A" stroke-width="1.5" stroke-linecap="round"/>
<path d="M11.333 3.16675V2.16675" stroke="#97929A" stroke-width="1.5" stroke-linecap="round"/>
<path d="M1.66699 6.5H14.3337" stroke="#97929A" stroke-width="1.5" stroke-linecap="round"/>
<path d="M12.0003 11.8333C12.0003 12.2015 11.7018 12.5 11.3337 12.5C10.9655 12.5 10.667 12.2015 10.667 11.8333C10.667 11.4651 10.9655 11.1667 11.3337 11.1667C11.7018 11.1667 12.0003 11.4651 12.0003 11.8333Z" fill="#97929A"/>
<path d="M12.0003 9.16667C12.0003 9.53486 11.7018 9.83333 11.3337 9.83333C10.9655 9.83333 10.667 9.53486 10.667 9.16667C10.667 8.79848 10.9655 8.5 11.3337 8.5C11.7018 8.5 12.0003 8.79848 12.0003 9.16667Z" fill="#97929A"/>
<path d="M8.66634 11.8333C8.66634 12.2015 8.36786 12.5 7.99967 12.5C7.63148 12.5 7.33301 12.2015 7.33301 11.8333C7.33301 11.4651 7.63148 11.1667 7.99967 11.1667C8.36786 11.1667 8.66634 11.4651 8.66634 11.8333Z" fill="#97929A"/>
<path d="M8.66634 9.16667C8.66634 9.53486 8.36786 9.83333 7.99967 9.83333C7.63148 9.83333 7.33301 9.53486 7.33301 9.16667C7.33301 8.79848 7.63148 8.5 7.99967 8.5C8.36786 8.5 8.66634 8.79848 8.66634 9.16667Z" fill="#97929A"/>
<path d="M5.33333 11.8333C5.33333 12.2015 5.03486 12.5 4.66667 12.5C4.29848 12.5 4 12.2015 4 11.8333C4 11.4651 4.29848 11.1667 4.66667 11.1667C5.03486 11.1667 5.33333 11.4651 5.33333 11.8333Z" fill="#97929A"/>
<path d="M5.33333 9.16667C5.33333 9.53486 5.03486 9.83333 4.66667 9.83333C4.29848 9.83333 4 9.53486 4 9.16667C4 8.79848 4.29848 8.5 4.66667 8.5C5.03486 8.5 5.33333 8.79848 5.33333 9.16667Z" fill="#97929A"/>
</svg>
