<svg width="22" height="21" viewBox="0 0 22 21" fill="none" xmlns="http://www.w3.org/2000/svg">
<path d="M3.92864 1.33596C3.41715 1.33596 2.92661 1.53915 2.56494 1.90083C2.20326 2.2625 2.00007 2.75304 2.00007 3.26453V5.83596C2.00007 6.00646 1.93234 6.16997 1.81178 6.29053C1.69122 6.41109 1.52771 6.47882 1.35721 6.47882C1.18672 6.47882 1.0232 6.41109 0.902644 6.29053C0.782085 6.16997 0.714355 6.00646 0.714355 5.83596V3.26453C0.714355 2.41205 1.053 1.59449 1.6558 0.99169C2.25859 0.388894 3.07616 0.0502472 3.92864 0.0502472H6.50007C6.67057 0.0502472 6.83408 0.117977 6.95464 0.238536C7.0752 0.359095 7.14293 0.522608 7.14293 0.693104C7.14293 0.863601 7.0752 1.02711 6.95464 1.14767C6.83408 1.26823 6.67057 1.33596 6.50007 1.33596H3.92864ZM3.92864 19.336C3.41715 19.336 2.92661 19.1328 2.56494 18.7711C2.20326 18.4094 2.00007 17.9189 2.00007 17.4074V14.836C2.00007 14.6655 1.93234 14.502 1.81178 14.3814C1.69122 14.2608 1.52771 14.1931 1.35721 14.1931C1.18672 14.1931 1.0232 14.2608 0.902644 14.3814C0.782085 14.502 0.714355 14.6655 0.714355 14.836V17.4074C0.714355 18.2599 1.053 19.0774 1.6558 19.6802C2.25859 20.283 3.07616 20.6217 3.92864 20.6217H6.50007C6.67057 20.6217 6.83408 20.5539 6.95464 20.4334C7.0752 20.3128 7.14293 20.1493 7.14293 19.9788C7.14293 19.8083 7.0752 19.6448 6.95464 19.5243C6.83408 19.4037 6.67057 19.336 6.50007 19.336H3.92864ZM20.0001 3.26453C20.0001 2.75304 19.7969 2.2625 19.4352 1.90083C19.0735 1.53915 18.583 1.33596 18.0715 1.33596H15.5001C15.3296 1.33596 15.1661 1.26823 15.0455 1.14767C14.9249 1.02711 14.8572 0.863601 14.8572 0.693104C14.8572 0.522608 14.9249 0.359095 15.0455 0.238536C15.1661 0.117977 15.3296 0.0502472 15.5001 0.0502472H18.0715C18.924 0.0502472 19.7415 0.388894 20.3443 0.99169C20.9471 1.59449 21.2858 2.41205 21.2858 3.26453V5.83596C21.2858 6.00646 21.2181 6.16997 21.0975 6.29053C20.9769 6.41109 20.8134 6.47882 20.6429 6.47882C20.4724 6.47882 20.3089 6.41109 20.1884 6.29053C20.0678 6.16997 20.0001 6.00646 20.0001 5.83596V3.26453ZM18.0715 19.336C18.583 19.336 19.0735 19.1328 19.4352 18.7711C19.7969 18.4094 20.0001 17.9189 20.0001 17.4074V14.836C20.0001 14.6655 20.0678 14.502 20.1884 14.3814C20.3089 14.2608 20.4724 14.1931 20.6429 14.1931C20.8134 14.1931 20.9769 14.2608 21.0975 14.3814C21.2181 14.502 21.2858 14.6655 21.2858 14.836V17.4074C21.2858 18.2599 20.9471 19.0774 20.3443 19.6802C19.7415 20.283 18.924 20.6217 18.0715 20.6217H15.5001C15.3296 20.6217 15.1661 20.5539 15.0455 20.4334C14.9249 20.3128 14.8572 20.1493 14.8572 19.9788C14.8572 19.8083 14.9249 19.6448 15.0455 19.5243C15.1661 19.4037 15.3296 19.336 15.5001 19.336H18.0715ZM12.9998 10.4131C12.9998 11.5325 12.1049 12.4394 11.0001 12.4394C9.89521 12.4394 9.00036 11.5325 9.00036 10.414C9.00036 9.29539 9.89436 8.38768 11.0001 8.38768C12.1058 8.38768 12.9998 9.29453 12.9998 10.4131ZM8.27693 5.17682C8.53064 4.66253 9.05007 4.33682 9.61835 4.33682H12.3818C12.9501 4.33682 13.4704 4.66253 13.7232 5.17682L14.3086 6.3631H15.0004C16.1044 6.3631 17.0001 7.26996 17.0001 8.38853V13.4542C17.0001 14.5711 16.1044 15.4788 15.0004 15.4788H6.99978C5.89578 15.4788 5.00007 14.572 5.00007 13.4525V8.38768C5.00007 7.2691 5.89578 6.36225 6.99978 6.36225H7.69064L8.27693 5.17682ZM14.0001 10.414C14.0001 8.73653 12.6569 7.37625 11.0001 7.37625C9.34321 7.37625 8.00007 8.73653 8.00007 10.4148C8.00007 12.0931 9.34321 13.4534 11.0001 13.4534C12.6569 13.4534 14.0001 12.0931 14.0001 10.4148" fill="black"/>
</svg>
