<svg width="25" height="22" viewBox="0 0 25 22" fill="none" xmlns="http://www.w3.org/2000/svg">
<path d="M22.875 5.96422V2.625C22.875 2.16087 22.6906 1.71575 22.3624 1.38756C22.0342 1.05937 21.5891 0.875 21.125 0.875H1.875C1.41087 0.875 0.965752 1.05937 0.637563 1.38756C0.309374 1.71575 0.125 2.16087 0.125 2.625V16.625C0.125 17.0891 0.309374 17.5342 0.637563 17.8624C0.965752 18.1906 1.41087 18.375 1.875 18.375H15V21C14.9986 21.1543 15.038 21.3061 15.1143 21.4403C15.1905 21.5744 15.3008 21.6859 15.4341 21.7637C15.5673 21.8414 15.7188 21.8825 15.873 21.8829C16.0273 21.8832 16.1789 21.8428 16.3125 21.7656L18.9375 20.2628L21.5625 21.7656C21.6961 21.8428 21.8477 21.8832 22.002 21.8829C22.1562 21.8825 22.3077 21.8414 22.4409 21.7637C22.5742 21.6859 22.6845 21.5744 22.7607 21.4403C22.837 21.3061 22.8764 21.1543 22.875 21V14.1608C23.4281 13.6311 23.8683 12.9949 24.169 12.2906C24.4697 11.5863 24.6248 10.8283 24.6248 10.0625C24.6248 9.29666 24.4697 8.53874 24.169 7.83441C23.8683 7.13008 23.4281 6.4939 22.875 5.96422ZM11.5 12.25H5.375C5.14294 12.25 4.92038 12.1578 4.75628 11.9937C4.59219 11.8296 4.5 11.6071 4.5 11.375C4.5 11.1429 4.59219 10.9204 4.75628 10.7563C4.92038 10.5922 5.14294 10.5 5.375 10.5H11.5C11.7321 10.5 11.9546 10.5922 12.1187 10.7563C12.2828 10.9204 12.375 11.1429 12.375 11.375C12.375 11.6071 12.2828 11.8296 12.1187 11.9937C11.9546 12.1578 11.7321 12.25 11.5 12.25ZM11.5 8.75H5.375C5.14294 8.75 4.92038 8.65781 4.75628 8.49372C4.59219 8.32962 4.5 8.10706 4.5 7.875C4.5 7.64294 4.59219 7.42038 4.75628 7.25628C4.92038 7.09219 5.14294 7 5.375 7H11.5C11.7321 7 11.9546 7.09219 12.1187 7.25628C12.2828 7.42038 12.375 7.64294 12.375 7.875C12.375 8.10706 12.2828 8.32962 12.1187 8.49372C11.9546 8.65781 11.7321 8.75 11.5 8.75ZM21.125 19.4917L19.375 18.4898C19.2428 18.4143 19.0931 18.3745 18.9408 18.3745C18.7885 18.3745 18.6388 18.4143 18.5066 18.4898L16.7566 19.4917V15.3125C17.4495 15.602 18.1931 15.7511 18.9441 15.7511C19.6951 15.7511 20.4386 15.602 21.1316 15.3125L21.125 19.4917ZM18.9375 14C18.1587 14 17.3975 13.7691 16.7499 13.3364C16.1024 12.9038 15.5977 12.2888 15.2997 11.5693C15.0017 10.8498 14.9237 10.0581 15.0757 9.29433C15.2276 8.53053 15.6026 7.82894 16.1533 7.27827C16.7039 6.7276 17.4055 6.35259 18.1693 6.20066C18.9331 6.04873 19.7248 6.1267 20.4443 6.42472C21.1638 6.72274 21.7788 7.22742 22.2114 7.87494C22.6441 8.52246 22.875 9.28374 22.875 10.0625C22.875 10.5796 22.7732 11.0916 22.5753 11.5693C22.3774 12.047 22.0874 12.4811 21.7217 12.8467C21.3561 13.2124 20.922 13.5024 20.4443 13.7003C19.9666 13.8982 19.4546 14 18.9375 14Z" fill="#3D0A5C"/>
</svg>
