<svg width="21" height="22" viewBox="0 0 21 22" fill="none" xmlns="http://www.w3.org/2000/svg">
<path d="M14 4.00153C15.9031 4.01212 16.9338 4.09651 17.6062 4.76885C18.375 5.53769 18.375 6.77513 18.375 9.25V14.5C18.375 16.9749 18.375 18.2123 17.6062 18.9812C16.8373 19.75 15.5999 19.75 13.125 19.75H7.875C5.40013 19.75 4.16269 19.75 3.39384 18.9812C2.625 18.2123 2.625 16.9749 2.625 14.5V9.25C2.625 6.77513 2.625 5.53769 3.39384 4.76885C4.06618 4.09651 5.09685 4.01212 7 4.00153" stroke="#A739EA" stroke-width="1.5"/>
<path d="M9.1875 12C8.77329 12 8.4375 12.3358 8.4375 12.75C8.4375 13.1642 8.77329 13.5 9.1875 13.5V12ZM14.875 13.5C15.2892 13.5 15.625 13.1642 15.625 12.75C15.625 12.3358 15.2892 12 14.875 12V13.5ZM9.1875 13.5L14.875 13.5V12L9.1875 12V13.5Z" fill="#A739EA"/>
<path d="M6.125 12C5.71079 12 5.375 12.3358 5.375 12.75C5.375 13.1642 5.71079 13.5 6.125 13.5V12ZM6.5625 13.5C6.97671 13.5 7.3125 13.1642 7.3125 12.75C7.3125 12.3358 6.97671 12 6.5625 12V13.5ZM6.125 13.5H6.5625V12H6.125V13.5Z" fill="#A739EA"/>
<path d="M6.125 8.9375C5.71079 8.9375 5.375 9.27329 5.375 9.6875C5.375 10.1017 5.71079 10.4375 6.125 10.4375V8.9375ZM6.5625 10.4375C6.97671 10.4375 7.3125 10.1017 7.3125 9.6875C7.3125 9.27329 6.97671 8.9375 6.5625 8.9375V10.4375ZM6.125 10.4375H6.5625V8.9375H6.125V10.4375Z" fill="#A739EA"/>
<path d="M6.125 15.0625C5.71079 15.0625 5.375 15.3983 5.375 15.8125C5.375 16.2267 5.71079 16.5625 6.125 16.5625V15.0625ZM6.5625 16.5625C6.97671 16.5625 7.3125 16.2267 7.3125 15.8125C7.3125 15.3983 6.97671 15.0625 6.5625 15.0625V16.5625ZM6.125 16.5625H6.5625V15.0625H6.125V16.5625Z" fill="#A739EA"/>
<path d="M9.1875 8.9375C8.77329 8.9375 8.4375 9.27329 8.4375 9.6875C8.4375 10.1017 8.77329 10.4375 9.1875 10.4375V8.9375ZM14.875 10.4375C15.2892 10.4375 15.625 10.1017 15.625 9.6875C15.625 9.27329 15.2892 8.9375 14.875 8.9375V10.4375ZM9.1875 10.4375H14.875V8.9375H9.1875V10.4375Z" fill="#A739EA"/>
<path d="M9.1875 15.0625C8.77329 15.0625 8.4375 15.3983 8.4375 15.8125C8.4375 16.2267 8.77329 16.5625 9.1875 16.5625V15.0625ZM14.875 16.5625C15.2892 16.5625 15.625 16.2267 15.625 15.8125C15.625 15.3983 15.2892 15.0625 14.875 15.0625V16.5625ZM9.1875 16.5625H14.875V15.0625H9.1875V16.5625Z" fill="#A739EA"/>
<path d="M8.3125 3H12.6875V1.5H8.3125V3ZM13.25 3.5625V4.4375H14.75V3.5625H13.25ZM12.6875 5H8.3125V6.5H12.6875V5ZM7.75 4.4375V3.5625H6.25V4.4375H7.75ZM8.3125 5C8.00184 5 7.75 4.74816 7.75 4.4375H6.25C6.25 5.57659 7.17341 6.5 8.3125 6.5V5ZM13.25 4.4375C13.25 4.74816 12.9982 5 12.6875 5V6.5C13.8266 6.5 14.75 5.57659 14.75 4.4375H13.25ZM12.6875 3C12.9982 3 13.25 3.25184 13.25 3.5625H14.75C14.75 2.42341 13.8266 1.5 12.6875 1.5V3ZM8.3125 1.5C7.17341 1.5 6.25 2.42341 6.25 3.5625H7.75C7.75 3.25184 8.00184 3 8.3125 3V1.5Z" fill="#A739EA"/>
</svg>
