<svg width="13" height="12" viewBox="0 0 13 12" fill="none" xmlns="http://www.w3.org/2000/svg">
<g clip-path="url(#clip0_7_176)">
<path d="M6.60477 0C9.91857 0 12.6048 2.6862 12.6048 6C12.6048 9.3138 9.91857 12 6.60477 12C3.29097 12 0.604767 9.3138 0.604767 6C0.604767 2.6862 3.29097 0 6.60477 0ZM6.60477 0.837C5.23545 0.837 3.92222 1.38096 2.95397 2.34921C1.98572 3.31746 1.44177 4.63069 1.44177 6C1.44177 7.36931 1.98572 8.68254 2.95397 9.65079C3.92222 10.619 5.23545 11.163 6.60477 11.163C7.97408 11.163 9.28731 10.619 10.2556 9.65079C11.2238 8.68254 11.7678 7.36931 11.7678 6C11.7678 4.63069 11.2238 3.31746 10.2556 2.34921C9.28731 1.38096 7.97408 0.837 6.60477 0.837ZM6.04677 3.3486C6.27777 3.3486 6.46497 3.5364 6.46497 3.7674V6.6978H9.39537C9.50362 6.7019 9.60607 6.74779 9.68121 6.82582C9.75634 6.90386 9.79832 7.00797 9.79832 7.1163C9.79832 7.22463 9.75634 7.32874 9.68121 7.40678C9.60607 7.48481 9.50362 7.5307 9.39537 7.5348H6.04677C5.93569 7.5348 5.82917 7.49068 5.75063 7.41214C5.67209 7.3336 5.62797 7.22707 5.62797 7.116V3.768C5.62797 3.5364 5.81517 3.3486 6.04677 3.3486Z" fill="black"/>
</g>
<defs>
<clipPath id="clip0_7_176">
<rect width="12" height="12" fill="white" transform="translate(0.604767)"/>
</clipPath>
</defs>
</svg>
