<svg width="16" height="16" viewBox="0 0 16 16" fill="none" xmlns="http://www.w3.org/2000/svg">
<g clip-path="url(#clip0_251_73)">
<circle cx="7.99967" cy="8.00004" r="6.66667" stroke="#A739EA" stroke-width="1.5"/>
<path d="M10.1967 6.86372C10.4896 6.57082 10.4896 6.09595 10.1967 5.80306C9.90376 5.51016 9.42889 5.51016 9.136 5.80306L10.1967 6.86372ZM5.80268 9.13638C5.50978 9.42927 5.50978 9.90414 5.80268 10.197C6.09557 10.4899 6.57044 10.4899 6.86334 10.197L5.80268 9.13638ZM6.86332 5.80304C6.57043 5.51015 6.09556 5.51015 5.80266 5.80304C5.50977 6.09594 5.50977 6.57081 5.80266 6.8637L6.86332 5.80304ZM9.13598 10.197C9.42888 10.4899 9.90375 10.4899 10.1966 10.197C10.4895 9.90413 10.4895 9.42926 10.1966 9.13636L9.13598 10.197ZM9.136 5.80306L5.80268 9.13638L6.86334 10.197L10.1967 6.86372L9.136 5.80306ZM5.80266 6.8637L9.13598 10.197L10.1966 9.13636L6.86332 5.80304L5.80266 6.8637Z" fill="#A739EA"/>
</g>
<defs>
<clipPath id="clip0_251_73">
<rect width="16" height="16" fill="white"/>
</clipPath>
</defs>
</svg>
