<svg width="25" height="25" viewBox="0 0 25 25" fill="none" xmlns="http://www.w3.org/2000/svg">
<g clip-path="url(#clip0_972_8740)">
<path d="M15.25 13.1875H20.75M15.25 13.1875V16.625C15.25 17.9214 15.25 18.5695 15.6527 18.9723C16.0555 19.375 16.7036 19.375 18 19.375C19.2964 19.375 19.9445 19.375 20.3473 18.9723C20.75 18.5695 20.75 17.9214 20.75 16.625V13.1875M15.25 13.1875C14.0739 13.1875 13.0839 14.0678 12.9465 15.2359L12.5 19.0312M20.75 13.1875C21.9261 13.1875 22.9161 14.0678 23.0535 15.2359L23.5 19.0312" stroke="#5D0A8F" stroke-width="1.03125" stroke-linecap="round"/>
<circle cx="18" cy="8.375" r="2.75" stroke="#5D0A8F" stroke-width="1.03125"/>
<path d="M10.2523 15.7042H9.97643C10.0456 15.6562 10.1104 15.6008 10.1692 15.5381C10.4933 15.1927 10.589 14.6853 10.4129 14.2452C10.4117 14.2424 10.4099 14.24 10.4087 14.2372C10.4054 14.23 10.4017 14.223 10.3977 14.2162C10.3942 14.2102 10.3907 14.2043 10.3867 14.1988C10.3825 14.1928 10.3777 14.1873 10.3729 14.1817C10.3682 14.1764 10.3635 14.1712 10.3584 14.1664C10.3531 14.1614 10.3474 14.1569 10.3416 14.1524C10.336 14.1481 10.3304 14.1439 10.3244 14.1402C10.3183 14.1364 10.3119 14.133 10.3054 14.1298C10.2987 14.1265 10.2921 14.1234 10.2852 14.1208C10.282 14.1196 10.2793 14.1178 10.2761 14.1168C9.86282 13.9807 9.40756 14.0781 9.08473 14.3627V13.4083C9.18289 13.3774 9.27546 13.3295 9.35404 13.2612C9.42454 13.2 9.5727 13.0398 9.59223 12.767C9.80243 12.837 9.97109 12.7839 10.0617 12.7393C10.3954 12.5749 10.5633 12.1127 10.4283 11.7302C10.3965 11.6402 10.3018 11.4382 10.0656 11.3192C10.1704 11.1653 10.1699 11.0102 10.1566 10.9204C10.0995 10.5361 9.65492 10.2011 9.24374 10.232C9.16261 10.2379 8.98104 10.2696 8.83321 10.4254C8.68526 10.2696 8.50381 10.2379 8.42268 10.232C8.01139 10.2013 7.5668 10.536 7.50975 10.9204C7.49641 11.0102 7.49587 11.1653 7.60075 11.3192C7.36463 11.4383 7.26972 11.6403 7.23805 11.7302C7.10301 12.1127 7.27091 12.5749 7.60465 12.7393C7.69511 12.7838 7.86377 12.8371 8.07408 12.767C8.0936 13.0398 8.24176 13.2 8.31226 13.2612C8.40632 13.343 8.52041 13.3952 8.64047 13.4235V14.3626C8.31766 14.078 7.86244 13.9808 7.44923 14.1168C7.4465 14.1177 7.4442 14.1192 7.44154 14.1202C7.43353 14.1232 7.42586 14.1267 7.41825 14.1305C7.41261 14.1334 7.40708 14.1363 7.40177 14.1396C7.39505 14.1437 7.38875 14.1484 7.38247 14.1533C7.37728 14.1574 7.37217 14.1614 7.3674 14.1659C7.36187 14.171 7.35682 14.1766 7.35181 14.1824C7.34725 14.1876 7.34281 14.1929 7.33878 14.1985C7.33468 14.2042 7.33104 14.2103 7.32745 14.2164C7.32351 14.2232 7.31988 14.23 7.31667 14.2371C7.31541 14.24 7.31361 14.2423 7.31246 14.2452C7.13631 14.6853 7.23198 15.1927 7.55606 15.5381C7.61493 15.6008 7.67965 15.6562 7.74879 15.7042H6.6013C6.67048 15.6562 6.73523 15.6008 6.79411 15.5381C7.1182 15.1927 7.21386 14.6853 7.03772 14.2452C7.03658 14.2424 7.03479 14.24 7.03353 14.2372C7.03028 14.23 7.02656 14.223 7.02256 14.2162C7.01907 14.2102 7.01556 14.2043 7.01159 14.1988C7.00732 14.1928 7.0026 14.1873 6.99774 14.1817C6.99307 14.1764 6.98842 14.1712 6.98331 14.1664C6.97801 14.1614 6.97231 14.1569 6.9665 14.1524C6.96088 14.1481 6.95528 14.1439 6.9493 14.1402C6.9432 14.1364 6.9368 14.133 6.93027 14.1298C6.92362 14.1265 6.91697 14.1234 6.91002 14.1208C6.90689 14.1196 6.90416 14.1178 6.90095 14.1168C6.48759 13.9807 6.0324 14.0781 5.7096 14.3627V13.4159C5.8187 13.3859 5.92208 13.3363 6.00841 13.2612C6.07891 13.2 6.22707 13.0398 6.2466 12.767C6.45669 12.837 6.62546 12.7839 6.71602 12.7393C7.04976 12.5749 7.21766 12.1127 7.08262 11.7302C7.05084 11.6402 6.95616 11.4382 6.71993 11.3192C6.82481 11.1653 6.82427 11.0102 6.81093 10.9204C6.75398 10.5361 6.31005 10.2011 5.89811 10.232C5.81698 10.2379 5.63541 10.2696 5.48752 10.4254C5.33963 10.2696 5.15812 10.2379 5.07694 10.232C4.66576 10.2021 4.22112 10.536 4.16412 10.9204C4.15078 11.0102 4.15029 11.1653 4.25517 11.3192C4.019 11.4383 3.92415 11.6402 3.89242 11.7301C3.75738 12.1127 3.92528 12.5749 4.25908 12.7393C4.34943 12.7839 4.51781 12.8371 4.7285 12.767C4.74797 13.0398 4.89619 13.2 4.96658 13.2612C5.05293 13.3363 5.15631 13.3859 5.26539 13.4159V14.3627C4.94253 14.0781 4.48724 13.9809 4.07415 14.1168C4.07111 14.1178 4.06854 14.1195 4.06557 14.1206C4.05833 14.1233 4.05139 14.1265 4.04446 14.13C4.03813 14.1331 4.03193 14.1363 4.02601 14.14C4.0199 14.1439 4.01417 14.1481 4.00843 14.1526C4.00272 14.157 3.99711 14.1614 3.9919 14.1663C3.98669 14.1712 3.98196 14.1765 3.97721 14.1819C3.97242 14.1873 3.96778 14.1928 3.96357 14.1987C3.95953 14.2043 3.95595 14.2103 3.95241 14.2163C3.94848 14.2231 3.94482 14.2299 3.94161 14.237C3.94033 14.2399 3.9385 14.2423 3.93732 14.2452C3.76113 14.6853 3.85679 15.1928 4.18093 15.5381C4.23981 15.6008 4.30454 15.6562 4.37369 15.7042H3.25564C3.32482 15.6562 3.38958 15.6008 3.44848 15.5381C3.77262 15.1928 3.86829 14.6853 3.69209 14.2452C3.69092 14.2423 3.68908 14.2399 3.6878 14.237C3.68461 14.2299 3.68096 14.2231 3.67704 14.2164C3.67348 14.2103 3.6699 14.2043 3.66583 14.1986C3.66163 14.1928 3.65698 14.1873 3.65221 14.1819C3.64746 14.1765 3.64275 14.1712 3.63754 14.1663C3.63229 14.1613 3.62663 14.1569 3.62086 14.1525C3.6152 14.1481 3.60957 14.1439 3.60354 14.1401C3.59749 14.1363 3.59115 14.1331 3.58466 14.1298C3.57791 14.1265 3.57113 14.1233 3.56408 14.1207C3.56103 14.1195 3.55839 14.1178 3.55527 14.1168C3.14237 13.981 2.68687 14.0782 2.36402 14.3627V13.4159C2.47311 13.3859 2.57649 13.3363 2.66284 13.2612C2.73323 13.2 2.88144 13.0398 2.90091 12.767C3.11133 12.8371 3.27993 12.7839 3.37034 12.7393C3.70413 12.5749 3.87203 12.1127 3.73699 11.7301C3.70527 11.6402 3.61047 11.4382 3.3743 11.3192C3.47918 11.1653 3.47864 11.0102 3.4653 10.9204C3.4083 10.5361 2.96393 10.2011 2.55248 10.232C2.47129 10.2379 2.28978 10.2696 2.14189 10.4254C1.994 10.2696 1.81249 10.2379 1.73131 10.232C1.31931 10.2021 0.875485 10.536 0.818488 10.9204C0.805147 11.0102 0.804659 11.1653 0.909542 11.3192C0.673366 11.4383 0.578515 11.6402 0.54679 11.7301C0.411754 12.1127 0.579654 12.5749 0.913447 12.7393C1.0039 12.7839 1.17218 12.8371 1.38287 12.767C1.40234 13.0398 1.55055 13.2 1.62095 13.2612C1.7073 13.3363 1.81067 13.3859 1.91976 13.4159V14.3627C1.5969 14.0781 1.14161 13.9809 0.728519 14.1168C0.725421 14.1178 0.722804 14.1195 0.719781 14.1206C0.712704 14.1233 0.705911 14.1264 0.699132 14.1298C0.692645 14.1331 0.686293 14.1363 0.680239 14.1401C0.67426 14.1439 0.668668 14.1481 0.663055 14.1524C0.657211 14.1569 0.651483 14.1614 0.646162 14.1664C0.641051 14.1712 0.636407 14.1764 0.63173 14.1817C0.626876 14.1872 0.622165 14.1928 0.617901 14.1987C0.613888 14.2043 0.610335 14.2102 0.606817 14.2163C0.602865 14.2231 0.599198 14.2299 0.595978 14.237C0.594696 14.2399 0.592866 14.2423 0.591693 14.2452C0.415496 14.6853 0.51116 15.1928 0.8353 15.5381C0.894181 15.6008 0.958906 15.6562 1.02806 15.7042H0.722716C0.600045 15.7042 0.500585 15.8037 0.500585 15.9263V16.8753C0.500585 16.998 0.600045 17.0974 0.722716 17.0974H1.01399V19.1529C1.01399 19.2756 1.11345 19.375 1.23612 19.375H9.73898C9.86165 19.375 9.96111 19.2756 9.96111 19.1529V17.0974H10.2523C10.375 17.0974 10.4745 16.998 10.4745 16.8753V15.9263C10.4745 15.8037 10.375 15.7042 10.2523 15.7042ZM9.32584 14.7461C9.50769 14.5525 9.7761 14.4664 10.0331 14.5127C10.0957 14.7668 10.0271 15.0404 9.84538 15.2339C9.66361 15.4275 9.39457 15.5128 9.13738 15.4665C9.07503 15.213 9.14394 14.9398 9.32584 14.7461ZM8.60576 11.6749C8.60576 11.5496 8.70782 11.4476 8.83321 11.4476C8.95859 11.4476 9.06054 11.5496 9.06054 11.6749C9.06054 11.8003 8.95859 11.9023 8.83321 11.9023C8.70782 11.9023 8.60576 11.8003 8.60576 11.6749ZM10.0094 11.878C10.0728 12.0578 9.98312 12.2827 9.86523 12.3408C9.74716 12.3989 9.57094 12.286 9.39318 12.0449C9.46261 11.9401 9.50344 11.815 9.50453 11.6804C9.69729 11.6555 9.93645 11.6712 10.0094 11.878ZM9.27649 10.675C9.46489 10.6609 9.69635 10.8454 9.71707 10.9856C9.73467 11.1039 9.55194 11.1967 9.35356 11.2511C9.27669 11.1569 9.17461 11.0844 9.05795 11.0428C9.06869 10.8665 9.11862 10.6866 9.27649 10.675ZM8.38992 10.675C8.54779 10.6866 8.59772 10.8664 8.60845 11.0428C8.49175 11.0844 8.38964 11.1568 8.31275 11.2511C8.11437 11.1967 7.93163 11.1039 7.94924 10.9856C7.97006 10.8454 8.20109 10.6613 8.38992 10.675ZM7.80108 12.3408C7.68318 12.2827 7.59348 12.0578 7.65693 11.878C7.72987 11.6713 7.96894 11.6554 8.16178 11.6804C8.16287 11.815 8.2037 11.9401 8.27313 12.0449C8.09536 12.286 7.91905 12.399 7.80108 12.3408ZM8.63747 12.3173C8.69944 12.3362 8.76513 12.3466 8.83321 12.3466C8.90125 12.3466 8.96689 12.3362 9.02884 12.3173C9.17662 12.5918 9.19102 12.8143 9.0626 12.926C8.94243 13.0304 8.72388 13.0302 8.6037 12.926C8.47538 12.8143 8.48971 12.5918 8.63747 12.3173ZM7.69226 14.5127C7.94922 14.4663 8.21763 14.5524 8.39947 14.7461C8.58139 14.9398 8.65028 15.2131 8.58791 15.4666C8.33046 15.513 8.06172 15.4276 7.87993 15.2339C7.69824 15.0404 7.62966 14.7667 7.69226 14.5127ZM5.95071 14.7461C6.13254 14.5525 6.40103 14.4664 6.65792 14.5127C6.72052 14.7668 6.65193 15.0404 6.47025 15.2339C6.28856 15.4274 6.01993 15.5132 5.76229 15.4666C5.7 15.213 5.76889 14.9398 5.95071 14.7461ZM5.26013 11.6749C5.26013 11.5496 5.36214 11.4476 5.48752 11.4476C5.61291 11.4476 5.71491 11.5496 5.71491 11.6749C5.71491 11.8003 5.61291 11.9023 5.48752 11.9023C5.36214 11.9023 5.26013 11.8003 5.26013 11.6749ZM6.66374 11.878C6.72719 12.0578 6.63749 12.2827 6.5196 12.3408C6.40172 12.3989 6.22534 12.286 6.04755 12.0449C6.11698 11.9401 6.15781 11.815 6.1589 11.6804C6.35166 11.6555 6.59082 11.6712 6.66374 11.878ZM5.93075 10.675C6.1185 10.6609 6.35072 10.8454 6.37144 10.9856C6.38904 11.1039 6.20631 11.1967 6.00792 11.2511C5.93104 11.1568 5.82893 11.0844 5.71222 11.0428C5.72296 10.8664 5.77289 10.6866 5.93075 10.675ZM5.04429 10.675C5.20216 10.6866 5.25205 10.8665 5.26277 11.0428C5.1461 11.0844 5.044 11.1569 4.96711 11.2511C4.76876 11.1967 4.586 11.1039 4.60355 10.9856C4.62432 10.8454 4.8547 10.6613 5.04429 10.675ZM4.45539 12.3408C4.33755 12.2827 4.24791 12.0578 4.31136 11.878C4.38424 11.6713 4.62325 11.6554 4.81615 11.6804C4.81724 11.815 4.85807 11.9401 4.9275 12.0449C4.74971 12.2861 4.57352 12.399 4.45539 12.3408ZM5.29192 12.3174C5.35385 12.3363 5.41949 12.3466 5.48752 12.3466C5.55558 12.3466 5.62123 12.3363 5.68318 12.3173C5.83099 12.5918 5.84539 12.8143 5.71697 12.926C5.65718 12.9779 5.573 13.0039 5.48874 13.0041C5.48832 13.0041 5.48794 13.004 5.48752 13.004C5.4871 13.004 5.48672 13.0041 5.4863 13.0041C5.40203 13.0039 5.31787 12.9779 5.25812 12.926C5.12971 12.8143 5.14411 12.5918 5.29192 12.3174ZM4.31719 14.5127C4.57402 14.4664 4.84242 14.5524 5.02433 14.7461C5.20621 14.9398 5.2751 15.2131 5.21277 15.4666C4.95545 15.5132 4.68651 15.4275 4.5048 15.2339C4.32306 15.0404 4.25446 14.7668 4.31719 14.5127ZM2.60508 14.7461C2.78691 14.5524 3.05535 14.4664 3.31223 14.5127C3.37495 14.7668 3.30636 15.0404 3.12462 15.2339C2.94293 15.4274 2.6741 15.5132 2.41664 15.4666C2.35432 15.213 2.42321 14.9398 2.60508 14.7461ZM1.9145 11.6749C1.9145 11.5496 2.01651 11.4476 2.14189 11.4476C2.26727 11.4476 2.36928 11.5496 2.36928 11.6749C2.36928 11.8003 2.26727 11.9023 2.14189 11.9023C2.01651 11.9023 1.9145 11.8003 1.9145 11.6749ZM3.31806 11.878C3.38151 12.0578 3.29186 12.2827 3.17402 12.3408C3.05604 12.3988 2.87977 12.2861 2.70192 12.0449C2.77134 11.9401 2.81217 11.815 2.81327 11.6805C3.00621 11.6555 3.24512 11.6713 3.31806 11.878ZM2.58512 10.675C2.77331 10.6613 3.00504 10.8454 3.02586 10.9856C3.04342 11.1039 2.86065 11.1967 2.6623 11.2511C2.58541 11.1569 2.48332 11.0844 2.36664 11.0428C2.37736 10.8665 2.42726 10.6866 2.58512 10.675ZM1.69866 10.675C1.85653 10.6866 1.90642 10.8665 1.91714 11.0428C1.80047 11.0844 1.69837 11.1569 1.62148 11.2511C1.42313 11.1967 1.24037 11.1039 1.25792 10.9856C1.27875 10.8454 1.50836 10.6613 1.69866 10.675ZM1.10976 12.3408C0.99192 12.2827 0.902275 12.0578 0.965726 11.878C1.03861 11.6713 1.27763 11.6554 1.47052 11.6804C1.47161 11.815 1.51244 11.9401 1.58187 12.0449C1.4041 12.2861 1.22798 12.399 1.10976 12.3408ZM1.94629 12.3174C2.00822 12.3363 2.07386 12.3466 2.14189 12.3466C2.20992 12.3466 2.27556 12.3363 2.3375 12.3174C2.4853 12.5918 2.4997 12.8143 2.37129 12.926C2.31155 12.9779 2.22738 13.0039 2.14311 13.0041C2.14269 13.0041 2.14231 13.004 2.14189 13.004C2.14148 13.004 2.14109 13.0041 2.14068 13.0041C2.0564 13.0039 1.97224 12.9779 1.91249 12.926C1.78408 12.8143 1.79848 12.5918 1.94629 12.3174ZM0.971563 14.5127C1.22839 14.4664 1.49678 14.5524 1.6787 14.7461C1.86058 14.9398 1.92947 15.2131 1.86714 15.4666C1.60971 15.5132 1.34085 15.4275 1.15917 15.2339C0.977426 15.0404 0.908831 14.7668 0.971563 14.5127ZM9.51684 18.9308H1.45825V17.0974H9.51684V18.9308ZM10.0302 16.6532H9.73898H1.23612H0.944847V16.1485H10.0302V16.6532Z" fill="#5D0A8F"/>
</g>
<defs>
<clipPath id="clip0_972_8740">
<rect width="24" height="24" fill="white" transform="translate(0.5 0.5)"/>
</clipPath>
</defs>
</svg>
