<svg width="16" height="16" viewBox="0 0 16 16" fill="none" xmlns="http://www.w3.org/2000/svg">
<g clip-path="url(#clip0_733_7275)">
<circle cx="7.99967" cy="7.99998" r="6.66667" stroke="#B8B5BA" stroke-width="1.5"/>
<path d="M8 11.3333V11.6666V12" stroke="#B8B5BA" stroke-width="1.5" stroke-linecap="round"/>
<path d="M8 4V4.33333V4.66667" stroke="#B8B5BA" stroke-width="1.5" stroke-linecap="round"/>
<path d="M9.25 6.33335C9.25 6.74757 9.58579 7.08335 10 7.08335C10.4142 7.08335 10.75 6.74757 10.75 6.33335H9.25ZM6.75 9.66669C6.75 9.25247 6.41421 8.91669 6 8.91669C5.58579 8.91669 5.25 9.25247 5.25 9.66669H6.75ZM8 7.25002C7.1758 7.25002 6.75 6.71739 6.75 6.33335H5.25C5.25 7.79027 6.61506 8.75002 8 8.75002V7.25002ZM6.75 6.33335C6.75 5.94932 7.1758 5.41669 8 5.41669V3.91669C6.61506 3.91669 5.25 4.87644 5.25 6.33335H6.75ZM8 5.41669C8.8242 5.41669 9.25 5.94932 9.25 6.33335H10.75C10.75 4.87644 9.38494 3.91669 8 3.91669V5.41669ZM8 8.75002C8.8242 8.75002 9.25 9.28265 9.25 9.66669H10.75C10.75 8.20977 9.38494 7.25002 8 7.25002V8.75002ZM9.25 9.66669C9.25 10.0507 8.8242 10.5834 8 10.5834V12.0834C9.38494 12.0834 10.75 11.1236 10.75 9.66669H9.25ZM8 10.5834C7.1758 10.5834 6.75 10.0507 6.75 9.66669H5.25C5.25 11.1236 6.61506 12.0834 8 12.0834V10.5834Z" fill="#B8B5BA"/>
</g>
<defs>
<clipPath id="clip0_733_7275">
<rect width="16" height="16" fill="white"/>
</clipPath>
</defs>
</svg>
