<svg width="24" height="24" viewBox="0 0 24 24" fill="none" xmlns="http://www.w3.org/2000/svg">
<g id="Linear / Arrows Action / Download Minimalistic">
<path id="Vector" d="M15 21C17.8284 21 19.2426 21 20.1213 20.1213C21 19.2426 21 17.8284 21 15V9C21 6.17157 21 4.75736 20.1213 3.87868C19.2426 3 17.8284 3 15 3" stroke="#1C274C" stroke-width="1.5" stroke-linecap="round" stroke-linejoin="round"/>
<path id="Vector_2" d="M3 12.75C2.58579 12.75 2.25 12.4142 2.25 12C2.25 11.5858 2.58579 11.25 3 11.25V12.75ZM16 12L16.5061 11.4465C16.6615 11.5886 16.75 11.7894 16.75 12C16.75 12.2106 16.6615 12.4114 16.5061 12.5535L16 12ZM11.1189 8.55352C10.8132 8.27402 10.792 7.79962 11.0715 7.49392C11.351 7.18822 11.8254 7.16698 12.1311 7.44648L11.1189 8.55352ZM12.1311 16.5535C11.8254 16.833 11.351 16.8118 11.0715 16.5061C10.792 16.2004 10.8132 15.726 11.1189 15.4465L12.1311 16.5535ZM3 11.25L16 11.25V12.75L3 12.75V11.25ZM15.4939 12.5535L11.1189 8.55352L12.1311 7.44648L16.5061 11.4465L15.4939 12.5535ZM16.5061 12.5535L12.1311 16.5535L11.1189 15.4465L15.4939 11.4465L16.5061 12.5535Z" fill="#1C274C"/>
</g>
</svg>
