<svg width="24" height="24" viewBox="0 0 16 16" fill="none" xmlns="http://www.w3.org/2000/svg">
<path d="M1.33301 8.00002C1.33301 5.48586 1.33301 4.22878 2.11406 3.44774C2.89511 2.66669 4.15218 2.66669 6.66634 2.66669H9.33301C11.8472 2.66669 13.1042 2.66669 13.8853 3.44774C14.6663 4.22878 14.6663 5.48586 14.6663 8.00002C14.6663 10.5142 14.6663 11.7713 13.8853 12.5523C13.1042 13.3334 11.8472 13.3334 9.33301 13.3334H6.66634C4.15218 13.3334 2.89511 13.3334 2.11406 12.5523C1.33301 11.7713 1.33301 10.5142 1.33301 8.00002Z" stroke="#B8B5BA" stroke-width="1.5"/>
<path d="M4 5.33331L5.43926 6.5327C6.66369 7.55305 7.2759 8.06323 8 8.06323C8.7241 8.06323 9.33631 7.55305 10.5607 6.5327L12 5.33331" stroke="#B8B5BA" stroke-width="1.5" stroke-linecap="round"/>
</svg>
