<svg width="21" height="23" viewBox="0 0 21 23" fill="none" xmlns="http://www.w3.org/2000/svg">
<path fill-rule="evenodd" clip-rule="evenodd" d="M2.33365 8.58341C2.33406 7.31758 2.62873 6.06918 3.19437 4.93677C3.76001 3.80436 4.58115 2.81893 5.59295 2.05829C6.60475 1.29766 7.77952 0.782636 9.02451 0.553888C10.2695 0.32514 11.5506 0.388928 12.7667 0.740218C13.9828 1.09151 15.1006 1.72068 16.0319 2.57806C16.9631 3.43545 17.6823 4.49757 18.1326 5.68057C18.583 6.86357 18.7522 8.13507 18.6269 9.39467C18.5015 10.6543 18.0851 11.8675 17.4105 12.9386L20.592 18.4476C20.6759 18.5932 20.7161 18.76 20.7077 18.9279C20.6993 19.0957 20.6428 19.2577 20.5448 19.3943C20.4469 19.5309 20.3117 19.6364 20.1553 19.6981C19.999 19.7599 19.8282 19.7753 19.6633 19.7426L16.6113 19.1359L15.6103 22.0829C15.5563 22.2423 15.4575 22.3827 15.3257 22.4873C15.194 22.5919 15.0348 22.6564 14.8674 22.6729C14.7 22.6894 14.5313 22.6572 14.3817 22.5803C14.232 22.5034 14.1077 22.385 14.0236 22.2392L10.8503 16.7431C10.6171 16.7529 10.3835 16.7529 10.1503 16.7431L6.97698 22.2392C6.89311 22.385 6.76898 22.5036 6.61948 22.5807C6.46997 22.6577 6.30141 22.6901 6.13399 22.6738C5.96657 22.6576 5.80738 22.5934 5.67549 22.489C5.54359 22.3847 5.44458 22.2445 5.39031 22.0852L4.38581 19.1452L1.33615 19.7437C1.17136 19.7762 1.00072 19.7606 0.844581 19.6987C0.688446 19.6368 0.553421 19.5313 0.455626 19.3947C0.357831 19.2582 0.3014 19.0964 0.293069 18.9286C0.284739 18.7609 0.324862 18.5943 0.408647 18.4487L3.59015 12.9386C2.76681 11.6354 2.33103 10.1249 2.33365 8.58341ZM4.76731 14.3992C5.75157 15.3712 6.9668 16.077 8.29881 16.4502L6.42398 19.6971L5.79398 17.8549C5.72547 17.6548 5.5868 17.4863 5.40363 17.3806C5.22046 17.2748 5.00519 17.239 4.79765 17.2797L2.88781 17.6554L4.76731 14.3992ZM12.7018 16.4502L14.5743 19.6924L15.2008 17.8479C15.2689 17.6469 15.4078 17.4775 15.5915 17.3713C15.7752 17.265 15.9913 17.2292 16.1995 17.2704L18.1105 17.6507L16.2333 14.3992C15.249 15.3712 14.0338 16.077 12.7018 16.4502ZM10.5003 4.79174C9.4947 4.79174 8.53028 5.19122 7.8192 5.9023C7.10813 6.61337 6.70865 7.5778 6.70865 8.58341C6.70865 9.58902 7.10813 10.5534 7.8192 11.2645C8.53028 11.9756 9.4947 12.3751 10.5003 12.3751C11.5059 12.3751 12.4704 11.9756 13.1814 11.2645C13.8925 10.5534 14.292 9.58902 14.292 8.58341C14.292 7.5778 13.8925 6.61337 13.1814 5.9023C12.4704 5.19122 11.5059 4.79174 10.5003 4.79174Z" fill="#3D0A5C"/>
</svg>
