<svg width="16" height="16" viewBox="0 0 16 16" fill="none" xmlns="http://www.w3.org/2000/svg">
<path d="M2.18294 10.1971C1.61632 9.461 1.33301 9.09294 1.33301 8.00002C1.33301 6.9071 1.61632 6.53904 2.18294 5.80291C3.31432 4.33306 5.21175 2.66669 7.99968 2.66669C10.7876 2.66669 12.685 4.33306 13.8164 5.80291C14.383 6.53904 14.6663 6.9071 14.6663 8.00002C14.6663 9.09294 14.383 9.461 13.8164 10.1971C12.685 11.667 10.7876 13.3334 7.99968 13.3334C5.21175 13.3334 3.31432 11.667 2.18294 10.1971Z" stroke="#B8B5BA" stroke-width="1.5"/>
<path d="M10 8C10 9.10457 9.10457 10 8 10C6.89543 10 6 9.10457 6 8C6 6.89543 6.89543 6 8 6C9.10457 6 10 6.89543 10 8Z" stroke="#B8B5BA" stroke-width="1.5"/>
</svg>
