<svg width="16" height="16" viewBox="0 0 16 16" fill="none" xmlns="http://www.w3.org/2000/svg">
<path d="M2.02237 4.37131C1.8592 3.99059 1.41829 3.81422 1.03757 3.97739C0.656846 4.14056 0.480482 4.58147 0.643649 4.96219L2.02237 4.37131ZM10.3911 8.88588L10.1164 8.188L10.1164 8.188L10.3911 8.88588ZM6.23685 9.29492C6.46276 8.94773 6.36444 8.48315 6.01726 8.25724C5.67007 8.03134 5.20548 8.12965 4.97958 8.47684L6.23685 9.29492ZM4.0377 9.92438C3.8118 10.2716 3.91011 10.7361 4.2573 10.9621C4.60449 11.188 5.06907 11.0896 5.29498 10.7425L4.0377 9.92438ZM15.3557 4.96219C15.5189 4.58147 15.3425 4.14056 14.9618 3.97739C14.5811 3.81422 14.1401 3.99059 13.977 4.37131L15.3557 4.96219ZM12.6663 7.41931L12.1531 6.87246H12.1531L12.6663 7.41931ZM13.136 8.94964C13.4289 9.24253 13.9038 9.24253 14.1967 8.94964C14.4896 8.65674 14.4896 8.18187 14.1967 7.88898L13.136 8.94964ZM7.24967 11.0001C7.24967 11.4143 7.58546 11.7501 7.99967 11.7501C8.41389 11.7501 8.74967 11.4143 8.74967 11.0001H7.24967ZM10.7044 10.7425C10.9303 11.0896 11.3949 11.188 11.742 10.9621C12.0892 10.7361 12.1876 10.2716 11.9616 9.92438L10.7044 10.7425ZM3.86334 7.94964C4.15623 7.65674 4.15623 7.18187 3.86334 6.88898C3.57044 6.59608 3.09557 6.59608 2.80268 6.88898L3.86334 7.94964ZM1.80268 7.88898C1.50978 8.18187 1.50978 8.65674 1.80268 8.94964C2.09557 9.24253 2.57044 9.24253 2.86334 8.94964L1.80268 7.88898ZM7.99967 8.58341C5.94245 8.58341 4.461 7.56135 3.46594 6.48974C2.96863 5.95418 2.60334 5.41625 2.36289 5.0123C2.24309 4.81104 2.15545 4.645 2.09888 4.53186C2.07062 4.47534 2.0502 4.4322 2.03748 4.40466C2.03112 4.39089 2.0267 4.38104 2.02418 4.37538C2.02292 4.37256 2.02215 4.37078 2.02184 4.37009C2.02169 4.36974 2.02166 4.36967 2.02175 4.36987C2.02179 4.36997 2.02187 4.37014 2.02197 4.37038C2.02202 4.3705 2.02212 4.37073 2.02215 4.37079C2.02225 4.37104 2.02237 4.37131 1.33301 4.66675C0.643649 4.96219 0.643779 4.96249 0.643916 4.96281C0.643972 4.96294 0.644118 4.96328 0.644231 4.96354C0.644456 4.96406 0.644713 4.96466 0.645001 4.96533C0.645577 4.96666 0.646279 4.96827 0.647107 4.97017C0.648763 4.97397 0.650925 4.97888 0.653594 4.98489C0.658932 4.99689 0.666304 5.01324 0.675733 5.03366C0.694587 5.07447 0.721695 5.13159 0.75724 5.20268C0.828273 5.34475 0.933339 5.54329 1.07395 5.77953C1.35434 6.25058 1.78072 6.87932 2.36675 7.51042C3.53835 8.77214 5.39023 10.0834 7.99967 10.0834V8.58341ZM10.1164 8.188C9.49735 8.43168 8.79473 8.58341 7.99967 8.58341V10.0834C8.99123 10.0834 9.87981 9.89315 10.6658 9.58377L10.1164 8.188ZM4.97958 8.47684L4.0377 9.92438L5.29498 10.7425L6.23685 9.29492L4.97958 8.47684ZM14.6663 4.66675C13.977 4.37131 13.977 4.37115 13.9771 4.37101C13.9771 4.37096 13.9772 4.37082 13.9772 4.37074C13.9773 4.37057 13.9774 4.37042 13.9774 4.3703C13.9775 4.37005 13.9776 4.36989 13.9776 4.36981C13.9777 4.36966 13.9776 4.36985 13.9774 4.37039C13.9769 4.37145 13.9758 4.37388 13.9742 4.37761C13.9708 4.38507 13.9651 4.39776 13.9569 4.41527C13.9406 4.45032 13.9146 4.50459 13.8787 4.57495C13.8069 4.71584 13.6959 4.92022 13.5444 5.16334C13.2401 5.65173 12.7795 6.28447 12.1531 6.87246L13.1796 7.96616C13.9256 7.26599 14.4649 6.52245 14.8175 5.9566C14.9945 5.6726 15.1263 5.43037 15.215 5.25643C15.2594 5.16938 15.2931 5.09917 15.3164 5.0491C15.3281 5.02406 15.3372 5.00402 15.3437 4.98941C15.347 4.9821 15.3496 4.97614 15.3516 4.97159C15.3526 4.96931 15.3535 4.96739 15.3541 4.96582C15.3545 4.96503 15.3548 4.96434 15.355 4.96373C15.3552 4.96343 15.3553 4.96315 15.3554 4.96289C15.3555 4.96276 15.3555 4.96259 15.3556 4.96252C15.3556 4.96235 15.3557 4.96219 14.6663 4.66675ZM12.1531 6.87246C11.5983 7.39312 10.922 7.87093 10.1164 8.188L10.6658 9.58377C11.6836 9.18316 12.5172 8.58789 13.1796 7.96616L12.1531 6.87246ZM12.136 7.94964L13.136 8.94964L14.1967 7.88898L13.1967 6.88898L12.136 7.94964ZM7.24967 9.33342V11.0001H8.74967V9.33342H7.24967ZM9.7625 9.29492L10.7044 10.7425L11.9616 9.92438L11.0198 8.47684L9.7625 9.29492ZM2.80268 6.88898L1.80268 7.88898L2.86334 8.94964L3.86334 7.94964L2.80268 6.88898Z" fill="#B8B5BA"/>
</svg>
