<svg width="24" height="14" viewBox="0 0 24 14" fill="none" xmlns="http://www.w3.org/2000/svg">
<path fill-rule="evenodd" clip-rule="evenodd" d="M0.884466 13.0674H23.1161C23.255 13.0674 23.3687 13.1811 23.3687 13.32C23.3687 13.459 23.255 13.5727 23.1161 13.5727H0.884466C0.745516 13.5727 0.631836 13.459 0.631836 13.32C0.631836 13.1811 0.745516 13.0674 0.884466 13.0674Z" fill="#5D0A8F"/>
<path d="M14.6678 4.86539C15.7175 4.73659 16.446 3.63317 16.2949 2.40063C16.1438 1.16809 15.1703 0.273262 14.1206 0.401962C13.0708 0.530672 12.3424 1.63418 12.4935 2.86671C12.6446 4.09925 13.6181 4.99409 14.6678 4.86539Z" stroke="#5D0A8F" stroke-width="0.4" stroke-miterlimit="10"/>
<path fill-rule="evenodd" clip-rule="evenodd" d="M13.6246 5.81967C14.3268 5.25417 14.4229 5.07697 14.9787 5.01627C15.6305 4.94807 16.1863 5.26897 16.6309 5.68577C17.7652 6.75187 18.4953 6.91607 18.8894 6.71397C19.3391 6.48407 19.6372 5.65037 19.8873 4.78387C20.0212 4.31397 20.5088 4.04113 20.9787 4.17503C21.4486 4.30892 21.7189 4.79647 21.5875 5.26637C21.2288 6.51437 20.7361 7.74467 19.6928 8.28027C19.0233 8.62387 18.2124 8.65167 17.1968 8.17167C17.2801 9.29077 17.3206 10.3923 17.318 11.4736C17.318 11.9283 17.3079 12.3755 17.2953 12.8176H13.5159C13.5336 12.373 13.5437 11.9233 13.5437 11.4736C13.5437 10.3847 13.4983 9.25297 13.3972 8.07057C12.8086 8.31567 12.1947 8.41417 11.5909 8.39397C10.4641 8.35607 9.38034 7.89627 8.53908 7.21417C8.41529 7.11317 8.29908 7.00957 8.19044 6.90347C7.84181 6.56497 7.83423 6.00657 8.17276 5.65547C8.3016 5.52157 8.46329 5.44067 8.63002 5.40537C8.60981 5.22097 8.58202 5.03397 8.55171 4.84957C8.42539 4.09924 8.22329 3.35903 7.96055 2.66429C7.93529 2.59861 7.96813 2.52534 8.03381 2.50261C8.0995 2.47987 8.17023 2.51019 8.1955 2.57587C8.46329 3.28576 8.67297 4.04113 8.79929 4.80917C8.83213 5.00367 8.85992 5.19817 8.88013 5.39267C9.07466 5.41037 9.26666 5.49127 9.41571 5.63777C9.4915 5.71107 9.56728 5.77927 9.64808 5.84497C10.209 6.29967 10.9189 6.60537 11.6439 6.63057C12.3185 6.65337 12.7925 6.63057 13.6271 5.81457L13.6246 5.81967Z" stroke="#5D0A8F" stroke-width="0.4" stroke-miterlimit="10"/>
<path fill-rule="evenodd" clip-rule="evenodd" d="M4.21662 6.23328C3.81999 4.87658 3.21115 3.76251 2.47852 2.78735C3.22126 3.41893 3.81999 4.18187 4.27978 5.06358C4.08526 4.12882 3.7922 3.18145 3.39305 2.21387C4.11305 3.35577 4.80526 4.76288 5.11599 6.23068H4.21662V6.23328Z" fill="#5D0A8F"/>
<path fill-rule="evenodd" clip-rule="evenodd" d="M5.07279 3.61369C4.51195 3.72737 4.07995 3.32822 4.085 2.7699C4.08752 2.34295 4.26184 2.10043 4.11784 1.81495C4.00921 1.60022 4.36795 1.76443 4.47152 1.79222C4.54984 1.81495 4.60542 1.6179 4.66605 1.60527C4.72668 1.59264 4.853 1.75179 4.91868 1.70127C5.00458 1.63306 5.27237 1.34506 5.25468 1.58506C5.23195 1.90337 5.4871 2.06001 5.65637 2.45158C5.87616 2.96443 5.63363 3.50001 5.07279 3.61369Z" fill="#5D0A8F"/>
<path fill-rule="evenodd" clip-rule="evenodd" d="M4.98968 3.87099C4.97957 3.80278 5.02504 3.73709 5.09578 3.72699C5.16399 3.71688 5.22968 3.76235 5.23978 3.83057C5.33578 4.4293 5.40147 5.02547 5.43431 5.61917C5.44441 5.82387 5.45199 6.02847 5.45704 6.23057H5.20441C5.20189 6.03097 5.19431 5.83137 5.18168 5.63187C5.14883 5.04577 5.08568 4.45962 4.98968 3.87099Z" fill="#5D0A8F"/>
<path fill-rule="evenodd" clip-rule="evenodd" d="M6.12177 4.96316C6.14451 4.89746 6.21778 4.86205 6.28346 4.88485C6.34914 4.90755 6.38451 4.98085 6.36178 5.04645C6.22535 5.43305 6.10914 5.82965 6.01062 6.23135H5.75293C5.85399 5.79935 5.97778 5.37236 6.1243 4.96316H6.12177Z" fill="#5D0A8F"/>
<path fill-rule="evenodd" clip-rule="evenodd" d="M6.92021 3.72521C6.95558 3.66458 6.98337 3.60143 6.99853 3.53574C7.07179 3.26037 6.95558 3.10879 6.77369 3.06079C6.59179 3.01279 6.41495 3.08353 6.34169 3.3589C6.324 3.42206 6.31642 3.49279 6.31642 3.561C6.26842 3.51048 6.2179 3.46248 6.16232 3.42711C5.92232 3.27048 5.74295 3.33616 5.6419 3.49532C5.54084 3.65448 5.55348 3.84395 5.79095 3.99806C5.84653 4.03343 5.90969 4.06374 5.97537 4.08395C5.91221 4.11174 5.85158 4.14964 5.80105 4.19006C5.57874 4.36943 5.58632 4.56138 5.70505 4.70538C5.82379 4.85198 6.00821 4.89738 6.23053 4.71808C6.28105 4.67768 6.32905 4.62458 6.36948 4.56898C6.37705 4.63718 6.39221 4.70538 6.41495 4.76858C6.51853 5.03638 6.70042 5.08688 6.87726 5.01868C7.05411 4.95048 7.15516 4.78878 7.05158 4.52358C7.02884 4.4629 6.99348 4.40227 6.95305 4.34416C7.02127 4.35932 7.092 4.36437 7.15769 4.36185C7.44316 4.34669 7.54927 4.18753 7.53916 4.00058C7.52905 3.81364 7.40779 3.66711 7.12232 3.68227C7.05663 3.68732 6.98842 3.69995 6.92274 3.72016L6.92021 3.72521Z" fill="#5D0A8F"/>
<path fill-rule="evenodd" clip-rule="evenodd" d="M7.82901 0.915982C7.82395 0.845252 7.81132 0.777043 7.78858 0.716403C7.69511 0.446093 7.51322 0.387983 7.33637 0.448623C7.15953 0.509253 7.0509 0.668403 7.14437 0.938723C7.16458 1.00188 7.19743 1.06251 7.23785 1.12062C7.16964 1.10546 7.10143 1.09535 7.03574 1.09535C6.75027 1.1004 6.63911 1.25451 6.64164 1.44398C6.64416 1.63346 6.7629 1.78251 7.04837 1.77746C7.11406 1.77746 7.18227 1.76483 7.25048 1.74462C7.21258 1.80525 7.18479 1.8684 7.16458 1.93156C7.08122 2.2044 7.1949 2.35851 7.37427 2.41409C7.55364 2.46967 7.733 2.40398 7.81637 2.13114C7.83658 2.06798 7.84669 1.99977 7.84922 1.92904C7.89469 1.98209 7.94522 2.03009 7.99827 2.06798C8.23322 2.23219 8.41511 2.17156 8.52122 2.01746C8.62732 1.86335 8.62227 1.67135 8.38732 1.50967C8.33427 1.47177 8.27111 1.44146 8.20543 1.41619C8.27111 1.39093 8.33174 1.35556 8.38479 1.31514C8.61216 1.14335 8.61216 0.951353 8.49848 0.802303C8.38479 0.653253 8.20037 0.600193 7.97301 0.771983C7.91995 0.812403 7.87195 0.860402 7.82901 0.915982Z" fill="#5D0A8F"/>
<path fill-rule="evenodd" clip-rule="evenodd" d="M4.16899 6.36035H6.39215C6.57151 6.36035 6.6372 6.45385 6.6372 6.61805C6.6372 6.72915 6.59425 6.87825 6.5412 7.05255C6.44267 7.39105 6.30878 7.84325 6.45025 8.20955C6.9353 9.47025 7.1172 10.4808 7.1172 11.221C7.1172 11.6581 7.05404 12.0067 6.95046 12.2619C6.8393 12.5372 6.68015 12.7115 6.49825 12.7823C6.43762 12.805 6.37446 12.8176 6.31383 12.8176H4.24478C4.18162 12.8176 4.12099 12.805 4.06036 12.7823C3.87846 12.7115 3.7193 12.5372 3.60815 12.2619C3.50457 12.0067 3.44141 11.6581 3.44141 11.221C3.44141 10.4808 3.6233 9.47025 4.10836 8.20955C4.24983 7.84325 4.11594 7.39105 4.01741 7.05255C3.96688 6.87825 3.92141 6.72915 3.92141 6.61805C3.92141 6.45385 3.98709 6.36035 4.16646 6.36035H4.16899ZM6.39215 6.61295H4.16899C4.16899 6.61295 4.17657 6.61295 4.17657 6.61805C4.17657 6.69635 4.21446 6.82765 4.25994 6.98185C4.36857 7.35565 4.51509 7.85335 4.3433 8.30055C3.87088 9.52835 3.69404 10.5061 3.69404 11.221C3.69404 11.6252 3.74962 11.941 3.84057 12.1684C3.92394 12.3755 4.03257 12.5019 4.14878 12.5473C4.17909 12.56 4.20941 12.565 4.24225 12.565H6.3113C6.34415 12.565 6.37699 12.56 6.4073 12.5473C6.52351 12.5019 6.63215 12.3755 6.71551 12.1684C6.80646 11.941 6.86204 11.6252 6.86204 11.221C6.86204 10.5061 6.6852 9.52835 6.21278 8.30055C6.04099 7.85595 6.18751 7.35565 6.29615 6.98185C6.34162 6.82515 6.37951 6.69635 6.37951 6.61805C6.37951 6.61545 6.39215 6.61295 6.38709 6.61295H6.39215Z" fill="#5D0A8F"/>
</svg>
