<svg width="25" height="25" viewBox="0 0 25 25" fill="none" xmlns="http://www.w3.org/2000/svg">
<path d="M22.5 12.5C22.5 13.8132 22.2413 15.1136 21.7388 16.3268C21.2362 17.5401 20.4997 18.6425 19.5711 19.5711C18.6425 20.4997 17.5401 21.2362 16.3268 21.7388C15.1136 22.2413 13.8132 22.5 12.5 22.5C11.1868 22.5 9.88642 22.2413 8.67317 21.7388C7.45991 21.2362 6.35752 20.4997 5.42893 19.5711C4.50035 18.6425 3.76375 17.5401 3.2612 16.3268C2.75866 15.1136 2.5 13.8132 2.5 12.5C2.5 11.1868 2.75866 9.88642 3.26121 8.67316C3.76375 7.45991 4.50035 6.35752 5.42893 5.42893C6.35752 4.50035 7.45991 3.76375 8.67317 3.2612C9.88642 2.75866 11.1868 2.5 12.5 2.5C13.8132 2.5 15.1136 2.75866 16.3268 3.26121C17.5401 3.76375 18.6425 4.50035 19.5711 5.42893C20.4997 6.35752 21.2362 7.45991 21.7388 8.67317C22.2413 9.88642 22.5 11.1868 22.5 12.5L22.5 12.5Z" stroke="#5D0A8F" stroke-width="1.5"/>
<path d="M16.5 12.5C16.5 13.8132 16.3965 15.1136 16.1955 16.3268C15.9945 17.5401 15.6999 18.6425 15.3284 19.5711C14.957 20.4997 14.516 21.2362 14.0307 21.7388C13.5454 22.2413 13.0253 22.5 12.5 22.5C11.9747 22.5 11.4546 22.2413 10.9693 21.7388C10.484 21.2362 10.043 20.4997 9.67157 19.5711C9.30014 18.6425 9.0055 17.5401 8.80448 16.3268C8.60346 15.1136 8.5 13.8132 8.5 12.5C8.5 11.1868 8.60346 9.88642 8.80448 8.67316C9.0055 7.45991 9.30014 6.35752 9.67157 5.42893C10.043 4.50035 10.484 3.76375 10.9693 3.2612C11.4546 2.75866 11.9747 2.5 12.5 2.5C13.0253 2.5 13.5454 2.75866 14.0307 3.26121C14.516 3.76375 14.957 4.50035 15.3284 5.42893C15.6999 6.35752 15.9945 7.45991 16.1955 8.67317C16.3965 9.88642 16.5 11.1868 16.5 12.5L16.5 12.5Z" stroke="#5D0A8F" stroke-width="1.5"/>
<path d="M2.5 12.5H22.5" stroke="#5D0A8F" stroke-width="1.5" stroke-linecap="round"/>
</svg>
