<svg width="16" height="17" viewBox="0 0 16 17" fill="none" xmlns="http://www.w3.org/2000/svg">
<path d="M12.1266 15.89C11.947 15.89 11.7684 15.8349 11.6146 15.7251L7.99903 13.1322L4.38348 15.7251C4.23368 15.8328 4.05366 15.8905 3.86912 15.8899C3.68459 15.8893 3.50497 15.8303 3.35592 15.7215C3.20673 15.6134 3.09546 15.4609 3.03793 15.2858C2.98039 15.1107 2.97954 14.922 3.03548 14.7464L4.38392 10.3944L0.800811 7.86952C0.652314 7.75993 0.542031 7.60643 0.485562 7.43072C0.429094 7.25501 0.429297 7.066 0.486144 6.89041C0.54344 6.71525 0.654334 6.56253 0.803153 6.45382C0.951972 6.34512 1.13119 6.28594 1.31548 6.28463L5.75326 6.27797L7.16614 2.03397C7.22445 1.85913 7.33629 1.70708 7.48581 1.59932C7.63533 1.49157 7.81496 1.43359 7.99926 1.43359C8.18356 1.43359 8.36319 1.49157 8.51271 1.59932C8.66223 1.70708 8.77406 1.85913 8.83237 2.03397L10.2213 6.27797L14.6817 6.28463C14.8662 6.28568 15.0457 6.34483 15.1947 6.4537C15.3436 6.56256 15.4545 6.7156 15.5115 6.89108C15.5686 7.06655 15.5689 7.25554 15.5124 7.43118C15.4559 7.60683 15.3454 7.7602 15.1968 7.86952L11.6137 10.3944L12.9621 14.7464C13.0182 14.9219 13.0174 15.1107 12.96 15.2858C12.9025 15.4608 12.7913 15.6133 12.6421 15.7215C12.4926 15.8312 12.312 15.8902 12.1266 15.89Z" fill="#FFAC33"/>
</svg>
