<svg width="16" height="17" viewBox="0 0 16 17" fill="none" xmlns="http://www.w3.org/2000/svg">
<g id="Linear / Map &#38; Location / Map Point Wave">
<path id="Vector" d="M3.3335 6.1761C3.3335 3.77748 5.42283 1.83301 8.00016 1.83301C10.5775 1.83301 12.6668 3.77748 12.6668 6.1761C12.6668 8.55592 11.1774 11.333 8.85354 12.326C8.31181 12.5576 7.68851 12.5576 7.14679 12.326C4.82294 11.333 3.3335 8.55592 3.3335 6.1761Z" stroke="#A739EA" stroke-width="1.5"/>
<path id="Vector_2" d="M9.33317 6.50033C9.33317 7.23671 8.73622 7.83366 7.99984 7.83366C7.26346 7.83366 6.6665 7.23671 6.6665 6.50033C6.6665 5.76395 7.26346 5.16699 7.99984 5.16699C8.73622 5.16699 9.33317 5.76395 9.33317 6.50033Z" stroke="#A739EA" stroke-width="1.5"/>
<path id="Vector_3" d="M13.9739 10.833C14.4174 11.2347 14.6668 11.6874 14.6668 12.1663C14.6668 13.8232 11.6821 15.1663 8.00016 15.1663C4.31826 15.1663 1.3335 13.8232 1.3335 12.1663C1.3335 11.6874 1.58291 11.2347 2.02647 10.833" stroke="#A739EA" stroke-width="1.5" stroke-linecap="round"/>
</g>
</svg>
