<svg width="16" height="16" viewBox="0 0 16 16" fill="none" xmlns="http://www.w3.org/2000/svg">
<g clip-path="url(#clip0_776_1664)">
<path d="M6.89959 5.48073L6.36823 4.95143L6.36823 4.95143L6.89959 5.48073ZM10.1314 2.23642L10.6627 2.76573L10.6627 2.76573L10.1314 2.23642ZM13.9691 2.03365L13.4377 2.56295L13.9691 2.03365ZM6.16624 9.86264C6.45857 10.1561 6.93344 10.157 7.2269 9.8647C7.52036 9.57238 7.52128 9.0975 7.22896 8.80404L6.16624 9.86264ZM13.7671 5.88624L13.2357 5.35694L13.7671 5.88624ZM11.6198 6.97911C11.3275 7.27257 11.3284 7.74744 11.6219 8.03976C11.9154 8.33209 12.3902 8.33117 12.6826 8.03771L11.6198 6.97911ZM7.43094 6.01003L10.6627 2.76573L9.6 1.70712L6.36823 4.95143L7.43094 6.01003ZM10.6627 2.76573C11.5393 1.88577 12.7782 1.90092 13.4377 2.56295L14.5004 1.50435C13.1519 0.150637 10.9545 0.347358 9.6 1.70712L10.6627 2.76573ZM7.22896 8.80404C6.56729 8.1398 6.55341 6.89097 7.43095 6.01003L6.36823 4.95143C5.0147 6.31021 4.81996 8.51113 6.16624 9.86264L7.22896 8.80404ZM14.2984 6.41555C15.652 5.05676 15.8467 2.85586 14.5004 1.50435L13.4377 2.56295C14.0994 3.22719 14.1133 4.476 13.2357 5.35694L14.2984 6.41555ZM13.2357 5.35694L11.6198 6.97911L12.6826 8.03771L14.2984 6.41555L13.2357 5.35694Z" fill="#B8B5BA"/>
<path d="M9.10008 10.5192L8.56873 9.98994L8.56872 9.98994L9.10008 10.5192ZM5.86834 13.7636L6.39969 14.2929L6.39969 14.2929L5.86834 13.7636ZM2.03061 13.9663L1.49925 14.4956L1.49925 14.4956L2.03061 13.9663ZM9.83343 6.13735C9.5411 5.84389 9.06623 5.84297 8.77277 6.1353C8.47931 6.42763 8.47839 6.9025 8.77071 7.19596L9.83343 6.13735ZM2.2326 10.1137L1.70124 9.58442L2.2326 10.1137ZM4.37985 9.02085C4.67218 8.72739 4.67126 8.25252 4.3778 7.9602C4.08434 7.66787 3.60946 7.66879 3.31714 7.96225L4.37985 9.02085ZM7.48421 12.1414L8.01557 12.6707H8.01557L7.48421 12.1414ZM5.33698 13.2343C4.46042 14.1142 3.22144 14.0991 2.56197 13.437L1.49925 14.4956C2.84774 15.8494 5.04518 15.6526 6.39969 14.2929L5.33698 13.2343ZM8.77071 7.19596C9.43239 7.8602 9.44626 9.10899 8.56873 9.98994L9.63144 11.0485C10.985 9.68975 11.1797 7.48887 9.83343 6.13735L8.77071 7.19596ZM1.70124 9.58442C0.34771 10.9432 0.152967 13.1441 1.49925 14.4956L2.56197 13.437C1.90029 12.7728 1.88642 11.524 2.76396 10.643L1.70124 9.58442ZM2.76396 10.643L4.37985 9.02085L3.31714 7.96225L1.70124 9.58442L2.76396 10.643ZM8.56872 9.98994L6.95285 11.6121L8.01557 12.6707L9.63144 11.0485L8.56872 9.98994ZM6.95285 11.6121L5.33698 13.2343L6.39969 14.2929L8.01557 12.6707L6.95285 11.6121Z" fill="#B8B5BA"/>
</g>
<defs>
<clipPath id="clip0_776_1664">
<rect width="16" height="16" fill="white"/>
</clipPath>
</defs>
</svg>
