<svg width="24" height="25" viewBox="0 0 24 25" fill="none" xmlns="http://www.w3.org/2000/svg">
<path fill-rule="evenodd" clip-rule="evenodd" d="M8 7.5C8 5.29086 9.79086 3.5 12 3.5C14.2091 3.5 16 5.29086 16 7.5V11.5C16 13.7091 14.2091 15.5 12 15.5C9.79086 15.5 8 13.7091 8 11.5V7.5ZM12 5.5C10.8954 5.5 10 6.39543 10 7.5V11.5C10 12.6046 10.8954 13.5 12 13.5C13.1046 13.5 14 12.6046 14 11.5V7.5C14 6.39543 13.1046 5.5 12 5.5ZM6 8.5C6.55228 8.5 7 8.94772 7 9.5V11.5C7 14.2614 9.23858 16.5 12 16.5C14.7614 16.5 17 14.2614 17 11.5V9.5C17 8.94772 17.4477 8.5 18 8.5C18.5523 8.5 19 8.94772 19 9.5V11.5C19 15.0265 16.3923 17.9439 13 18.4291V20.5C13 21.0523 12.5523 21.5 12 21.5C11.4477 21.5 11 21.0523 11 20.5V18.4291C7.60771 17.9439 5 15.0265 5 11.5V9.5C5 8.94772 5.44772 8.5 6 8.5Z" fill="#979C9E"/>
</svg>
