<svg width="16" height="16" viewBox="0 0 16 16" fill="none" xmlns="http://www.w3.org/2000/svg">
<path d="M1.33301 7.99999C1.33301 5.48583 1.33301 4.22875 2.11406 3.44771C2.89511 2.66666 4.15218 2.66666 6.66634 2.66666H9.33301C11.8472 2.66666 13.1042 2.66666 13.8853 3.44771C14.6663 4.22875 14.6663 5.48583 14.6663 7.99999C14.6663 10.5141 14.6663 11.7712 13.8853 12.5523C13.1042 13.3333 11.8472 13.3333 9.33301 13.3333H6.66634C4.15218 13.3333 2.89511 13.3333 2.11406 12.5523C1.33301 11.7712 1.33301 10.5141 1.33301 7.99999Z" stroke="#B8B5BA" stroke-width="1.5"/>
<path d="M6.66667 10.6667H4" stroke="#B8B5BA" stroke-width="1.5" stroke-linecap="round"/>
<path d="M9.33301 10.6667H8.33301" stroke="#B8B5BA" stroke-width="1.5" stroke-linecap="round"/>
<path d="M1.33301 6.66666L14.6663 6.66666" stroke="#B8B5BA" stroke-width="1.5" stroke-linecap="round"/>
</svg>
