<svg width="20" height="20" viewBox="0 0 20 20" fill="none" xmlns="http://www.w3.org/2000/svg">
<path d="M13.5538 16.3363L7.79004 10.4801C7.66363 10.3523 7.59273 10.1798 7.59273 10.0001C7.59273 9.82032 7.66363 9.64783 7.79004 9.52006L13.5525 3.66381C13.6789 3.53524 13.7497 3.36219 13.7497 3.18193C13.7497 3.00167 13.6789 2.82862 13.5525 2.70006C13.4908 2.63675 13.4171 2.58643 13.3356 2.55208C13.2541 2.51772 13.1666 2.50002 13.0782 2.50002C12.9898 2.50002 12.9022 2.51772 12.8208 2.55208C12.7393 2.58643 12.6655 2.63675 12.6038 2.70006L6.84129 8.55506C6.46264 8.94071 6.25049 9.45959 6.25049 10.0001C6.25049 10.5405 6.46264 11.0594 6.84129 11.4451L12.6038 17.3001C12.6655 17.3636 12.7394 17.414 12.821 17.4485C12.9026 17.483 12.9902 17.5007 13.0788 17.5007C13.1674 17.5007 13.255 17.483 13.3366 17.4485C13.4182 17.414 13.4921 17.3636 13.5538 17.3001C13.6801 17.1715 13.7509 16.9984 13.7509 16.8182C13.7509 16.6379 13.6801 16.4649 13.5538 16.3363Z" fill="black"/>
</svg>
