<svg width="16" height="16" viewBox="0 0 16 16" fill="none" xmlns="http://www.w3.org/2000/svg">
<g clip-path="url(#clip0_234_13)">
<path d="M1.33301 10.6667C1.33301 8.78107 1.33301 7.83826 1.91879 7.25247C2.50458 6.66669 3.44739 6.66669 5.33301 6.66669H10.6663C12.552 6.66669 13.4948 6.66669 14.0806 7.25247C14.6663 7.83826 14.6663 8.78107 14.6663 10.6667C14.6663 12.5523 14.6663 13.4951 14.0806 14.0809C13.4948 14.6667 12.552 14.6667 10.6663 14.6667H5.33301C3.44739 14.6667 2.50458 14.6667 1.91879 14.0809C1.33301 13.4951 1.33301 12.5523 1.33301 10.6667Z" stroke="#B8B5BA" stroke-width="1.5"/>
<path d="M8 9.33331V12" stroke="#B8B5BA" stroke-width="1.5" stroke-linecap="round"/>
<path d="M4 6.66665V5.33331C4 3.12417 5.79086 1.33331 8 1.33331C10.2091 1.33331 12 3.12417 12 5.33331V6.66665" stroke="#B8B5BA" stroke-width="1.5" stroke-linecap="round"/>
</g>
<defs>
<clipPath id="clip0_234_13">
<rect width="16" height="16" fill="white"/>
</clipPath>
</defs>
</svg>
