<svg width="32" height="32" viewBox="0 0 32 32" fill="none" xmlns="http://www.w3.org/2000/svg">
<path d="M29.3334 12.3333H2.66675C2.12008 12.3333 1.66675 11.88 1.66675 11.3333C1.66675 10.7867 2.12008 10.3333 2.66675 10.3333H29.3334C29.8801 10.3333 30.3334 10.7867 30.3334 11.3333C30.3334 11.88 29.8801 12.3333 29.3334 12.3333Z" fill="#FEFEFE"/>
<path d="M10.6667 23H8C7.45333 23 7 22.5467 7 22C7 21.4533 7.45333 21 8 21H10.6667C11.2133 21 11.6667 21.4533 11.6667 22C11.6667 22.5467 11.2133 23 10.6667 23Z" fill="#FEFEFE"/>
<path d="M19.3333 23H14C13.4533 23 13 22.5467 13 22C13 21.4533 13.4533 21 14 21H19.3333C19.88 21 20.3333 21.4533 20.3333 22C20.3333 22.5467 19.88 23 19.3333 23Z" fill="#FEFEFE"/>
<path d="M23.4134 28.3333H8.58675C3.28008 28.3333 1.66675 26.7333 1.66675 21.48V10.52C1.66675 5.26667 3.28008 3.66667 8.58675 3.66667H23.4001C28.7067 3.66667 30.3201 5.26667 30.3201 10.52V21.4667C30.3334 26.7333 28.7201 28.3333 23.4134 28.3333ZM8.58675 5.66667C4.40008 5.66667 3.66675 6.38667 3.66675 10.52V21.4667C3.66675 25.6 4.40008 26.32 8.58675 26.32H23.4001C27.5867 26.32 28.3201 25.6 28.3201 21.4667V10.52C28.3201 6.38667 27.5867 5.66667 23.4001 5.66667H8.58675Z" fill="#FEFEFE"/>
</svg>
