<svg width="33" height="32" viewBox="0 0 33 32" fill="none" xmlns="http://www.w3.org/2000/svg">
<path d="M20.3535 24.2933H8.6335C7.94017 24.2933 7.28682 24.2267 6.70015 24.0933C6.39349 24.0533 6.02017 23.9466 5.6335 23.8C3.86017 23.1333 1.76685 21.4933 1.76685 17.4133V10.5466C1.76685 6.18663 4.2735 3.68001 8.6335 3.68001H20.3535C24.0335 3.68001 26.4068 5.43997 27.0468 8.63997C27.1668 9.22664 27.2202 9.85329 27.2202 10.5466V17.4133C27.2202 21.8 24.7268 24.2933 20.3535 24.2933ZM8.64681 5.7067C5.36681 5.7067 3.78015 7.29332 3.78015 10.5733V17.44C3.78015 19.8267 4.62017 21.2934 6.34017 21.9467C6.60684 22.04 6.86018 22.1066 7.10018 22.1466C7.60685 22.2533 8.10014 22.3066 8.64681 22.3066H20.3668C23.6468 22.3066 25.2335 20.72 25.2335 17.44V10.5733C25.2335 10.0133 25.1935 9.51998 25.1002 9.06665C24.6468 6.79998 23.1002 5.7067 20.3668 5.7067H8.64681Z" fill="#9747FF"/>
<path d="M24.3535 28.2933H12.6335C11.5002 28.2933 10.4869 28.1333 9.62019 27.7999C7.66019 27.0666 6.38018 25.52 5.94018 23.3066C5.87351 22.9733 5.98021 22.6266 6.22021 22.4C6.46021 22.16 6.80688 22.0666 7.14021 22.1466C7.58021 22.24 8.07354 22.2933 8.63354 22.2933H20.3535C23.6335 22.2933 25.2202 20.7067 25.2202 17.4267V10.56C25.2202 9.99996 25.1802 9.50662 25.0869 9.05329C25.0202 8.71995 25.1269 8.38663 25.3535 8.14663C25.5935 7.90663 25.9269 7.79995 26.2602 7.87995C29.4602 8.53328 31.2202 10.9066 31.2202 14.56V21.4267C31.2202 25.8 28.7269 28.2933 24.3535 28.2933ZM8.39355 24.2933C8.82021 25.0666 9.4602 25.6133 10.3402 25.9333C10.9802 26.1733 11.7535 26.2933 12.6468 26.2933H24.3669C27.6469 26.2933 29.2335 24.7067 29.2335 21.4267V14.56C29.2335 12.4533 28.5802 11.0533 27.2335 10.32C27.2335 10.4 27.2335 10.48 27.2335 10.56V17.4267C27.2335 21.7867 24.7269 24.2933 20.3669 24.2933H8.64684C8.55351 24.2933 8.47355 24.2933 8.39355 24.2933Z" fill="#9747FF"/>
<path d="M14.4998 18.52C12.0064 18.52 9.97974 16.4933 9.97974 14C9.97974 11.5067 12.0064 9.47998 14.4998 9.47998C16.9931 9.47998 19.0198 11.5067 19.0198 14C19.0198 16.4933 16.9931 18.52 14.4998 18.52ZM14.4998 11.48C13.1131 11.48 11.9797 12.6133 11.9797 14C11.9797 15.3867 13.1131 16.52 14.4998 16.52C15.8864 16.52 17.0198 15.3867 17.0198 14C17.0198 12.6133 15.8864 11.48 14.4998 11.48Z" fill="#9747FF"/>
<path d="M6.87378 17.9334C6.32711 17.9334 5.87378 17.4801 5.87378 16.9334V11.0667C5.87378 10.5201 6.32711 10.0667 6.87378 10.0667C7.42045 10.0667 7.87378 10.5201 7.87378 11.0667V16.9334C7.87378 17.4801 7.43378 17.9334 6.87378 17.9334Z" fill="#9747FF"/>
<path d="M22.1133 17.9334C21.5666 17.9334 21.1133 17.4801 21.1133 16.9334V11.0667C21.1133 10.5201 21.5666 10.0667 22.1133 10.0667C22.6599 10.0667 23.1133 10.5201 23.1133 11.0667V16.9334C23.1133 17.4801 22.6733 17.9334 22.1133 17.9334Z" fill="#9747FF"/>
</svg>
