<svg width="21" height="20" viewBox="0 0 21 20" fill="none" xmlns="http://www.w3.org/2000/svg">
<path d="M18.9577 8.74996V9.99996C18.9577 13.9283 18.9577 15.8925 17.7373 17.1129C16.5169 18.3333 14.5527 18.3333 10.6243 18.3333C6.69598 18.3333 4.73179 18.3333 3.5114 17.1129C2.29102 15.8925 2.29102 13.9283 2.29102 9.99996C2.29102 6.07159 2.29102 4.1074 3.5114 2.88701C4.73179 1.66663 6.69598 1.66663 10.6243 1.66663H11.8743" stroke="#3D0A5C" stroke-width="1.25" stroke-linecap="round"/>
<path d="M14.5011 2.87918L15.0417 2.3385C15.9376 1.44267 17.39 1.44267 18.2858 2.3385C19.1816 3.23432 19.1816 4.68675 18.2858 5.58257L17.7451 6.12325M14.5011 2.87918C14.5011 2.87918 14.5686 4.02812 15.5824 5.0419C16.5962 6.05567 17.7451 6.12325 17.7451 6.12325M14.5011 2.87918L9.53033 7.8499C9.19365 8.18658 9.02531 8.35492 8.88054 8.54053C8.70976 8.75948 8.56334 8.99639 8.44388 9.24706C8.34261 9.45955 8.26733 9.6854 8.11676 10.1371L7.6347 11.5833M17.7451 6.12325L12.7744 11.094C12.4377 11.4307 12.2694 11.599 12.0838 11.7438C11.8648 11.9145 11.6279 12.061 11.3773 12.1804C11.1648 12.2817 10.9389 12.357 10.4872 12.5075L9.04102 12.9896M9.04102 12.9896L8.10526 13.3015C7.88297 13.3756 7.6379 13.3178 7.47222 13.1521C7.30654 12.9864 7.24868 12.7413 7.32278 12.5191L7.6347 11.5833M9.04102 12.9896L7.6347 11.5833" stroke="#3D0A5C" stroke-width="1.25"/>
</svg>
