<svg width="15" height="14" viewBox="0 0 15 14" fill="none" xmlns="http://www.w3.org/2000/svg">
<path d="M9.73414 8.906L9.20532 8.37416L9.20532 8.37416L9.73414 8.906ZM10.0378 8.60409L10.5666 9.13593L10.5666 9.13593L10.0378 8.60409ZM11.6489 8.39292L11.2907 9.05185L11.2907 9.05185L11.6489 8.39292ZM12.9225 9.0853L12.5643 9.74423L12.5643 9.74423L12.9225 9.0853ZM13.2814 11.2553L13.8103 11.7871L13.8103 11.7871L13.2814 11.2553ZM12.3344 12.1969L11.8056 11.6651L11.8056 11.6651L12.3344 12.1969ZM11.4512 12.6434L11.5208 13.3902L11.5208 13.3902L11.4512 12.6434ZM4.87723 9.81769L5.40605 9.28585L4.87723 9.81769ZM1.66892 3.83038L0.920125 3.87294L0.920126 3.87294L1.66892 3.83038ZM5.98534 4.79824L6.51416 5.33007L6.51416 5.33007L5.98534 4.79824ZM6.08982 3.02897L6.69022 2.5795L6.69022 2.5795L6.08982 3.02897ZM5.24916 1.90603L4.64877 2.3555L4.64877 2.35551L5.24916 1.90603ZM3.17463 1.71653L3.70344 2.24837L3.70344 2.24837L3.17463 1.71653ZM2.12823 2.75699L1.59941 2.22515L1.59941 2.22515L2.12823 2.75699ZM7.04241 7.66481L7.57122 7.13297L7.04241 7.66481ZM10.263 9.43783L10.5666 9.13593L9.50895 8.07225L9.20532 8.37416L10.263 9.43783ZM11.2907 9.05185L12.5643 9.74423L13.2807 8.42637L12.0071 7.73399L11.2907 9.05185ZM12.7526 10.7235L11.8056 11.6651L12.8632 12.7288L13.8103 11.7871L12.7526 10.7235ZM11.3816 11.8966C10.4749 11.9812 8.05191 11.9167 5.40605 9.28585L4.34841 10.3495C7.36493 13.3489 10.2549 13.5082 11.5208 13.3902L11.3816 11.8966ZM5.40605 9.28585C2.86956 6.76376 2.46749 4.66369 2.41771 3.78783L0.920126 3.87294C0.990545 5.11203 1.54538 7.56241 4.34841 10.3495L5.40605 9.28585ZM6.32295 5.5202L6.51416 5.33007L5.45652 4.2664L5.26531 4.45652L6.32295 5.5202ZM6.69022 2.5795L5.84956 1.45656L4.64877 2.35551L5.48942 3.47844L6.69022 2.5795ZM2.64581 1.18469L1.59941 2.22515L2.65704 3.28883L3.70344 2.24837L2.64581 1.18469ZM5.79413 4.98836C5.26531 4.45652 5.2646 4.45723 5.26388 4.45794C5.26364 4.45819 5.26292 4.45891 5.26244 4.45939C5.26147 4.46037 5.26049 4.46136 5.25949 4.46237C5.25751 4.46439 5.25548 4.46647 5.2534 4.46863C5.24924 4.47294 5.24491 4.47754 5.24041 4.48242C5.23143 4.49218 5.22178 4.50309 5.21165 4.51519C5.19138 4.53938 5.16908 4.56836 5.14606 4.60234C5.09987 4.67051 5.05114 4.75829 5.0103 4.86666C4.92662 5.08877 4.88619 5.37062 4.93838 5.70701C5.03971 6.36016 5.47961 7.16853 6.51359 8.19664L7.57122 7.13297C6.6352 6.20226 6.45096 5.67242 6.42065 5.47705C6.40702 5.38918 6.4239 5.36919 6.41398 5.39553C6.41002 5.40602 6.40228 5.42243 6.38787 5.4437C6.38073 5.45424 6.37202 5.46589 6.36136 5.4786C6.35603 5.48497 6.3502 5.49161 6.34382 5.49854C6.34063 5.502 6.3373 5.50554 6.33383 5.50915C6.33209 5.51095 6.33031 5.51277 6.3285 5.51462C6.32759 5.51554 6.32668 5.51646 6.32575 5.51739C6.32529 5.51786 6.32459 5.51856 6.32436 5.51879C6.32365 5.51949 6.32295 5.5202 5.79413 4.98836ZM6.51359 8.19664C7.54808 9.22526 8.35987 9.66106 9.01332 9.76129C9.34947 9.81285 9.63074 9.77291 9.85239 9.69034C9.96062 9.65002 10.0484 9.60186 10.1167 9.55612C10.1507 9.53333 10.1798 9.51123 10.204 9.49112C10.2162 9.48107 10.2271 9.4715 10.2369 9.46257C10.2418 9.45811 10.2464 9.4538 10.2508 9.44967C10.253 9.44761 10.255 9.44559 10.2571 9.44362C10.2581 9.44263 10.2591 9.44165 10.2601 9.44069C10.2606 9.44021 10.2613 9.43949 10.2615 9.43925C10.2622 9.43854 10.263 9.43783 9.73414 8.906C9.20532 8.37416 9.20603 8.37346 9.20673 8.37276C9.20696 8.37253 9.20767 8.37183 9.20814 8.37137C9.20907 8.37045 9.21 8.36954 9.21093 8.36864C9.21278 8.36684 9.21461 8.36507 9.21643 8.36334C9.22006 8.35989 9.22361 8.35659 9.22708 8.35342C9.23404 8.34709 9.2407 8.34131 9.24707 8.33603C9.25981 8.32548 9.27142 8.31689 9.28188 8.30989C9.30299 8.29575 9.31899 8.28834 9.32878 8.2847C9.35354 8.27547 9.33126 8.29251 9.24073 8.27863C9.04081 8.24796 8.50673 8.06317 7.57122 7.13297L6.51359 8.19664ZM5.84956 1.45656C5.08457 0.434699 3.57164 0.264121 2.64581 1.18469L3.70344 2.24837C3.94363 2.00955 4.39646 2.01848 4.64877 2.3555L5.84956 1.45656ZM2.41771 3.78783C2.40978 3.64838 2.47166 3.47316 2.65704 3.28883L1.59941 2.22515C1.20663 2.6157 0.881069 3.1857 0.920125 3.87294L2.41771 3.78783ZM11.8056 11.6651C11.6512 11.8187 11.506 11.885 11.3816 11.8966L11.5208 13.3902C12.0836 13.3377 12.5361 13.0541 12.8632 12.7288L11.8056 11.6651ZM6.51416 5.33007C7.26314 4.58534 7.31413 3.4129 6.69022 2.5795L5.48942 3.47844C5.68743 3.74294 5.6496 4.07441 5.45652 4.2664L6.51416 5.33007ZM12.5643 9.74423C12.9732 9.96649 13.0104 10.4671 12.7526 10.7235L13.8103 11.7871C14.8309 10.7722 14.5077 9.09338 13.2807 8.42637L12.5643 9.74423ZM10.5666 9.13593C10.7407 8.96278 11.0317 8.91104 11.2907 9.05185L12.0071 7.73399C11.192 7.2909 10.1743 7.41069 9.50895 8.07225L10.5666 9.13593Z" fill="#B8B5BA"/>
</svg>
