<svg width="22" height="22" viewBox="0 0 22 22" fill="none" xmlns="http://www.w3.org/2000/svg">
<circle cx="11.0002" cy="11" r="9.16667" stroke="#A739EA" stroke-width="1.5"/>
<path d="M8.25 8.44539H7.5H8.25ZM9.80237 7.47467L9.42106 8.12051L9.80237 7.47467ZM9.80237 14.5253L10.1837 15.1712L9.80237 14.5253ZM8.25 13.5546H9H8.25ZM14.1292 11.9707L13.7479 11.3249L14.1292 11.9707ZM14.1292 10.0293L13.7479 10.6751L14.1292 10.0293ZM13.7479 11.3249L9.42106 13.8795L10.1837 15.1712L14.5105 12.6166L13.7479 11.3249ZM9 13.5546L9 8.44539L7.5 8.44539L7.5 13.5546H9ZM9.42106 8.12051L13.7479 10.6751L14.5105 9.38344L10.1837 6.82883L9.42106 8.12051ZM9 8.44539C9 8.2854 9.0767 8.17797 9.16265 8.12422C9.24495 8.07276 9.33239 8.06815 9.42106 8.12051L10.1837 6.82883C8.91841 6.08181 7.5 7.09986 7.5 8.44539L9 8.44539ZM9.42106 13.8795C9.33239 13.9318 9.24495 13.9272 9.16265 13.8758C9.07669 13.822 9 13.7146 9 13.5546H7.5C7.5 14.9001 8.91841 15.9182 10.1837 15.1712L9.42106 13.8795ZM14.5105 12.6166C15.7187 11.9032 15.7187 10.0968 14.5105 9.38344L13.7479 10.6751C13.848 10.7342 13.9167 10.8493 13.9167 11C13.9167 11.1507 13.848 11.2658 13.7479 11.3249L14.5105 12.6166Z" fill="#A739EA"/>
</svg>
