<svg width="25" height="21" viewBox="0 0 25 21" fill="none" xmlns="http://www.w3.org/2000/svg">
<path d="M20.6663 7.16699C21.5946 7.16699 22.4848 7.53574 23.1412 8.19212C23.7976 8.8485 24.1663 9.73874 24.1663 10.667V14.167C24.1663 15.0953 23.7976 15.9855 23.1412 16.6419C22.4848 17.2982 21.5946 17.667 20.6663 17.667V18.794C20.6663 20.0307 19.2243 20.7062 18.2747 19.914L15.5773 17.667H12.4997C11.5714 17.667 10.6812 17.2982 10.0248 16.6419C9.36842 15.9855 8.99967 15.0953 8.99967 14.167V10.667C8.99967 9.73874 9.36842 8.8485 10.0248 8.19212C10.6812 7.53574 11.5714 7.16699 12.4997 7.16699H20.6663ZM17.1663 0.166992C18.0946 0.166992 18.9848 0.535741 19.6412 1.19212C20.2976 1.8485 20.6663 2.73873 20.6663 3.66699V4.83366H11.333C10.0953 4.83366 8.90835 5.32532 8.03318 6.20049C7.15801 7.07566 6.66634 8.26265 6.66634 9.50033V14.167C6.66634 15.385 7.13301 16.4957 7.89834 17.3263L6.66634 18.2503C5.70501 18.9713 4.33301 18.2853 4.33301 17.0837V15.3337C3.40475 15.3337 2.51451 14.9649 1.85813 14.3085C1.20176 13.6522 0.833008 12.7619 0.833008 11.8337V3.66699C0.833008 2.73873 1.20176 1.8485 1.85813 1.19212C2.51451 0.535741 3.40475 0.166992 4.33301 0.166992H17.1663Z" fill="#3D0A5C"/>
</svg>
