<svg width="24" height="25" viewBox="0 0 24 25" fill="none" xmlns="http://www.w3.org/2000/svg">
<path fill-rule="evenodd" clip-rule="evenodd" d="M4 10.5C4 7.18629 6.68629 4.5 10 4.5C13.3137 4.5 16 7.18629 16 10.5C16 13.8137 13.3137 16.5 10 16.5C6.68629 16.5 4 13.8137 4 10.5ZM10 2.5C5.58172 2.5 2 6.08172 2 10.5C2 14.9183 5.58172 18.5 10 18.5C11.8487 18.5 13.551 17.8729 14.9056 16.8199L20.2929 22.2071C20.6834 22.5976 21.3166 22.5976 21.7071 22.2071C22.0976 21.8166 22.0976 21.1834 21.7071 20.7929L16.3199 15.4056C17.3729 14.051 18 12.3487 18 10.5C18 6.08172 14.4183 2.5 10 2.5Z" fill="#757575"/>
</svg>
