<svg width="16" height="16" viewBox="0 0 16 16" fill="none" xmlns="http://www.w3.org/2000/svg">
<g clip-path="url(#clip0_234_296)">
<path d="M6.89959 5.48071L6.36823 4.95141L6.36823 4.95141L6.89959 5.48071ZM10.1314 2.23641L10.6627 2.76571L10.6627 2.76571L10.1314 2.23641ZM13.9691 2.03364L13.4377 2.56294L13.9691 2.03364ZM6.16624 9.86263C6.45857 10.1561 6.93344 10.157 7.2269 9.86468C7.52036 9.57236 7.52128 9.09749 7.22896 8.80403L6.16624 9.86263ZM13.7671 5.88623L13.2357 5.35693L13.2357 5.35693L13.7671 5.88623ZM11.6198 6.97909C11.3275 7.27255 11.3284 7.74742 11.6219 8.03975C11.9154 8.33207 12.3902 8.33115 12.6826 8.03769L11.6198 6.97909ZM7.43094 6.01002L10.6627 2.76571L9.60001 1.70711L6.36823 4.95141L7.43094 6.01002ZM10.6627 2.76571C11.5393 1.88575 12.7782 1.9009 13.4377 2.56294L14.5004 1.50434C13.1519 0.150621 10.9545 0.347342 9.6 1.70711L10.6627 2.76571ZM7.22896 8.80403C6.56729 8.13979 6.55341 6.89096 7.43095 6.01002L6.36823 4.95141C5.0147 6.3102 4.81996 8.51112 6.16624 9.86263L7.22896 8.80403ZM14.2984 6.41553C15.652 5.05675 15.8467 2.85585 14.5004 1.50434L13.4377 2.56294C14.0994 3.22718 14.1133 4.47599 13.2357 5.35693L14.2984 6.41553ZM13.2357 5.35693L11.6198 6.97909L12.6826 8.03769L14.2984 6.41553L13.2357 5.35693Z" fill="#B8B5BA"/>
<path d="M9.10008 10.5193L8.56873 9.98995L8.56872 9.98996L9.10008 10.5193ZM5.86834 13.7636L6.39969 14.2929L6.39969 14.2929L5.86834 13.7636ZM2.03061 13.9664L1.49925 14.4957L1.49925 14.4957L2.03061 13.9664ZM9.83343 6.13737C9.5411 5.84391 9.06623 5.84299 8.77277 6.13532C8.47931 6.42764 8.47839 6.90251 8.77071 7.19597L9.83343 6.13737ZM2.2326 10.1137L1.70124 9.58443L2.2326 10.1137ZM4.37985 9.02087C4.67218 8.72741 4.67126 8.25254 4.3778 7.96021C4.08434 7.66789 3.60946 7.66881 3.31714 7.96227L4.37985 9.02087ZM7.48421 12.1414L8.01557 12.6707L8.01557 12.6707L7.48421 12.1414ZM5.33698 13.2343C4.46042 14.1142 3.22144 14.0991 2.56197 13.4371L1.49925 14.4957C2.84774 15.8494 5.04518 15.6527 6.39969 14.2929L5.33698 13.2343ZM8.77071 7.19597C9.43239 7.86021 9.44626 9.10901 8.56873 9.98995L9.63144 11.0486C10.985 9.68977 11.1797 7.48888 9.83343 6.13737L8.77071 7.19597ZM1.70124 9.58443C0.34771 10.9432 0.152967 13.1441 1.49925 14.4957L2.56197 13.4371C1.90029 12.7728 1.88642 11.524 2.76396 10.643L1.70124 9.58443ZM2.76396 10.643L4.37985 9.02087L3.31714 7.96227L1.70124 9.58443L2.76396 10.643ZM8.56872 9.98996L6.95285 11.6121L8.01557 12.6707L9.63144 11.0486L8.56872 9.98996ZM6.95285 11.6121L5.33698 13.2343L6.39969 14.2929L8.01557 12.6707L6.95285 11.6121Z" fill="#B8B5BA"/>
</g>
<defs>
<clipPath id="clip0_234_296">
<rect width="16" height="16" fill="white"/>
</clipPath>
</defs>
</svg>
