<svg width="17" height="16" viewBox="0 0 17 16" fill="none" xmlns="http://www.w3.org/2000/svg">
<g clip-path="url(#clip0_374_8778)">
<path d="M12.5702 15.1677H12.5699C12.4362 15.1677 12.3028 15.1268 12.1871 15.0442L8.5719 12.4516L8.44239 12.3587L8.31289 12.4516L4.69733 15.0445L4.69706 15.0447C4.58528 15.1251 4.45095 15.1681 4.31325 15.1677C4.17555 15.1672 4.04152 15.1232 3.93031 15.042L3.92973 15.0416C3.81839 14.9609 3.73534 14.8471 3.6924 14.7164C3.64946 14.5858 3.64882 14.4449 3.69058 14.3139L3.6911 14.3122L5.03955 9.96018L5.08737 9.80583L4.95529 9.71276L1.37431 7.18938C1.26423 7.10755 1.18247 6.99335 1.14049 6.86273C1.09831 6.7315 1.09843 6.59035 1.14081 6.4592C1.18365 6.32845 1.26647 6.21444 1.37759 6.13327C1.48864 6.05216 1.62234 6.00795 1.75984 6.00686C1.76003 6.00685 1.76022 6.00685 1.76041 6.00685L6.19695 6.00019L6.35693 5.99995L6.40746 5.84816L7.82031 1.60427C7.82032 1.60426 7.82032 1.60424 7.82032 1.60423C7.82033 1.60421 7.82034 1.60418 7.82035 1.60416C7.86391 1.47361 7.94743 1.36007 8.05909 1.27961C8.17077 1.19913 8.30495 1.15582 8.44262 1.15582C8.58028 1.15582 8.71446 1.19913 8.82614 1.27961C8.93767 1.35998 9.02113 1.47336 9.06473 1.60372C9.0648 1.6039 9.06486 1.60409 9.06492 1.60427L10.4534 5.84708L10.5034 5.99995L10.6643 6.00019L15.1238 6.00685C15.124 6.00685 15.1241 6.00685 15.1242 6.00686C15.2619 6.00772 15.3958 6.0519 15.5069 6.13311C15.6182 6.21442 15.701 6.32872 15.7436 6.45977C15.7862 6.59082 15.7864 6.73196 15.7442 6.86314C15.7022 6.99365 15.6203 7.10771 15.5102 7.18927L11.9291 9.71276L11.797 9.80583L11.8448 9.96018L13.1932 14.3122L13.1932 14.3122L13.1938 14.314C13.2356 14.445 13.2351 14.5858 13.1922 14.7165C13.1493 14.8471 13.0663 14.9609 12.955 15.0416L12.9541 15.0423C12.8428 15.124 12.7083 15.1679 12.5702 15.1677Z" stroke="#FFAC33" stroke-width="0.444444"/>
</g>
<defs>
<clipPath id="clip0_374_8778">
<rect width="16" height="16" fill="white" transform="translate(0.443359)"/>
</clipPath>
</defs>
</svg>
