<svg width="12" height="13" viewBox="0 0 12 13" fill="none" xmlns="http://www.w3.org/2000/svg">
<g clip-path="url(#clip0_391_4307)">
<path d="M9.09543 12.0427C8.96076 12.0427 8.82676 12.0014 8.71143 11.9191L5.99976 9.97439L3.2881 11.9191C3.17575 11.9999 3.04073 12.0431 2.90233 12.0427C2.76393 12.0422 2.62922 11.998 2.51743 11.9164C2.40554 11.8353 2.32208 11.7209 2.27893 11.5896C2.23578 11.4583 2.23514 11.3167 2.2771 11.1851L3.28843 7.92105L0.601097 6.02739C0.489724 5.94519 0.407012 5.83006 0.36466 5.69828C0.322309 5.5665 0.322461 5.42474 0.365096 5.29305C0.408068 5.16168 0.491239 5.04714 0.602853 4.96561C0.714467 4.88409 0.848881 4.8397 0.987096 4.83872L4.31543 4.83372L5.3751 1.65072C5.41883 1.51959 5.5027 1.40555 5.61484 1.32474C5.72698 1.24392 5.86171 1.20044 5.99993 1.20044C6.13815 1.20044 6.27288 1.24392 6.38502 1.32474C6.49716 1.40555 6.58103 1.51959 6.62476 1.65072L7.66643 4.83372L11.0118 4.83872C11.1501 4.8395 11.2848 4.88387 11.3965 4.96552C11.5082 5.04717 11.5914 5.16195 11.6341 5.29355C11.6769 5.42516 11.6771 5.5669 11.6348 5.69863C11.5924 5.83037 11.5096 5.9454 11.3981 6.02739L8.71076 7.92105L9.7221 11.1851C9.76414 11.3167 9.76357 11.4583 9.72048 11.5896C9.67739 11.7209 9.59397 11.8352 9.4821 11.9164C9.36997 11.9986 9.23449 12.0429 9.09543 12.0427Z" fill="#FFAC33"/>
</g>
<defs>
<clipPath id="clip0_391_4307">
<rect width="12" height="12" fill="white" transform="translate(0 0.5)"/>
</clipPath>
</defs>
</svg>
