<svg width="36" height="36" viewBox="0 0 36 36" fill="none" xmlns="http://www.w3.org/2000/svg">
<path d="M27.287 34.627C26.883 34.627 26.481 34.503 26.135 34.256L18 28.422L9.865 34.256C9.52795 34.4985 9.12291 34.6283 8.7077 34.6268C8.2925 34.6254 7.88836 34.4928 7.553 34.248C7.21732 34.0046 6.96695 33.6616 6.83751 33.2677C6.70806 32.8738 6.70613 32.4491 6.832 32.054L9.866 22.262L1.804 16.581C1.46988 16.3344 1.22174 15.989 1.09469 15.5937C0.967635 15.1983 0.968093 14.7731 1.096 14.378C1.22491 13.9839 1.47443 13.6403 1.80927 13.3957C2.14411 13.1511 2.54735 13.0179 2.962 13.015L12.947 13L16.126 3.451C16.2572 3.05763 16.5088 2.71549 16.8452 2.47306C17.1817 2.23062 17.5858 2.10016 18.0005 2.10016C18.4152 2.10016 18.8193 2.23062 19.1558 2.47306C19.4922 2.71549 19.7438 3.05763 19.875 3.451L23 13L33.036 13.015C33.4511 13.0173 33.855 13.1504 34.1902 13.3954C34.5253 13.6403 34.7748 13.9847 34.9031 14.3795C35.0315 14.7743 35.0321 15.1995 34.905 15.5947C34.7779 15.9899 34.5294 16.335 34.195 16.581L26.133 22.262L29.167 32.054C29.2931 32.4489 29.2914 32.8736 29.1622 33.2676C29.0329 33.6615 28.7826 34.0046 28.447 34.248C28.1106 34.4947 27.7042 34.6275 27.287 34.627Z" fill="#9747FF"/>
</svg>
