<svg width="16" height="16" viewBox="0 0 16 16" fill="none" xmlns="http://www.w3.org/2000/svg">
<g id="vuesax/outline/truck-fast">
<g id="truck-fast">
<path id="Vector" d="M8.66636 9.83301H7.99969C7.72636 9.83301 7.49969 9.60634 7.49969 9.33301C7.49969 9.05967 7.72636 8.83301 7.99969 8.83301H8.66636C9.12636 8.83301 9.49969 8.45967 9.49969 7.99967V1.83301H3.99969C3.21302 1.83301 2.493 2.25966 2.10634 2.94633C1.973 3.18633 1.66637 3.27302 1.42637 3.13969C1.18637 3.00636 1.09967 2.69968 1.23301 2.45968C1.79301 1.45968 2.85302 0.833008 3.99969 0.833008H9.99969C10.273 0.833008 10.4997 1.05967 10.4997 1.33301V7.99967C10.4997 9.01301 9.67969 9.83301 8.66636 9.83301Z" fill="#A739EA"/>
<path id="Vector_2" d="M12.6668 13.833H12.0002C11.7268 13.833 11.5002 13.6063 11.5002 13.333C11.5002 12.873 11.1268 12.4997 10.6668 12.4997C10.2068 12.4997 9.8335 12.873 9.8335 13.333C9.8335 13.6063 9.60683 13.833 9.3335 13.833H6.66683C6.3935 13.833 6.16683 13.6063 6.16683 13.333C6.16683 12.873 5.7935 12.4997 5.3335 12.4997C4.8735 12.4997 4.50016 12.873 4.50016 13.333C4.50016 13.6063 4.2735 13.833 4.00016 13.833H3.3335C1.9535 13.833 0.833496 12.713 0.833496 11.333C0.833496 11.0597 1.06016 10.833 1.3335 10.833C1.60683 10.833 1.8335 11.0597 1.8335 11.333C1.8335 12.1597 2.50683 12.833 3.3335 12.833H3.56681C3.78681 12.0663 4.4935 11.4997 5.3335 11.4997C6.1735 11.4997 6.88018 12.0663 7.10018 12.833H8.90682C9.12682 12.0663 9.8335 11.4997 10.6735 11.4997C11.5135 11.4997 12.2201 12.0663 12.4401 12.833H12.6668C13.4935 12.833 14.1668 12.1597 14.1668 11.333V9.83301H12.6668C12.0268 9.83301 11.5002 9.30634 11.5002 8.66634V6.66634C11.5002 6.02634 12.0202 5.49967 12.6668 5.49967L11.9535 4.25301C11.8068 3.99301 11.5268 3.83301 11.2268 3.83301H10.5002V7.99967C10.5002 9.01301 9.68016 9.83301 8.66683 9.83301H8.00016C7.72683 9.83301 7.50016 9.60634 7.50016 9.33301C7.50016 9.05967 7.72683 8.83301 8.00016 8.83301H8.66683C9.12683 8.83301 9.50016 8.45967 9.50016 7.99967V3.33301C9.50016 3.05967 9.72683 2.83301 10.0002 2.83301H11.2268C11.8868 2.83301 12.4935 3.18635 12.8202 3.75968L13.9602 5.75301C14.0468 5.90634 14.0468 6.09968 13.9602 6.25301C13.8735 6.40634 13.7068 6.49967 13.5268 6.49967H12.6668C12.5735 6.49967 12.5002 6.57301 12.5002 6.66634V8.66634C12.5002 8.75967 12.5735 8.83301 12.6668 8.83301H14.6668C14.9402 8.83301 15.1668 9.05967 15.1668 9.33301V11.333C15.1668 12.713 14.0468 13.833 12.6668 13.833Z" fill="#A739EA"/>
<path id="Vector_3" d="M5.33333 15.1667C4.32 15.1667 3.5 14.3467 3.5 13.3333C3.5 12.32 4.32 11.5 5.33333 11.5C6.34667 11.5 7.16667 12.32 7.16667 13.3333C7.16667 14.3467 6.34667 15.1667 5.33333 15.1667ZM5.33333 12.5C4.87333 12.5 4.5 12.8733 4.5 13.3333C4.5 13.7933 4.87333 14.1667 5.33333 14.1667C5.79333 14.1667 6.16667 13.7933 6.16667 13.3333C6.16667 12.8733 5.79333 12.5 5.33333 12.5Z" fill="#A739EA"/>
<path id="Vector_4" d="M10.6668 15.1667C9.6535 15.1667 8.8335 14.3467 8.8335 13.3333C8.8335 12.32 9.6535 11.5 10.6668 11.5C11.6802 11.5 12.5002 12.32 12.5002 13.3333C12.5002 14.3467 11.6802 15.1667 10.6668 15.1667ZM10.6668 12.5C10.2068 12.5 9.8335 12.8733 9.8335 13.3333C9.8335 13.7933 10.2068 14.1667 10.6668 14.1667C11.1268 14.1667 11.5002 13.7933 11.5002 13.3333C11.5002 12.8733 11.1268 12.5 10.6668 12.5Z" fill="#A739EA"/>
<path id="Vector_5" d="M14.6667 9.83333H12.6667C12.0267 9.83333 11.5 9.30667 11.5 8.66667V6.66667C11.5 6.02667 12.0267 5.5 12.6667 5.5H13.5267C13.7067 5.5 13.8733 5.59334 13.96 5.75334L15.1 7.75334C15.14 7.82667 15.1667 7.91333 15.1667 8V9.33333C15.1667 9.60667 14.94 9.83333 14.6667 9.83333ZM12.6667 6.5C12.5733 6.5 12.5 6.57333 12.5 6.66667V8.66667C12.5 8.76 12.5733 8.83333 12.6667 8.83333H14.1667V8.13334L13.2333 6.5H12.6667Z" fill="#A739EA"/>
<path id="Vector_6" d="M5.3335 5.83301H1.3335C1.06016 5.83301 0.833496 5.60634 0.833496 5.33301C0.833496 5.05967 1.06016 4.83301 1.3335 4.83301H5.3335C5.60683 4.83301 5.8335 5.05967 5.8335 5.33301C5.8335 5.60634 5.60683 5.83301 5.3335 5.83301Z" fill="#A739EA"/>
<path id="Vector_7" d="M4.00016 7.83301H1.3335C1.06016 7.83301 0.833496 7.60634 0.833496 7.33301C0.833496 7.05967 1.06016 6.83301 1.3335 6.83301H4.00016C4.2735 6.83301 4.50016 7.05967 4.50016 7.33301C4.50016 7.60634 4.2735 7.83301 4.00016 7.83301Z" fill="#A739EA"/>
<path id="Vector_8" d="M2.66683 9.83301H1.3335C1.06016 9.83301 0.833496 9.60634 0.833496 9.33301C0.833496 9.05967 1.06016 8.83301 1.3335 8.83301H2.66683C2.94016 8.83301 3.16683 9.05967 3.16683 9.33301C3.16683 9.60634 2.94016 9.83301 2.66683 9.83301Z" fill="#A739EA"/>
</g>
</g>
</svg>
