<svg width="16" height="16" viewBox="0 0 16 16" fill="none" xmlns="http://www.w3.org/2000/svg">
<path d="M2 10C2 11.8856 2 12.8284 2.58579 13.4142C3.17157 14 4.11438 14 6 14H10C11.8856 14 12.8284 14 13.4142 13.4142C14 12.8284 14 11.8856 14 10" stroke="#B8B5BA" stroke-width="1.5" stroke-linecap="round" stroke-linejoin="round"/>
<path d="M7.24967 10.6667C7.24967 11.0809 7.58546 11.4167 7.99967 11.4167C8.41389 11.4167 8.74967 11.0809 8.74967 10.6667H7.24967ZM7.99967 2L8.5532 1.49392C8.41111 1.33852 8.21024 1.25 7.99968 1.25C7.78911 1.25 7.58824 1.33852 7.44615 1.49392L7.99967 2ZM10.1128 5.42274C10.3923 5.72845 10.8667 5.74969 11.1724 5.47019C11.4781 5.19069 11.4994 4.71629 11.2199 4.41059L10.1128 5.42274ZM4.77949 4.41059C4.49999 4.71629 4.52123 5.19069 4.82693 5.47019C5.13263 5.74969 5.60703 5.72845 5.88653 5.42274L4.77949 4.41059ZM8.74967 10.6667V2H7.24967V10.6667H8.74967ZM7.44615 2.50608L10.1128 5.42274L11.2199 4.41059L8.5532 1.49392L7.44615 2.50608ZM7.44615 1.49392L4.77949 4.41059L5.88653 5.42274L8.5532 2.50608L7.44615 1.49392Z" fill="#B8B5BA"/>
</svg>
