<svg width="16" height="16" viewBox="0 0 16 16" fill="none" xmlns="http://www.w3.org/2000/svg">
<g clip-path="url(#clip0_234_134)">
<path d="M14.6663 8C14.6663 11.1427 14.6663 12.714 13.69 13.6904C12.7137 14.6667 11.1424 14.6667 7.99967 14.6667C4.85698 14.6667 3.28563 14.6667 2.30932 13.6904C1.33301 12.714 1.33301 11.1427 1.33301 8C1.33301 4.85731 1.33301 3.28596 2.30932 2.30965C3.28563 1.33334 4.85698 1.33334 7.99967 1.33334" stroke="#97929A" stroke-width="1.5" stroke-linecap="round"/>
<path d="M0.839132 7.76883C0.527403 8.04159 0.495813 8.51541 0.768573 8.82714C1.04133 9.13886 1.51515 9.17046 1.82688 8.8977L0.839132 7.76883ZM2.50073 7.31151L2.99461 7.87595L2.99461 7.87595L2.50073 7.31151ZM4.59466 7.38124L5.12499 6.85091L4.59466 7.38124ZM7.45448 10.2411L7.98481 9.71072L7.98481 9.71072L7.45448 10.2411ZM9.16394 10.3891L8.7327 9.7755L8.7327 9.7755L9.16394 10.3891ZM9.36274 10.2494L8.9315 9.63579L8.9315 9.63579L9.36274 10.2494ZM11.8507 10.3991L11.3489 10.9566L11.3489 10.9566L11.8507 10.3991ZM13.498 12.8907C13.8058 13.1678 14.2801 13.1429 14.5571 12.835C14.8342 12.5271 14.8093 12.0529 14.5014 11.7758L13.498 12.8907ZM1.82688 8.8977L2.99461 7.87595L2.00686 6.74708L0.839132 7.76883L1.82688 8.8977ZM4.06433 7.91157L6.92415 10.7714L7.98481 9.71072L5.12499 6.85091L4.06433 7.91157ZM9.59519 11.0027L9.79399 10.863L8.9315 9.63579L8.7327 9.7755L9.59519 11.0027ZM11.3489 10.9566L13.498 12.8907L14.5014 11.7758L12.3524 9.84167L11.3489 10.9566ZM9.79399 10.863C10.2708 10.528 10.9158 10.5668 11.3489 10.9566L12.3524 9.84167C11.3995 8.98405 9.98038 8.89865 8.9315 9.63579L9.79399 10.863ZM6.92415 10.7714C7.64002 11.4873 8.76689 11.5849 9.59519 11.0027L8.7327 9.7755C8.50078 9.9385 8.18525 9.91117 7.98481 9.71072L6.92415 10.7714ZM2.99461 7.87595C3.30497 7.60438 3.77273 7.61996 4.06433 7.91157L5.12499 6.85091C4.27499 6.0009 2.91152 5.9555 2.00686 6.74708L2.99461 7.87595Z" fill="#97929A"/>
<path d="M10 2.91667C9.58579 2.91667 9.25 3.25246 9.25 3.66667C9.25 4.08088 9.58579 4.41667 10 4.41667V2.91667ZM14.6667 4.41667C15.0809 4.41667 15.4167 4.08088 15.4167 3.66667C15.4167 3.25246 15.0809 2.91667 14.6667 2.91667V4.41667ZM11.5833 6C11.5833 6.41422 11.9191 6.75 12.3333 6.75C12.7475 6.75 13.0833 6.41422 13.0833 6H11.5833ZM13.0833 1.33334C13.0833 0.919122 12.7475 0.583336 12.3333 0.583336C11.9191 0.583336 11.5833 0.919122 11.5833 1.33334H13.0833ZM10 4.41667H12.3333V2.91667H10V4.41667ZM12.3333 4.41667H14.6667V2.91667H12.3333V4.41667ZM13.0833 6V3.66667H11.5833V6H13.0833ZM13.0833 3.66667V1.33334H11.5833V3.66667H13.0833Z" fill="#A739EA"/>
</g>
<defs>
<clipPath id="clip0_234_134">
<rect width="16" height="16" fill="white"/>
</clipPath>
</defs>
</svg>
